STARTFONT 2.1
COMMENT
COMMENT Converted from OpenType font "SourceSansPro-Regular.otf" by "otf2bdf 3.0".
COMMENT
FONT -FreeType-Source Sans Pro-Medium-R-Normal--97-700-100-100-P-438-ISO10646-1
SIZE 70 100 100
FONTBOUNDINGBOX 254 122 -44 -27
STARTPROPERTIES 19
FOUNDRY "FreeType"
FAMILY_NAME "Source Sans Pro"
WEIGHT_NAME "Medium"
SLANT "R"
SETWIDTH_NAME "Normal"
ADD_STYLE_NAME ""
PIXEL_SIZE 97
POINT_SIZE 700
RESOLUTION_X 100
RESOLUTION_Y 100
SPACING "P"
AVERAGE_WIDTH 438
CHARSET_REGISTRY "ISO10646"
CHARSET_ENCODING "1"
FONT_ASCENT 95
FONT_DESCENT 26
COPYRIGHT "Copyright 2010, 2012, 2014 Adobe Systems Incorporated (http://www.adobe.com/), with Reserved Font Name Source."
_OTF_FONTFILE "SourceSansPro-Regular.otf"
_OTF_PSNAME "SourceSansPro-Regular"
ENDPROPERTIES
CHARS 1296
STARTCHAR 0020
ENCODING 32
SWIDTH 195 0
DWIDTH 19 0
BBX 0 0 0 0
BITMAP
ENDCHAR
STARTCHAR 0021
ENCODING 33
SWIDTH 288 0
DWIDTH 28 0
BBX 12 66 8 -1
BITMAP
3FC0
3FC0
3FC0
3FC0
3FC0
3FC0
3FC0
3FC0
3FC0
3FC0
3FC0
3FC0
3FC0
3FC0
3FC0
3FC0
3FC0
3FC0
3FC0
3FC0
1FC0
1FC0
1F80
1F80
1F80
1F80
1F80
1F80
1F80
1F80
1F80
1F80
1F80
1F80
1F80
1F80
1F80
1F80
1F80
1F80
1F80
1F80
1F80
1F80
1F80
1F80
0000
0000
0000
0000
0000
0000
0000
0000
1F80
3FC0
7FE0
7FE0
FFF0
FFF0
FFF0
FFF0
7FE0
7FE0
3FC0
0F00
ENDCHAR
STARTCHAR 0022
ENCODING 34
SWIDTH 421 0
DWIDTH 41 0
BBX 26 25 8 42
BITMAP
FF007FC0
FF007F80
FF007F80
FF007F80
FF007F80
FF007F80
FF007F80
FF007F80
FF007F80
FF007F80
FF007F80
FF007F80
FF003F80
FF003F80
7E003F80
7E003F80
7E003F80
7E003F00
7E003F00
7E003F00
7E003F00
7E003F00
7E001F00
7E001F00
3E001F00
ENDCHAR
STARTCHAR 0023
ENCODING 35
SWIDTH 493 0
DWIDTH 48 0
BBX 42 63 3 0
BITMAP
0007E000F800
0007C000F800
0007C001F800
0007C001F000
0007C001F000
0007C001F000
0007C001F000
0007C001F000
000FC001F000
000F8003F000
000F8003E000
000F8003E000
000F8003E000
000F8003E000
000F8003E000
000F8003E000
001F8003E000
001F8007E000
3FFFFFFFFFC0
3FFFFFFFFFC0
3FFFFFFFFFC0
3FFFFFFFFFC0
3FFFFFFFFFC0
3FFFFFFFFFC0
003F0007C000
003F000FC000
003E000FC000
003E000F8000
003E000F8000
003E000F8000
003E000F8000
003E000F8000
007E000F8000
007E001F8000
007C001F8000
007C001F0000
007C001F0000
FFFFFFFFFF00
FFFFFFFFFF00
FFFFFFFFFF00
FFFFFFFFFF00
FFFFFFFFFF00
FFFFFFFFFF00
00F8003E0000
00F8003E0000
00F8003E0000
00F8003E0000
00F8003E0000
01F8003E0000
01F8007E0000
01F8007E0000
01F0007C0000
01F0007C0000
01F0007C0000
01F0007C0000
01F0007C0000
01F0007C0000
03F0007C0000
03F000FC0000
03E000FC0000
03E000F80000
03E000F80000
03E000F80000
ENDCHAR
STARTCHAR 0024
ENCODING 36
SWIDTH 493 0
DWIDTH 48 0
BBX 37 84 5 -11
BITMAP
00007C0000
00007C0000
00007C0000
00007C0000
00007C0000
00007C0000
00007C0000
00007C0000
00007C0000
00007C0000
0003FF8000
000FFFF000
003FFFFC00
00FFFFFF00
01FFFFFF80
03FFFFFFC0
07FFFFFFE0
07FE007FF0
0FFC001FE0
0FF80007C0
1FF0000380
1FE0000180
1FE0000000
1FE0000000
1FC0000000
1FC0000000
3FC0000000
1FE0000000
1FE0000000
1FE0000000
1FF0000000
1FF0000000
0FF8000000
0FFC000000
07FF000000
03FF800000
03FFE00000
01FFF80000
007FFE0000
003FFF8000
001FFFE000
0007FFF800
0001FFFC00
00007FFE00
00001FFF80
000007FFC0
000003FFC0
000000FFE0
0000007FF0
0000003FF0
0000001FF0
0000000FF8
0000000FF8
00000007F8
00000007F8
00000007F8
00000003F8
00000003F8
00000003F8
00000007F8
00000007F8
10000007F8
1C000007F8
3E00000FF0
7F80001FF0
7FC0003FE0
FFF800FFE0
7FFFFFFFC0
3FFFFFFF80
0FFFFFFF00
03FFFFFE00
00FFFFF800
003FFFE000
0007FF0000
00007C0000
00007C0000
00007C0000
00007C0000
00007C0000
00007C0000
00007C0000
00007C0000
00007C0000
00007C0000
ENDCHAR
STARTCHAR 0025
ENCODING 37
SWIDTH 822 0
DWIDTH 80 0
BBX 74 66 3 -1
BITMAP
001FE00000000F800000
007FF80000001F800000
01FFFE0000001F000000
03FFFF0000003E000000
07FFFF8000003E000000
0FF07FC000007C000000
0FE01FC00000FC000000
1FC00FE00000F8000000
1F8007E00001F8000000
3F0007F00001F0000000
3F0003F00003F0000000
7F0003F00003E0000000
7E0003F80007E0000000
7E0001F80007C0000000
7E0001F8000FC0000000
7E0001F8000F80000000
7E0001F8001F80000000
7E0001F8001F00000000
FC0001F8003E00000000
FC0001F8003E00000000
FC0001F8007C00000000
FC0001F800FC00000000
FE0001F800F800000000
7E0001F801F800000000
7E0001F801F000000000
7E0001F803F000000000
7E0001F803E000FE0000
7E0003F807E007FFC000
7F0003F007C01FFFE000
3F0003F00FC03FFFF000
3F0007F00F807FFFF800
3F8007E01F807F83FC00
1FC00FE01F00FE00FE00
1FE01FC03E01FC007E00
0FF03FC03E01F8007F00
07FFFF807C03F8003F00
03FFFF00FC03F0003F80
01FFFE00F803F0001F80
007FF801F803F0001F80
001FE001F007E0001F80
00000003F007E0001F80
00000003E007E0001FC0
00000007E007E0000FC0
00000007C007E0000FC0
0000000FC007E0000FC0
0000000F8007E0000FC0
0000001F8007E0000FC0
0000001F0007E0000FC0
0000003F0007E0000FC0
0000003E0007E0000FC0
0000007C0007E0001FC0
000000FC0007E0001F80
000000F80007F0001F80
000001F80003F0001F80
000001F00003F0001F80
000003F00003F0003F00
000003E00001F8003F00
000007E00001F8007F00
000007C00001FC00FE00
00000FC00000FE00FE00
00000F8000007F83FC00
00001F8000007FFFF800
00001F0000003FFFF000
00003F0000001FFFE000
00003E00000007FF8000
00007C00000000FE0000
ENDCHAR
STARTCHAR 0026
ENCODING 38
SWIDTH 606 0
DWIDTH 59 0
BBX 55 66 3 -1
BITMAP
00001FE0000000
00007FFC000000
0001FFFE000000
0003FFFF000000
000FFFFF800000
000FFFFFC00000
001FF03FE00000
003FC00FE00000
003F800FE00000
007F8007F00000
007F0007F00000
007F0007F00000
007F0007F00000
007E0007F00000
00FE0007F00000
00FE0007E00000
007E000FE00000
007F000FE00000
007F001FC00000
007F001FC00000
007F003F800000
007F807F800000
003F81FF000000
003F83FE000000
003FC7FC000000
001FDFF8000000
001FFFF0000000
001FFFE0000000
000FFF80000000
000FFF00000000
000FFE000003FC
001FF8000003FC
007FFC000003F8
00FFFE000003F8
01FFFF000007F8
03FFFF000007F0
07FE7F800007F0
0FFC7FC0000FF0
1FF83FE0000FE0
1FF01FF0001FE0
3FE01FF0001FC0
3FC00FF8003FC0
7F8007FC003F80
7F8003FE007F80
7F0001FF007F00
FF0000FF80FF00
FF0000FFC0FE00
FF00007FE1FE00
FF00003FFBFC00
FF00001FFFF800
FF00000FFFF800
FF000007FFF000
7F800003FFE000
7F800000FFE000
7FC000007FF800
3FE00001FFFC00
3FF00003FFFF00
1FF8000FFFFFC0
1FFE003FFFFFF0
0FFFE7FFF9FFFE
07FFFFFFF07FFC
03FFFFFFC03FFC
01FFFFFF800FFC
007FFFFE0003F8
001FFFF00000F8
0001FF80000018
ENDCHAR
STARTCHAR 0027
ENCODING 39
SWIDTH 246 0
DWIDTH 24 0
BBX 8 25 8 42
BITMAP
FF
FF
FF
FF
FF
FF
FF
FF
FF
FF
FF
FF
FF
FF
7E
7E
7E
7E
7E
7E
7E
7E
7E
7E
3E
ENDCHAR
STARTCHAR 0028
ENCODING 40
SWIDTH 298 0
DWIDTH 29 0
BBX 18 88 8 -17
BITMAP
000C00
000F80
001FC0
001F80
003F00
003F00
007E00
007E00
00FC00
00FC00
01F800
01F800
03F800
03F000
07F000
07E000
07E000
0FE000
0FC000
0FC000
1FC000
1FC000
1F8000
1F8000
3F8000
3F8000
3F0000
3F0000
7F0000
7F0000
7F0000
7E0000
7E0000
7E0000
FE0000
FE0000
FE0000
FE0000
FE0000
FE0000
FE0000
FE0000
FE0000
FE0000
FE0000
FE0000
FE0000
FE0000
FE0000
FE0000
FE0000
FE0000
FE0000
7E0000
7E0000
7E0000
7F0000
7F0000
7F0000
7F0000
3F0000
3F0000
3F8000
3F8000
1F8000
1F8000
1FC000
1FC000
0FC000
0FE000
0FE000
07E000
07F000
07F000
03F000
03F800
01F800
01FC00
00FC00
00FC00
007E00
007E00
003F00
003F80
001F80
001FC0
000F00
000400
ENDCHAR
STARTCHAR 0029
ENCODING 41
SWIDTH 298 0
DWIDTH 29 0
BBX 17 88 4 -17
BITMAP
180000
7C0000
FC0000
7E0000
7E0000
3F0000
3F8000
1F8000
1FC000
0FC000
0FE000
07E000
07E000
07F000
03F000
03F800
03F800
01F800
01FC00
01FC00
00FC00
00FC00
00FE00
00FE00
007E00
007F00
007F00
007F00
003F00
003F00
003F00
003F80
003F80
003F80
003F80
001F80
001F80
001F80
001F80
001F80
001F80
001F80
001F80
001F80
001F80
001F80
001F80
001F80
001F80
001F80
001F80
001F80
001F80
003F80
003F80
003F80
003F80
003F00
003F00
003F00
007F00
007F00
007E00
007E00
00FE00
00FE00
00FC00
00FC00
01FC00
01F800
01F800
03F800
03F000
03F000
07F000
07E000
0FE000
0FC000
0FC000
1F8000
1F8000
3F0000
3F0000
7E0000
FE0000
FC0000
7C0000
080000
ENDCHAR
STARTCHAR 002A
ENCODING 42
SWIDTH 421 0
DWIDTH 41 0
BBX 29 28 6 41
BITMAP
000F8000
000F8000
000F8000
000F8000
001F8000
001F8000
001F8000
001F8000
601F8030
7E1F87F0
FFFFFFF0
FFFFFFF8
FFFFFFF8
3FFFFFE0
0FFFFF00
01FFFC00
007FF000
00FFF000
00FFF800
01FFF800
01FDFC00
03F8FE00
07F0FE00
07E07F00
0FE03F00
0FC01F80
07800F00
03000C00
ENDCHAR
STARTCHAR 002B
ENCODING 43
SWIDTH 493 0
DWIDTH 48 0
BBX 42 44 3 10
BITMAP
00003F000000
00003F000000
00003F000000
00003F000000
00003F000000
00003F000000
00003F000000
00003F000000
00003F000000
00003F000000
00003F000000
00003F000000
00003F000000
00003F000000
00003F000000
00003F000000
00003F000000
00003F000000
00003F000000
FFFFFFFFFFC0
FFFFFFFFFFC0
FFFFFFFFFFC0
FFFFFFFFFFC0
FFFFFFFFFFC0
FFFFFFFFFFC0
00003F000000
00003F000000
00003F000000
00003F000000
00003F000000
00003F000000
00003F000000
00003F000000
00003F000000
00003F000000
00003F000000
00003F000000
00003F000000
00003F000000
00003F000000
00003F000000
00003F000000
00003F000000
00003F000000
ENDCHAR
STARTCHAR 002C
ENCODING 44
SWIDTH 246 0
DWIDTH 24 0
BBX 14 27 5 -16
BITMAP
07C0
1FF0
3FF8
3FF8
3FFC
3FFC
3FFC
3FFC
3FFC
1FFC
07FC
00FC
00FC
00FC
00FC
01F8
01F8
03F0
03F0
07E0
1FE0
3FC0
FF80
FF00
FE00
7800
6000
ENDCHAR
STARTCHAR 002D
ENCODING 45
SWIDTH 308 0
DWIDTH 30 0
BBX 22 6 4 21
BITMAP
FFFFFC
FFFFFC
FFFFFC
FFFFFC
FFFFFC
FFFFFC
ENDCHAR
STARTCHAR 002E
ENCODING 46
SWIDTH 246 0
DWIDTH 24 0
BBX 12 12 6 -1
BITMAP
1F80
3FC0
7FE0
7FE0
7FF0
FFF0
FFF0
7FF0
7FE0
7FE0
3FC0
0F00
ENDCHAR
STARTCHAR 002F
ENCODING 47
SWIDTH 349 0
DWIDTH 34 0
BBX 32 85 1 -16
BITMAP
0000003F
0000007E
0000007E
0000007E
0000007C
000000FC
000000FC
000000F8
000001F8
000001F8
000001F8
000003F0
000003F0
000003F0
000007E0
000007E0
000007E0
000007C0
00000FC0
00000FC0
00000F80
00001F80
00001F80
00001F80
00003F00
00003F00
00003F00
00007E00
00007E00
00007E00
00007C00
0000FC00
0000FC00
0000F800
0001F800
0001F800
0001F800
0003F000
0003F000
0003F000
0007E000
0007E000
0007E000
0007C000
000FC000
000FC000
000F8000
001F8000
001F8000
001F8000
003F0000
003F0000
003F0000
003E0000
007E0000
007E0000
007C0000
00FC0000
00FC0000
00F80000
01F80000
01F80000
01F80000
03F00000
03F00000
03F00000
03E00000
07E00000
07E00000
07C00000
0FC00000
0FC00000
0FC00000
1F800000
1F800000
1F800000
3F000000
3F000000
3F000000
3E000000
7E000000
7E000000
7C000000
FC000000
FC000000
ENDCHAR
STARTCHAR 0030
ENCODING 48
SWIDTH 493 0
DWIDTH 48 0
BBX 40 64 4 -1
BITMAP
0000FF8000
0007FFF000
001FFFF800
003FFFFE00
007FFFFF00
00FFFFFF80
01FFF7FFC0
03FF00FFC0
07FC003FE0
07F8001FF0
0FF8000FF0
0FF0000FF8
1FE00007F8
1FE00007F8
1FC00003FC
3FC00003FC
3FC00001FC
3FC00001FE
3F800001FE
7F800001FE
7F800001FE
7F800000FE
7F800000FF
7F800000FF
7F000000FF
7F000000FF
FF000000FF
FF000000FF
FF000000FF
FF000000FF
FF000000FF
FF000000FF
FF000000FF
FF000000FF
FF000000FF
FF000000FF
FF000000FF
FF000000FF
7F000000FF
7F000000FF
7F800000FF
7F800000FE
7F800000FE
7F800001FE
7F800001FE
3F800001FE
3FC00001FC
3FC00003FC
3FC00003FC
1FE00003FC
1FE00007F8
1FE00007F8
0FF0000FF0
0FF8000FF0
07FC001FE0
07FE003FE0
03FF007FC0
01FFF7FF80
00FFFFFF80
007FFFFF00
003FFFFE00
001FFFF800
0007FFE000
0000FF0000
ENDCHAR
STARTCHAR 0031
ENCODING 49
SWIDTH 493 0
DWIDTH 48 0
BBX 35 62 8 0
BITMAP
0001FC0000
0007FC0000
001FFC0000
01FFFC0000
1FFFFC0000
1FFFFC0000
1FFFFC0000
1FFFFC0000
1FFFFC0000
1FFFFC0000
0003FC0000
0003FC0000
0003FC0000
0003FC0000
0003FC0000
0003FC0000
0003FC0000
0003FC0000
0003FC0000
0003FC0000
0003FC0000
0003FC0000
0003FC0000
0003FC0000
0003FC0000
0003FC0000
0003FC0000
0003FC0000
0003FC0000
0003FC0000
0003FC0000
0003FC0000
0003FC0000
0003FC0000
0003FC0000
0003FC0000
0003FC0000
0003FC0000
0003FC0000
0003FC0000
0003FC0000
0003FC0000
0003FC0000
0003FC0000
0003FC0000
0003FC0000
0003FC0000
0003FC0000
0003FC0000
0003FC0000
0003FC0000
0003FC0000
0003FC0000
0003FC0000
0003FC0000
FFFFFFFFE0
FFFFFFFFE0
FFFFFFFFE0
FFFFFFFFE0
FFFFFFFFE0
FFFFFFFFE0
FFFFFFFFE0
ENDCHAR
STARTCHAR 0032
ENCODING 50
SWIDTH 493 0
DWIDTH 48 0
BBX 40 63 4 0
BITMAP
0003FE0000
003FFFE000
00FFFFF800
03FFFFFC00
07FFFFFE00
0FFFFFFF00
3FFFFFFF80
7FF001FFC0
FFC000FFE0
FF80003FE0
7F00001FE0
3C00001FF0
1800000FF0
0000000FF0
00000007F8
00000007F8
00000007F8
00000007F8
00000007F8
00000007F8
00000007F8
00000007F8
00000007F0
0000000FF0
0000000FF0
0000000FF0
0000001FE0
0000001FE0
0000003FC0
0000003FC0
0000007F80
000000FF80
000000FF00
000001FE00
000003FE00
000007FC00
000007F800
00000FF800
00001FF000
00003FE000
00007FC000
0000FF8000
0001FF8000
0003FF0000
0007FE0000
0007FC0000
000FF80000
001FF00000
003FE00000
007FC00000
00FF800000
01FF800000
03FF000000
07FE000000
0FFC000000
1FF8000000
3FF3FFFFFF
7FFFFFFFFF
FFFFFFFFFF
FFFFFFFFFF
FFFFFFFFFF
FFFFFFFFFF
FFFFFFFFFF
ENDCHAR
STARTCHAR 0033
ENCODING 51
SWIDTH 493 0
DWIDTH 48 0
BBX 40 64 3 -1
BITMAP
0001FF8000
000FFFF000
007FFFFE00
01FFFFFF00
03FFFFFF80
07FFFFFFC0
1FFFFFFFE0
3FFC007FF0
3FF0003FF8
1FC0001FF8
0F80000FF8
07000007FC
00000007FC
00000003FC
00000003FC
00000003FC
00000003FC
00000003FC
00000003FC
00000003FC
00000007FC
00000007F8
0000000FF8
0000001FF0
0000003FE0
0000007FE0
000001FFC0
00003FFF00
000FFFFE00
000FFFF800
000FFFE000
000FFFF800
000FFFFF00
000FFFFF80
00000FFFE0
000000FFF0
0000003FF8
0000000FFC
00000007FC
00000003FE
00000001FE
00000001FF
00000000FF
00000000FF
00000000FF
00000000FF
00000000FF
00000000FF
00000000FF
00000000FF
10000000FF
18000001FF
3C000003FE
7F000003FE
FF800007FC
FFE0001FFC
7FFC007FF8
3FFFFFFFF0
1FFFFFFFE0
0FFFFFFFC0
03FFFFFF80
00FFFFFE00
003FFFF800
0003FF8000
ENDCHAR
STARTCHAR 0034
ENCODING 52
SWIDTH 493 0
DWIDTH 48 0
BBX 44 62 2 0
BITMAP
0000003FE000
0000007FE000
0000007FE000
000000FFE000
000001FFE000
000001FFE000
000003FFE000
000007FFE000
000007FFE000
00000FEFE000
00001FEFE000
00001FCFE000
00003F8FE000
00007F8FE000
00007F0FE000
0000FF0FE000
0001FE0FE000
0001FC0FE000
0003FC0FE000
0007F80FE000
0007F00FE000
000FF00FE000
001FE00FE000
001FC00FE000
003FC00FE000
007F800FE000
007F000FE000
00FF000FE000
01FE000FE000
03FC000FE000
03FC000FE000
07F8000FE000
0FF0000FE000
0FF0000FE000
1FE0000FE000
3FC0000FE000
3FC0000FE000
7F80000FE000
FF00000FE000
FFFFFFFFFFF0
FFFFFFFFFFF0
FFFFFFFFFFF0
FFFFFFFFFFF0
FFFFFFFFFFF0
FFFFFFFFFFF0
0000000FE000
0000000FE000
0000000FE000
0000000FE000
0000000FE000
0000000FE000
0000000FE000
0000000FE000
0000000FE000
0000000FE000
0000000FE000
0000000FE000
0000000FE000
0000000FE000
0000000FE000
0000000FE000
0000000FE000
ENDCHAR
STARTCHAR 0035
ENCODING 53
SWIDTH 493 0
DWIDTH 48 0
BBX 42 63 2 -1
BITMAP
01FFFFFFFE00
01FFFFFFFE00
01FFFFFFFE00
01FFFFFFFE00
01FFFFFFFE00
01FFFFFFFE00
01FFFFFFFE00
01FC00000000
01FC00000000
01FC00000000
01FC00000000
01FC00000000
01FC00000000
01FC00000000
01FC00000000
03FC00000000
03FC00000000
03FC00000000
03F800000000
03F800000000
03F800000000
03F800000000
03F800000000
03F83FF00000
03F9FFFE0000
03FFFFFF8000
03FFFFFFE000
03FFFFFFF000
03FFFFFFF800
03FF00FFFC00
03FC001FFE00
00F00007FE00
00400003FF00
00000001FF00
00000000FF80
00000000FF80
000000007F80
000000007F80
000000007F80
000000007FC0
000000007FC0
000000003FC0
000000003FC0
000000003FC0
000000007FC0
000000007F80
000000007F80
000000007F80
00000000FF80
00000000FF80
1C000001FF00
1E000001FF00
3F000003FE00
7FC00007FE00
FFE0001FFC00
7FFC007FF800
1FFFFFFFF000
0FFFFFFFE000
07FFFFFFC000
01FFFFFF8000
007FFFFE0000
001FFFF80000
0001FF800000
ENDCHAR
STARTCHAR 0036
ENCODING 54
SWIDTH 493 0
DWIDTH 48 0
BBX 39 64 5 -1
BITMAP
00001FF000
0001FFFE00
0007FFFF80
000FFFFFE0
003FFFFFF0
007FFFFFF8
00FFFFFFFC
01FFE00FF8
03FF8003F8
03FE0000F0
07FC000060
07F8000000
0FF0000000
0FF0000000
1FE0000000
1FE0000000
3FC0000000
3FC0000000
3F80000000
7F80000000
7F80000000
7F80000000
7F00000000
7F00000000
FF00000000
FF003FE000
FF01FFFC00
FF07FFFF00
FE0FFFFF80
FE1FFFFFC0
FE7FFFFFE0
FEFF80FFF0
FEFE003FF8
FFF8000FF8
FFF00007FC
FFE00003FC
FFC00003FC
FF800001FE
FF000001FE
FF000001FE
FF000000FE
FF000000FE
FF000000FE
FF000000FE
7F000000FE
7F000000FE
7F800000FE
7F800000FE
3F800001FE
3FC00001FE
3FC00001FE
1FE00003FC
1FE00003FC
0FF00007F8
0FF8000FF8
07FC001FF0
03FF003FF0
01FFE1FFE0
01FFFFFFC0
007FFFFF80
003FFFFF00
001FFFFC00
0007FFF000
0000FF8000
ENDCHAR
STARTCHAR 0037
ENCODING 55
SWIDTH 493 0
DWIDTH 48 0
BBX 40 62 4 0
BITMAP
FFFFFFFFFF
FFFFFFFFFF
FFFFFFFFFF
FFFFFFFFFF
FFFFFFFFFF
FFFFFFFFFF
FFFFFFFFFE
00000001FC
00000003FC
00000007F8
00000007F0
0000000FE0
0000001FE0
0000001FC0
0000003FC0
0000003F80
0000007F00
000000FF00
000000FE00
000001FE00
000001FC00
000003FC00
000003F800
000007F800
000007F000
000007F000
00000FF000
00000FE000
00001FE000
00001FC000
00001FC000
00003FC000
00003F8000
00003F8000
00007F8000
00007F8000
00007F0000
00007F0000
0000FF0000
0000FF0000
0000FF0000
0000FE0000
0001FE0000
0001FE0000
0001FE0000
0001FE0000
0001FE0000
0001FE0000
0003FC0000
0003FC0000
0003FC0000
0003FC0000
0003FC0000
0003FC0000
0003FC0000
0003FC0000
0003FC0000
0003FC0000
0007FC0000
0007FC0000
0007FC0000
0007FC0000
ENDCHAR
STARTCHAR 0038
ENCODING 56
SWIDTH 493 0
DWIDTH 48 0
BBX 40 64 4 -1
BITMAP
0000FF8000
0007FFF800
001FFFFE00
007FFFFF00
00FFFFFF80
01FFFFFFC0
03FF80FFE0
07FE003FF0
07F8000FF0
0FF00007F8
0FF00007F8
0FE00003F8
1FE00003FC
1FE00001FC
1FC00001FC
1FC00001FC
1FC00001FC
1FE00001FC
1FE00001FC
1FE00001FC
0FF00001F8
0FF00003F8
07F80003F8
07FC0007F0
03FE0007F0
01FF800FE0
01FFE01FC0
00FFF81FC0
003FFE7F80
001FFFFF00
000FFFFE00
003FFFFC00
00FFFFFE00
01FE7FFF00
03FC0FFFC0
07F003FFE0
0FE000FFF0
1FE0003FF8
1FC0000FFC
3F800007FC
7F800003FE
7F000001FE
7F000001FF
FF000000FF
FE000000FF
FE0000007F
FE0000007F
FE0000007F
FE0000007F
FF000000FF
FF000000FF
7F000000FF
7F800001FF
7FC00001FE
3FE00003FE
3FF00007FC
1FFC001FF8
0FFF007FF8
07FFFFFFF0
03FFFFFFC0
00FFFFFF80
007FFFFE00
001FFFF800
0001FF8000
ENDCHAR
STARTCHAR 0039
ENCODING 57
SWIDTH 493 0
DWIDTH 48 0
BBX 40 64 4 -1
BITMAP
0003FE0000
001FFFC000
007FFFF000
00FFFFFC00
03FFFFFE00
07FFFFFF00
07FF8FFF80
0FFC01FFC0
1FF0007FC0
3FE0003FE0
3FC0001FF0
7FC0000FF0
7F800007F0
7F800007F8
7F000003F8
FF000003FC
FF000003FC
FF000001FC
FE000001FC
FE000001FE
FE000001FE
FE000001FE
FF000000FE
FF000000FE
FF000000FE
FF000001FE
7F800001FF
7F800003FF
7FC00007FF
3FC0000FFF
3FE0003FFF
1FF8007FFF
1FFE03FEFF
0FFFFFFCFE
07FFFFF8FE
03FFFFE0FE
00FFFFC0FE
007FFF00FE
0007F800FE
00000001FE
00000001FE
00000001FE
00000001FC
00000001FC
00000003FC
00000003FC
00000003F8
00000007F8
00000007F8
0000000FF0
0000000FF0
0000001FE0
0000003FE0
0400007FC0
0F0000FFC0
1F8001FF80
3FE007FF00
7FFFFFFE00
3FFFFFFC00
1FFFFFF800
0FFFFFF000
03FFFFC000
00FFFF0000
001FF80000
ENDCHAR
STARTCHAR 003A
ENCODING 58
SWIDTH 246 0
DWIDTH 24 0
BBX 12 47 6 -1
BITMAP
1F80
3FC0
7FE0
7FE0
7FF0
FFF0
FFF0
7FF0
7FE0
7FE0
3FC0
0F00
0000
0000
0000
0000
0000
0000
0000
0000
0000
0000
0000
0000
0000
0000
0000
0000
0000
0000
0000
0000
0000
0000
0000
1F80
3FC0
7FE0
7FE0
7FF0
FFF0
FFF0
7FF0
7FE0
7FE0
3FC0
0F00
ENDCHAR
STARTCHAR 003B
ENCODING 59
SWIDTH 246 0
DWIDTH 24 0
BBX 14 62 5 -16
BITMAP
0FC0
1FE0
3FF0
3FF0
3FF8
7FF8
7FF8
3FF8
3FF0
3FF0
1FE0
0780
0000
0000
0000
0000
0000
0000
0000
0000
0000
0000
0000
0000
0000
0000
0000
0000
0000
0000
0000
0000
0000
0000
0000
07C0
1FF0
3FF8
3FF8
3FFC
3FFC
3FFC
3FFC
3FFC
1FFC
07FC
00FC
00FC
00FC
00FC
01F8
01F8
03F0
03F0
07E0
1FE0
3FC0
FF80
FF00
FE00
7800
6000
ENDCHAR
STARTCHAR 003C
ENCODING 60
SWIDTH 493 0
DWIDTH 48 0
BBX 42 39 3 13
BITMAP
000000000040
0000000003C0
000000000FC0
000000007FC0
00000001FFC0
0000000FFFC0
0000007FFFC0
000001FFFF00
00000FFFFC00
00003FFFE000
0001FFFF0000
0007FFFC0000
003FFFE00000
00FFFF000000
07FFF8000000
3FFFE0000000
FFFF00000000
FFF800000000
FFE000000000
FF0000000000
FFC000000000
FFF800000000
FFFF00000000
3FFFE0000000
07FFF8000000
01FFFF000000
003FFFE00000
000FFFF80000
0001FFFF0000
00007FFFE000
00000FFFF800
000001FFFF00
0000007FFFC0
0000000FFFC0
00000003FFC0
000000007FC0
000000001FC0
0000000003C0
0000000000C0
ENDCHAR
STARTCHAR 003D
ENCODING 61
SWIDTH 493 0
DWIDTH 48 0
BBX 42 26 3 19
BITMAP
FFFFFFFFFFC0
FFFFFFFFFFC0
FFFFFFFFFFC0
FFFFFFFFFFC0
FFFFFFFFFFC0
FFFFFFFFFFC0
000000000000
000000000000
000000000000
000000000000
000000000000
000000000000
000000000000
000000000000
000000000000
000000000000
000000000000
000000000000
000000000000
000000000000
FFFFFFFFFFC0
FFFFFFFFFFC0
FFFFFFFFFFC0
FFFFFFFFFFC0
FFFFFFFFFFC0
FFFFFFFFFFC0
ENDCHAR
STARTCHAR 003E
ENCODING 62
SWIDTH 493 0
DWIDTH 48 0
BBX 42 39 3 13
BITMAP
C00000000000
F00000000000
FE0000000000
FF8000000000
FFF000000000
FFFC00000000
FFFF80000000
3FFFE0000000
07FFFC000000
01FFFF800000
003FFFE00000
0007FFFC0000
0001FFFF0000
00003FFFE000
000007FFF800
000001FFFF00
0000003FFFC0
00000007FFC0
00000000FFC0
000000003FC0
00000000FFC0
00000007FFC0
0000003FFFC0
000000FFFF00
000007FFFC00
00003FFFE000
0000FFFF0000
0007FFFC0000
003FFFE00000
00FFFF800000
07FFFC000000
3FFFF0000000
FFFF80000000
FFFE00000000
FFF000000000
FF8000000000
FE0000000000
F00000000000
C00000000000
ENDCHAR
STARTCHAR 003F
ENCODING 63
SWIDTH 421 0
DWIDTH 41 0
BBX 33 68 4 -1
BITMAP
0001C00000
003FFE0000
01FFFF8000
03FFFFE000
0FFFFFF000
1FFFFFF800
3FFFFFFC00
7FF01FFE00
FF8007FE00
7F0003FF00
3C0001FF00
180000FF00
000000FF00
000000FF80
0000007F80
0000007F80
0000007F80
0000007F80
0000007F00
000000FF00
000000FF00
000000FF00
000001FE00
000001FE00
000003FC00
000007FC00
00000FF800
00000FF000
00001FE000
00003FE000
00007FC000
0000FF8000
0000FF0000
0001FE0000
0003FE0000
0003FC0000
0007F80000
0007F80000
000FF00000
000FF00000
000FE00000
000FE00000
000FE00000
001FE00000
001FE00000
001FC00000
001FE00000
000FE00000
0000000000
0000000000
0000000000
0000000000
0000000000
0000000000
0000000000
0000000000
0007C00000
001FE00000
003FF00000
003FF80000
003FF80000
003FF80000
003FF80000
003FF80000
003FF80000
001FF00000
001FE00000
0007C00000
ENDCHAR
STARTCHAR 0040
ENCODING 64
SWIDTH 843 0
DWIDTH 82 0
BBX 72 78 5 -15
BITMAP
000000003FFE000000
00000003FFFFE00000
0000001FFFFFFC0000
000000FFFFFFFF0000
000003FFFFFFFFC000
00000FFFF81FFFF000
00001FFE00007FF800
00007FF000000FFC00
0000FFC0000003FE00
0001FF00000000FF00
0007FC000000007F80
000FF8000000003FC0
001FF0000000001FE0
001FC0000000000FE0
003F800000000007F0
007F000000000003F8
00FE000000000001F8
01FE000000000001FC
01FC000000000000FC
03F8000000000000FC
03F00000000000007E
07F000003F8000007E
07E00001FFE1F0007E
0FC00003FFF3F0003F
0FC0000FFFFBF0003F
1F80001FFFFFF0003F
1F80003FFFFFE0003F
3F80007FC07FE0003F
3F0000FF001FE0001F
3F0000FE001FE0001F
3F0001FC000FE0001F
7E0003F8000FC0001F
7E0003F8000FC0001F
7E0007F0000FC0001F
7E0007F0001FC0001F
7C0007E0001FC0001F
FC000FE0001F80001F
FC000FC0001F80003F
FC000FC0001F80003F
FC000FC0001F80003F
FC001FC0003F80003E
FC001FC0003F00007E
FC001FC0003F00007E
FC001FC0003F00007E
FC001FC0003F0000FC
FC001FC0007F0000FC
FC001FC0007F0001F8
FC000FC000FF0003F8
FC000FE001FF0003F0
FC000FE003FF0007E0
7E000FF007FF801FE0
7E0007FC1FDFC03FC0
7E0007FFFF9FFBFF80
7E0003FFFF0FFFFF00
7F0001FFFE0FFFFE00
3F0000FFF807FFF800
3F00003FE001FFE000
3F80000000007F8000
1F8000000000000000
1FC000000000000000
0FE000000000000000
0FE000000000000000
07F000000000000000
07F800000000000000
03FC00000000000000
01FE00000000000000
00FF00000000000000
00FF80000000000000
007FE0000000200000
003FF8000000E00000
000FFE000003F00000
0007FFC0001FF00000
0003FFFF07FFF00000
0000FFFFFFFFF00000
00003FFFFFFFC00000
00000FFFFFFF000000
000001FFFFF8000000
0000000FFF00000000
ENDCHAR
STARTCHAR 0041
ENCODING 65
SWIDTH 545 0
DWIDTH 53 0
BBX 52 64 0 0
BITMAP
000003FE000000
000007FF000000
000007FF000000
000007FF000000
00000FFF800000
00000FFF800000
00000FFF800000
00001FDFC00000
00001FDFC00000
00001F9FC00000
00003F8FE00000
00003F8FE00000
00003F0FE00000
00007F0FF00000
00007F07F00000
00007F07F00000
0000FE07F80000
0000FE03F80000
0000FE03F80000
0001FC03FC0000
0001FC03FC0000
0001FC01FC0000
0003FC01FE0000
0003F801FE0000
0003F800FE0000
0007F800FF0000
0007F000FF0000
0007F0007F0000
000FF0007F8000
000FE0007F8000
000FE0003F8000
001FE0003FC000
001FC0003FC000
001FC0003FC000
003FC0001FE000
003F80001FE000
003F80001FE000
007F80000FF000
007FFFFFFFF000
007FFFFFFFF000
00FFFFFFFFF800
00FFFFFFFFF800
00FFFFFFFFF800
01FFFFFFFFFC00
01FFFFFFFFFC00
01FC000003FC00
03FC000001FE00
03FC000001FE00
03F8000001FE00
07F8000001FF00
07F8000000FF00
0FF0000000FF00
0FF0000000FF80
0FF00000007F80
1FF00000007F80
1FE00000007FC0
1FE00000003FC0
3FE00000003FC0
3FC00000003FE0
3FC00000001FE0
7FC00000001FE0
7F800000001FF0
7F800000001FF0
FF800000000FF0
ENDCHAR
STARTCHAR 0042
ENCODING 66
SWIDTH 586 0
DWIDTH 57 0
BBX 44 64 9 0
BITMAP
FFFFFFC00000
FFFFFFFC0000
FFFFFFFF8000
FFFFFFFFC000
FFFFFFFFF000
FFFFFFFFF800
FF000FFFFC00
FF00003FFE00
FF00000FFE00
FF000003FF00
FF000001FF00
FF000001FF00
FF000000FF00
FF000000FF80
FF000000FF80
FF0000007F80
FF0000007F80
FF0000007F00
FF000000FF00
FF000000FF00
FF000000FF00
FF000001FF00
FF000001FE00
FF000003FE00
FF000007FC00
FF00001FF800
FF0001FFF000
FFFFFFFFE000
FFFFFFFF8000
FFFFFFFE0000
FFFFFFFFC000
FFFFFFFFF800
FFFFFFFFFC00
FF0001FFFF00
FF00000FFF80
FF000001FF80
FF000000FFC0
FF0000003FE0
FF0000003FE0
FF0000001FE0
FF0000000FF0
FF0000000FF0
FF0000000FF0
FF0000000FF0
FF0000000FF0
FF0000000FF0
FF0000000FF0
FF0000000FF0
FF0000000FF0
FF0000000FF0
FF0000001FF0
FF0000001FE0
FF0000003FE0
FF0000007FC0
FF000000FFC0
FF000003FF80
FF00000FFF80
FF0007FFFF00
FFFFFFFFFE00
FFFFFFFFF800
FFFFFFFFF000
FFFFFFFFC000
FFFFFFFE0000
FFFFFFC00000
ENDCHAR
STARTCHAR 0043
ENCODING 67
SWIDTH 576 0
DWIDTH 56 0
BBX 47 66 5 -1
BITMAP
000001FF8000
00001FFFF800
00007FFFFE00
0001FFFFFF80
0007FFFFFFC0
000FFFFFFFE0
001FFFFFFFF8
007FFF80FFFC
00FFF8001FF8
00FFE00007F0
01FFC00003F0
03FF000000E0
07FE00000040
07FC00000000
0FFC00000000
0FF800000000
1FF000000000
1FF000000000
3FE000000000
3FE000000000
3FC000000000
3FC000000000
7FC000000000
7F8000000000
7F8000000000
7F8000000000
7F8000000000
FF8000000000
FF8000000000
FF8000000000
FF0000000000
FF0000000000
FF0000000000
FF0000000000
FF0000000000
FF8000000000
FF8000000000
FF8000000000
FF8000000000
FF8000000000
7F8000000000
7F8000000000
7FC000000000
7FC000000000
7FC000000000
3FC000000000
3FE000000000
3FE000000000
1FF000000000
1FF000000000
0FF800000000
0FFC00000000
07FC00000030
07FE00000070
03FF000000F8
01FFC00001FC
01FFE00007FE
00FFF8001FFE
007FFF80FFFC
003FFFFFFFF8
001FFFFFFFF0
0007FFFFFFC0
0003FFFFFF80
0000FFFFFE00
00001FFFF800
000003FF8000
ENDCHAR
STARTCHAR 0044
ENCODING 68
SWIDTH 617 0
DWIDTH 60 0
BBX 46 64 9 0
BITMAP
FFFFFE000000
FFFFFFE00000
FFFFFFFC0000
FFFFFFFF0000
FFFFFFFFC000
FFFFFFFFE000
FFFFFFFFF000
FF0003FFF800
FF00007FFC00
FF00001FFE00
FF000007FF00
FF000003FF80
FF000001FF80
FF000000FFC0
FF0000007FC0
FF0000003FE0
FF0000003FE0
FF0000001FF0
FF0000001FF0
FF0000000FF0
FF0000000FF8
FF0000000FF8
FF0000000FF8
FF00000007F8
FF00000007F8
FF00000007FC
FF00000007FC
FF00000007FC
FF00000007FC
FF00000007FC
FF00000007FC
FF00000007FC
FF00000007FC
FF00000007FC
FF00000007FC
FF00000007FC
FF00000007FC
FF00000007FC
FF00000007F8
FF00000007F8
FF00000007F8
FF0000000FF8
FF0000000FF8
FF0000000FF0
FF0000001FF0
FF0000001FF0
FF0000001FF0
FF0000003FE0
FF0000007FE0
FF0000007FC0
FF000000FFC0
FF000001FF80
FF000003FF80
FF000007FF00
FF00001FFE00
FF00007FFC00
FF0003FFF800
FFFFFFFFF000
FFFFFFFFE000
FFFFFFFF8000
FFFFFFFF0000
FFFFFFFC0000
FFFFFFE00000
FFFFFC000000
ENDCHAR
STARTCHAR 0045
ENCODING 69
SWIDTH 524 0
DWIDTH 51 0
BBX 37 64 9 0
BITMAP
FFFFFFFFF0
FFFFFFFFF0
FFFFFFFFF0
FFFFFFFFF0
FFFFFFFFF0
FFFFFFFFF0
FFFFFFFFF0
FF00000000
FF00000000
FF00000000
FF00000000
FF00000000
FF00000000
FF00000000
FF00000000
FF00000000
FF00000000
FF00000000
FF00000000
FF00000000
FF00000000
FF00000000
FF00000000
FF00000000
FF00000000
FF00000000
FF00000000
FFFFFFFF00
FFFFFFFF00
FFFFFFFF00
FFFFFFFF00
FFFFFFFF00
FFFFFFFF00
FFFFFFFF00
FF00000000
FF00000000
FF00000000
FF00000000
FF00000000
FF00000000
FF00000000
FF00000000
FF00000000
FF00000000
FF00000000
FF00000000
FF00000000
FF00000000
FF00000000
FF00000000
FF00000000
FF00000000
FF00000000
FF00000000
FF00000000
FF00000000
FF00000000
FFFFFFFFF8
FFFFFFFFF8
FFFFFFFFF8
FFFFFFFFF8
FFFFFFFFF8
FFFFFFFFF8
FFFFFFFFF8
ENDCHAR
STARTCHAR 0046
ENCODING 70
SWIDTH 493 0
DWIDTH 48 0
BBX 36 64 9 0
BITMAP
FFFFFFFFF0
FFFFFFFFF0
FFFFFFFFF0
FFFFFFFFF0
FFFFFFFFF0
FFFFFFFFF0
FFFFFFFFF0
FF00000000
FF00000000
FF00000000
FF00000000
FF00000000
FF00000000
FF00000000
FF00000000
FF00000000
FF00000000
FF00000000
FF00000000
FF00000000
FF00000000
FF00000000
FF00000000
FF00000000
FF00000000
FF00000000
FF00000000
FF00000000
FFFFFFFF00
FFFFFFFF00
FFFFFFFF00
FFFFFFFF00
FFFFFFFF00
FFFFFFFF00
FFFFFFFF00
FF00000000
FF00000000
FF00000000
FF00000000
FF00000000
FF00000000
FF00000000
FF00000000
FF00000000
FF00000000
FF00000000
FF00000000
FF00000000
FF00000000
FF00000000
FF00000000
FF00000000
FF00000000
FF00000000
FF00000000
FF00000000
FF00000000
FF00000000
FF00000000
FF00000000
FF00000000
FF00000000
FF00000000
FF00000000
ENDCHAR
STARTCHAR 0047
ENCODING 71
SWIDTH 617 0
DWIDTH 60 0
BBX 48 66 5 -1
BITMAP
000000FFE000
00000FFFFC00
00007FFFFF00
0001FFFFFFC0
0003FFFFFFF0
000FFFFFFFF8
001FFFFFFFFC
003FFF807FFE
007FFC0007FE
00FFF00001FC
01FFC00000F8
03FF80000078
03FF00000010
07FE00000000
0FFC00000000
0FF800000000
1FF000000000
1FF000000000
1FE000000000
3FE000000000
3FE000000000
3FC000000000
7FC000000000
7FC000000000
7F8000000000
7F8000000000
7F8000000000
FF8000000000
FF8000000000
FF8000000000
FF8000000000
FF0000000000
FF00000FFFFF
FF00000FFFFF
FF00000FFFFF
FF80000FFFFF
FF80000FFFFF
FF80000FFFFF
FF80000FFFFF
FF800000007F
7F800000007F
7F800000007F
7FC00000007F
7FC00000007F
7FC00000007F
3FC00000007F
3FE00000007F
3FE00000007F
1FF00000007F
1FF00000007F
0FF80000007F
0FFC0000007F
07FC0000007F
07FE0000007F
03FF8000007F
01FFC000007F
01FFE00001FF
00FFFC0007FF
007FFF803FFF
003FFFFFFFFF
000FFFFFFFFC
0007FFFFFFF8
0001FFFFFFE0
00007FFFFF80
00001FFFFE00
000001FFC000
ENDCHAR
STARTCHAR 0048
ENCODING 72
SWIDTH 648 0
DWIDTH 63 0
BBX 46 64 9 0
BITMAP
FF00000007FC
FF00000007FC
FF00000007FC
FF00000007FC
FF00000007FC
FF00000007FC
FF00000007FC
FF00000007FC
FF00000007FC
FF00000007FC
FF00000007FC
FF00000007FC
FF00000007FC
FF00000007FC
FF00000007FC
FF00000007FC
FF00000007FC
FF00000007FC
FF00000007FC
FF00000007FC
FF00000007FC
FF00000007FC
FF00000007FC
FF00000007FC
FF00000007FC
FF00000007FC
FF00000007FC
FFFFFFFFFFFC
FFFFFFFFFFFC
FFFFFFFFFFFC
FFFFFFFFFFFC
FFFFFFFFFFFC
FFFFFFFFFFFC
FFFFFFFFFFFC
FF00000007FC
FF00000007FC
FF00000007FC
FF00000007FC
FF00000007FC
FF00000007FC
FF00000007FC
FF00000007FC
FF00000007FC
FF00000007FC
FF00000007FC
FF00000007FC
FF00000007FC
FF00000007FC
FF00000007FC
FF00000007FC
FF00000007FC
FF00000007FC
FF00000007FC
FF00000007FC
FF00000007FC
FF00000007FC
FF00000007FC
FF00000007FC
FF00000007FC
FF00000007FC
FF00000007FC
FF00000007FC
FF00000007FC
FF00000007FC
ENDCHAR
STARTCHAR 0049
ENCODING 73
SWIDTH 267 0
DWIDTH 26 0
BBX 8 64 9 0
BITMAP
FF
FF
FF
FF
FF
FF
FF
FF
FF
FF
FF
FF
FF
FF
FF
FF
FF
FF
FF
FF
FF
FF
FF
FF
FF
FF
FF
FF
FF
FF
FF
FF
FF
FF
FF
FF
FF
FF
FF
FF
FF
FF
FF
FF
FF
FF
FF
FF
FF
FF
FF
FF
FF
FF
FF
FF
FF
FF
FF
FF
FF
FF
FF
FF
ENDCHAR
STARTCHAR 004A
ENCODING 74
SWIDTH 483 0
DWIDTH 47 0
BBX 35 65 3 -1
BITMAP
0000001FE0
0000001FE0
0000001FE0
0000001FE0
0000001FE0
0000001FE0
0000001FE0
0000001FE0
0000001FE0
0000001FE0
0000001FE0
0000001FE0
0000001FE0
0000001FE0
0000001FE0
0000001FE0
0000001FE0
0000001FE0
0000001FE0
0000001FE0
0000001FE0
0000001FE0
0000001FE0
0000001FE0
0000001FE0
0000001FE0
0000001FE0
0000001FE0
0000001FE0
0000001FE0
0000001FE0
0000001FE0
0000001FE0
0000001FE0
0000001FE0
0000001FE0
0000001FE0
0000001FE0
0000001FE0
0000001FE0
0000001FE0
0000001FE0
0000001FE0
0000001FE0
0000001FE0
0000001FE0
0000001FE0
0000001FE0
0000001FE0
0000001FE0
0000003FE0
0400003FE0
1E00003FC0
3F00007FC0
FF80007FC0
FFC000FF80
7FE001FF80
3FFC0FFF00
1FFFFFFF00
1FFFFFFE00
0FFFFFFC00
03FFFFF800
01FFFFE000
007FFF8000
0007FC0000
ENDCHAR
STARTCHAR 004B
ENCODING 75
SWIDTH 576 0
DWIDTH 56 0
BBX 47 64 9 0
BITMAP
FF0000003FE0
FF0000007FE0
FF0000007FC0
FF000000FF80
FF000001FF00
FF000003FE00
FF000007FC00
FF00000FFC00
FF00000FF800
FF00001FF000
FF00003FE000
FF00007FC000
FF0000FFC000
FF0001FF8000
FF0001FF0000
FF0003FE0000
FF0007FC0000
FF000FF80000
FF001FF80000
FF001FF00000
FF003FE00000
FF007FC00000
FF00FF800000
FF01FF800000
FF03FF000000
FF03FF000000
FF07FF800000
FF0FFFC00000
FF1FFFC00000
FF3FFFE00000
FF7FFFE00000
FF7FDFF00000
FFFF8FF80000
FFFF0FF80000
FFFF07FC0000
FFFE03FC0000
FFFC03FE0000
FFF801FE0000
FFF001FF0000
FFE000FF8000
FFE000FF8000
FFC0007FC000
FF80003FC000
FF00003FE000
FF00001FF000
FF00001FF000
FF00000FF800
FF00000FF800
FF000007FC00
FF000003FC00
FF000003FE00
FF000001FF00
FF000001FF00
FF000000FF80
FF000000FF80
FF0000007FC0
FF0000003FE0
FF0000003FE0
FF0000001FF0
FF0000001FF0
FF0000000FF8
FF0000000FF8
FF00000007FC
FF00000003FE
ENDCHAR
STARTCHAR 004C
ENCODING 76
SWIDTH 483 0
DWIDTH 47 0
BBX 36 64 9 0
BITMAP
FF00000000
FF00000000
FF00000000
FF00000000
FF00000000
FF00000000
FF00000000
FF00000000
FF00000000
FF00000000
FF00000000
FF00000000
FF00000000
FF00000000
FF00000000
FF00000000
FF00000000
FF00000000
FF00000000
FF00000000
FF00000000
FF00000000
FF00000000
FF00000000
FF00000000
FF00000000
FF00000000
FF00000000
FF00000000
FF00000000
FF00000000
FF00000000
FF00000000
FF00000000
FF00000000
FF00000000
FF00000000
FF00000000
FF00000000
FF00000000
FF00000000
FF00000000
FF00000000
FF00000000
FF00000000
FF00000000
FF00000000
FF00000000
FF00000000
FF00000000
FF00000000
FF00000000
FF00000000
FF00000000
FF00000000
FF00000000
FF00000000
FFFFFFFFF0
FFFFFFFFF0
FFFFFFFFF0
FFFFFFFFF0
FFFFFFFFF0
FFFFFFFFF0
FFFFFFFFF0
ENDCHAR
STARTCHAR 004D
ENCODING 77
SWIDTH 730 0
DWIDTH 71 0
BBX 53 64 9 0
BITMAP
FFC00000001FF8
FFC00000001FF8
FFC00000003FF8
FFE00000003FF8
FFE00000003FF8
FFE00000007FF8
FFF00000007FF8
FFF0000000FFF8
FFF8000000FFF8
FFF8000000FFF8
FDF8000001FFF8
FDFC000001FBF8
FDFC000001FBF8
FCFC000003FBF8
FCFE000003F3F8
FCFE000003F3F8
FE7E000007F3F8
FE7F000007E3F8
FE7F000007E3F8
FE3F00000FE3F8
FE3F80000FC3F8
FE3F80000FC3F8
FE1F80001FC3F8
FE1FC0001F83F8
FE1FC0001F87F8
FE0FE0003F87F8
FE0FE0003F07F8
FE07E0007F07F8
FE07F0007F07F8
FE07F0007E07F8
FE03F000FE07F8
FE03F800FC07F8
FE03F800FC07F8
FE01F801FC07F8
FE01FC01F807F8
FE01FC01F807F8
FE00FC03F807F8
FE00FE03F007F8
FE007E03F007F8
FE007E07F007F8
FE007F07E007F8
FE003F07E007F8
FE003F0FC007F8
FE003F8FC007F8
FE001F8FC007F8
FE001F8F8007F8
FE001FDF8007F8
FE000FDF8007F8
FE000FFF0007F8
FE000FFF0007F8
FE0007FF0007F8
FE0007FE0007F8
FE0003FE0007F8
FE0003FE0007F8
FE0003FC0007F8
FE0001FC0007F8
FE0001F80007F8
FE0001F80007F8
FE0000000007F8
FE0000000007F8
FE0000000007F8
FE0000000007F8
FE0000000007F8
FE0000000007F8
ENDCHAR
STARTCHAR 004E
ENCODING 78
SWIDTH 648 0
DWIDTH 63 0
BBX 45 64 9 0
BITMAP
FF00000007F8
FF80000007F8
FFC0000007F8
FFC0000007F8
FFE0000007F8
FFE0000007F8
FFF0000007F8
FFF0000007F8
FFF8000007F8
FFFC000007F8
FDFC000007F8
FDFE000007F8
FEFE000007F8
FEFF000007F8
FE7F000007F8
FE7F800007F8
FE3FC00007F8
FE3FC00007F8
FE1FE00007F8
FE1FE00007F8
FE0FF00007F8
FE0FF00007F8
FE07F80007F8
FE03FC0007F8
FE03FC0007F8
FE01FE0007F8
FE01FE0007F8
FE00FF0007F8
FE00FF0007F8
FE007F8007F8
FE003FC007F8
FE003FC007F8
FE001FE007F8
FE001FE007F8
FE000FF007F8
FE000FF007F8
FE0007F803F8
FE0003FC03F8
FE0003FC03F8
FE0001FE03F8
FE0001FE03F8
FE0000FF03F8
FE0000FF03F8
FE00007F83F8
FE00003F83F8
FE00003FC3F8
FE00001FC3F8
FE00001FE3F8
FE00000FE3F8
FE00000FF3F8
FE000007F3F8
FE000003FBF8
FE000003FFF8
FE000001FFF8
FE000001FFF8
FE000000FFF8
FE000000FFF8
FE0000007FF8
FE0000003FF8
FE0000003FF8
FE0000001FF8
FE0000001FF8
FE0000000FF8
FE0000000FF8
ENDCHAR
STARTCHAR 004F
ENCODING 79
SWIDTH 668 0
DWIDTH 65 0
BBX 55 66 5 -1
BITMAP
000003FF800000
00003FFFF00000
0000FFFFFE0000
0003FFFFFF8000
000FFFFFFFC000
001FFFFFFFF000
003FFFFFFFF800
007FFF01FFFC00
00FFF0003FFE00
01FFC0000FFF00
03FF800003FF00
03FF000001FF80
07FE000000FFC0
0FFC0000007FC0
0FF80000007FE0
1FF80000003FE0
1FF00000001FF0
1FE00000001FF0
3FE00000000FF0
3FE00000000FF8
3FC00000000FF8
7FC000000007F8
7FC000000007FC
7F8000000007FC
7F8000000007FC
7F8000000003FC
FF8000000003FC
FF8000000003FC
FF8000000003FC
FF8000000003FE
FF0000000003FE
FF0000000003FE
FF0000000003FE
FF0000000003FE
FF0000000003FE
FF8000000003FE
FF8000000003FC
FF8000000003FC
FF8000000003FC
7F8000000003FC
7F8000000003FC
7F8000000007FC
7FC000000007FC
7FC000000007F8
7FC000000007F8
3FC00000000FF8
3FE00000000FF8
3FE00000001FF0
1FF00000001FF0
1FF00000003FE0
0FF80000003FE0
0FF80000007FE0
07FC000000FFC0
07FE000000FF80
03FF000001FF80
03FF800007FF00
01FFE0000FFE00
00FFF8003FFE00
007FFF01FFFC00
003FFFFFFFF800
001FFFFFFFE000
000FFFFFFFC000
0003FFFFFF8000
0000FFFFFE0000
00003FFFF00000
000003FF000000
ENDCHAR
STARTCHAR 0050
ENCODING 80
SWIDTH 565 0
DWIDTH 55 0
BBX 42 64 9 0
BITMAP
FFFFFF800000
FFFFFFFC0000
FFFFFFFF0000
FFFFFFFFC000
FFFFFFFFF000
FFFFFFFFF800
FFFFFFFFFC00
FF00003FFE00
FF00000FFE00
FF000003FF00
FF000001FF00
FF000000FF80
FF000000FF80
FF0000007F80
FF0000007FC0
FF0000007FC0
FF0000003FC0
FF0000003FC0
FF0000003FC0
FF0000003FC0
FF0000003FC0
FF0000003FC0
FF0000007FC0
FF0000007F80
FF0000007F80
FF000000FF80
FF000000FF80
FF000001FF00
FF000003FF00
FF000007FE00
FF00001FFC00
FF0001FFFC00
FFFFFFFFF800
FFFFFFFFF000
FFFFFFFFC000
FFFFFFFF8000
FFFFFFFE0000
FFFFFFF00000
FFFFF0000000
FF0000000000
FF0000000000
FF0000000000
FF0000000000
FF0000000000
FF0000000000
FF0000000000
FF0000000000
FF0000000000
FF0000000000
FF0000000000
FF0000000000
FF0000000000
FF0000000000
FF0000000000
FF0000000000
FF0000000000
FF0000000000
FF0000000000
FF0000000000
FF0000000000
FF0000000000
FF0000000000
FF0000000000
FF0000000000
ENDCHAR
STARTCHAR 0051
ENCODING 81
SWIDTH 668 0
DWIDTH 65 0
BBX 56 81 5 -16
BITMAP
000003FF800000
00003FFFF00000
0000FFFFFE0000
0003FFFFFF8000
000FFFFFFFC000
001FFFFFFFF000
003FFFFFFFF800
007FFF01FFFC00
00FFF0003FFE00
01FFC0000FFF00
03FF800003FF00
03FF000001FF80
07FE000000FFC0
0FFC0000007FC0
0FF80000007FE0
0FF80000003FE0
1FF00000001FF0
1FF00000001FF0
3FE00000000FF0
3FE00000000FF8
3FC00000000FF8
7FC000000007F8
7FC000000007FC
7F8000000007FC
7F8000000007FC
7F8000000003FC
FF8000000003FC
FF8000000003FC
FF8000000003FC
FF8000000003FE
FF0000000003FE
FF0000000003FE
FF0000000003FE
FF0000000003FE
FF0000000003FE
FF8000000003FE
FF8000000003FC
FF8000000003FC
FF8000000003FC
FF8000000003FC
7F8000000003FC
7F8000000007FC
7F8000000007FC
7FC000000007F8
7FC000000007F8
3FC00000000FF8
3FE00000000FF8
3FE00000000FF0
1FE00000001FF0
1FF00000001FF0
1FF00000003FE0
0FF80000003FE0
0FFC0000007FC0
07FC000000FFC0
03FE000001FF80
03FF000003FF00
01FFC00007FF00
00FFE0000FFE00
007FF8003FFC00
003FFF87FFF800
001FFFFFFFF000
000FFFFFFFE000
0007FFFFFF8000
0001FFFFFE0000
00007FFFF80000
00000FFFC00000
000001FF000000
000000FF800000
000000FFC00000
0000007FE00000
0000003FF00000
0000003FF80000
0000001FFE0000
0000000FFFC000
00000007FFFFFE
00000003FFFFFE
00000000FFFFFE
000000007FFFFE
000000001FFFFF
0000000003FFFF
00000000007FF0
ENDCHAR
STARTCHAR 0052
ENCODING 82
SWIDTH 565 0
DWIDTH 55 0
BBX 44 64 9 0
BITMAP
FFFFFFE00000
FFFFFFFE0000
FFFFFFFF8000
FFFFFFFFE000
FFFFFFFFF000
FFFFFFFFFC00
FFFFFFFFFE00
FF00003FFE00
FF000007FF00
FF000003FF00
FF000000FF80
FF000000FF80
FF0000007F80
FF0000007FC0
FF0000003FC0
FF0000003FC0
FF0000003FC0
FF0000003FC0
FF0000003FC0
FF0000003FC0
FF0000003FC0
FF0000003FC0
FF0000007FC0
FF0000007F80
FF000000FF80
FF000000FF80
FF000001FF00
FF000003FF00
FF00000FFE00
FF00003FFC00
FFFFFFFFFC00
FFFFFFFFF800
FFFFFFFFE000
FFFFFFFFC000
FFFFFFFF0000
FFFFFFFC0000
FFFFFFF00000
FF000FF00000
FF000FF80000
FF0007FC0000
FF0007FC0000
FF0003FE0000
FF0003FE0000
FF0001FF0000
FF0000FF8000
FF0000FF8000
FF00007FC000
FF00007FC000
FF00003FE000
FF00003FE000
FF00001FF000
FF00000FF800
FF00000FF800
FF000007FC00
FF000007FC00
FF000003FE00
FF000003FF00
FF000001FF00
FF000000FF80
FF000000FF80
FF0000007FC0
FF0000007FC0
FF0000003FE0
FF0000003FF0
ENDCHAR
STARTCHAR 0053
ENCODING 83
SWIDTH 534 0
DWIDTH 52 0
BBX 44 66 4 -1
BITMAP
00003FF00000
0001FFFF0000
000FFFFFE000
001FFFFFF000
007FFFFFFC00
00FFFFFFFE00
01FFFFFFFF80
03FFF01FFFC0
03FF0001FFC0
07FE00007F80
07FC00003F00
0FF800000E00
0FF000000400
0FF000000000
1FF000000000
1FE000000000
1FE000000000
1FE000000000
1FF000000000
1FF000000000
0FF000000000
0FF800000000
0FFC00000000
07FE00000000
07FF80000000
03FFE0000000
03FFF8000000
01FFFE000000
00FFFF800000
007FFFF00000
001FFFFC0000
000FFFFF0000
0003FFFFC000
00007FFFF000
00001FFFFC00
000007FFFE00
000001FFFF00
0000003FFF80
0000000FFFC0
00000003FFC0
00000001FFE0
000000007FE0
000000003FE0
000000001FF0
000000001FF0
000000001FF0
000000000FF0
000000000FF0
000000000FF0
000000000FF0
000000000FF0
0C0000001FF0
0E0000001FE0
1F0000001FE0
3F8000003FE0
7FE000007FC0
FFF80000FFC0
7FFE0003FF80
3FFFE01FFF00
1FFFFFFFFF00
07FFFFFFFE00
03FFFFFFF800
00FFFFFFF000
003FFFFFC000
0007FFFF0000
00007FF00000
ENDCHAR
STARTCHAR 0054
ENCODING 84
SWIDTH 534 0
DWIDTH 52 0
BBX 46 64 3 0
BITMAP
FFFFFFFFFFFC
FFFFFFFFFFFC
FFFFFFFFFFFC
FFFFFFFFFFFC
FFFFFFFFFFFC
FFFFFFFFFFFC
FFFFFFFFFFFC
00001FE00000
00001FE00000
00001FE00000
00001FE00000
00001FE00000
00001FE00000
00001FE00000
00001FE00000
00001FE00000
00001FE00000
00001FE00000
00001FE00000
00001FE00000
00001FE00000
00001FE00000
00001FE00000
00001FE00000
00001FE00000
00001FE00000
00001FE00000
00001FE00000
00001FE00000
00001FE00000
00001FE00000
00001FE00000
00001FE00000
00001FE00000
00001FE00000
00001FE00000
00001FE00000
00001FE00000
00001FE00000
00001FE00000
00001FE00000
00001FE00000
00001FE00000
00001FE00000
00001FE00000
00001FE00000
00001FE00000
00001FE00000
00001FE00000
00001FE00000
00001FE00000
00001FE00000
00001FE00000
00001FE00000
00001FE00000
00001FE00000
00001FE00000
00001FE00000
00001FE00000
00001FE00000
00001FE00000
00001FE00000
00001FE00000
00001FE00000
ENDCHAR
STARTCHAR 0055
ENCODING 85
SWIDTH 648 0
DWIDTH 63 0
BBX 46 65 8 -1
BITMAP
FF80000003FC
FF80000003FC
FF80000003FC
FF80000003FC
FF80000003FC
FF80000003FC
FF80000003FC
FF80000003FC
FF80000003FC
FF80000003FC
FF80000003FC
FF80000003FC
FF80000003FC
FF80000003FC
FF80000003FC
FF80000003FC
FF80000003FC
FF80000003FC
FF80000003FC
FF80000003FC
FF80000003FC
FF80000003FC
FF80000003FC
FF80000003FC
FF80000003FC
FF80000003FC
FF80000003FC
FF80000003FC
FF80000003FC
FF80000003FC
FF80000003FC
FF80000003FC
FF80000003FC
FF80000003FC
FF80000003FC
FF80000003FC
FF80000003FC
FF80000003FC
FF80000003FC
FF80000003FC
7F80000003FC
7F80000003FC
7F80000003FC
7F80000003FC
7F80000003FC
7F80000003FC
7FC0000003FC
7FC0000007F8
3FC0000007F8
3FE0000007F8
3FE000000FF0
1FE000000FF0
1FF000001FF0
1FF800003FE0
0FFC00007FE0
0FFE0000FFC0
07FF8003FFC0
03FFF01FFF80
01FFFFFFFF00
00FFFFFFFE00
007FFFFFFC00
003FFFFFF800
000FFFFFE000
0003FFFF8000
00003FF80000
ENDCHAR
STARTCHAR 0056
ENCODING 86
SWIDTH 514 0
DWIDTH 50 0
BBX 50 64 0 0
BITMAP
FF800000003FC0
FF800000007FC0
7F800000007F80
7FC00000007F80
7FC0000000FF80
3FC0000000FF00
3FE0000000FF00
3FE0000000FF00
1FE0000001FE00
1FE0000001FE00
1FF0000001FE00
0FF0000003FC00
0FF0000003FC00
0FF8000003FC00
07F8000003F800
07F8000007F800
07FC000007F800
03FC000007F800
03FC00000FF000
03FC00000FF000
01FE00000FF000
01FE00001FE000
01FE00001FE000
01FF00001FE000
00FF00001FC000
00FF00003FC000
00FF00003FC000
007F80003F8000
007F80007F8000
007F80007F8000
003FC0007F0000
003FC0007F0000
003FC000FF0000
001FE000FE0000
001FE000FE0000
001FE001FE0000
000FF001FE0000
000FF001FC0000
000FF003FC0000
0007F003FC0000
0007F803F80000
0007F803F80000
0003F807F80000
0003FC07F00000
0003FC07F00000
0003FC07F00000
0001FC0FE00000
0001FE0FE00000
0001FE0FE00000
0000FE1FC00000
0000FF1FC00000
0000FF1FC00000
00007F1F800000
00007F3F800000
00007FBF800000
00003FBF800000
00003FFF000000
00003FFF000000
00001FFF000000
00001FFE000000
00001FFE000000
00000FFE000000
00000FFC000000
00000FFC000000
ENDCHAR
STARTCHAR 0057
ENCODING 87
SWIDTH 781 0
DWIDTH 76 0
BBX 72 64 2 0
BITMAP
FF8000007F000000FF
7F800000FF000000FF
7F800000FF800000FF
7F800000FF800000FE
7F800000FF800001FE
7FC00001FF800001FE
3FC00001FFC00001FE
3FC00001FFC00001FE
3FC00001FFC00001FC
3FC00003FFE00003FC
3FE00003FFE00003FC
1FE00003FFE00003FC
1FE00003F7E00003F8
1FE00007E7F00003F8
1FE00007E7F00003F8
1FF00007E7F00007F8
0FF00007E3F00007F8
0FF0000FE3F80007F0
0FF0000FC3F80007F0
0FF0000FC3F80007F0
07F8001FC3F8000FF0
07F8001FC1FC000FF0
07F8001F81FC000FE0
07F8001F81FC000FE0
07F8003F81FC000FE0
03FC003F80FE001FE0
03FC003F80FE001FE0
03FC003F00FE001FC0
03FC007F00FE001FC0
03FC007F00FF001FC0
01FC007F007F003FC0
01FE007E007F003FC0
01FE00FE007F003F80
01FE00FE007F803F80
00FE00FE003F803F80
00FE00FC003F807F80
00FF00FC003F807F80
00FF01FC003FC07F00
00FF01FC001FC07F00
007F01F8001FC07F00
007F01F8001FC07F00
007F83F8001FE0FE00
007F83F8000FE0FE00
007F83F0000FE0FE00
003F83F0000FE0FE00
003F83F0000FE0FE00
003F87F00007F0FC00
003FC7E00007F1FC00
003FC7E00007F1FC00
001FC7E00007F1FC00
001FCFE00003F9FC00
001FCFC00003F9F800
001FEFC00003F9F800
000FEFC00003FBF800
000FEFC00001FBF800
000FFF800001FFF800
000FFF800001FFF000
000FFF800001FFF000
0007FF800000FFF000
0007FF000000FFF000
0007FF000000FFF000
0007FF000000FFE000
0007FF0000007FE000
0003FE0000007FE000
ENDCHAR
STARTCHAR 0058
ENCODING 88
SWIDTH 514 0
DWIDTH 50 0
BBX 46 64 2 0
BITMAP
7FC000000FF8
3FC000000FF0
3FE000001FF0
1FF000001FE0
1FF000003FE0
0FF800003FC0
0FF800007FC0
07FC00007F80
07FC0000FF80
03FE0000FF00
01FE0001FE00
01FF0001FE00
00FF0003FC00
00FF8003FC00
007F8007F800
007FC007F800
003FC00FF000
003FE00FF000
001FF01FE000
000FF01FC000
000FF83FC000
0007F83F8000
0007FC7F8000
0003FC7F0000
0003FEFF0000
0001FEFE0000
0000FFFE0000
0000FFFC0000
00007FF80000
00007FF80000
00003FF00000
00003FF00000
00007FF80000
00007FF80000
0000FFFC0000
0001FFFC0000
0001FDFE0000
0003FDFE0000
0003F8FF0000
0007F8FF8000
0007F07F8000
000FF07FC000
000FE03FC000
001FE03FE000
003FC01FE000
003FC01FF000
007F800FF000
007F8007F800
00FF0007FC00
00FF0003FC00
01FE0003FE00
03FE0001FE00
03FC0001FF00
07FC0000FF00
07F80000FF80
0FF800007FC0
0FF000007FC0
1FE000003FE0
1FE000003FE0
3FC000001FF0
7FC000000FF0
7F8000000FF8
FF80000007FC
FF00000007FC
ENDCHAR
STARTCHAR 0059
ENCODING 89
SWIDTH 473 0
DWIDTH 46 0
BBX 46 64 0 0
BITMAP
FF80000003FC
7F80000007FC
7FC0000007F8
3FC000000FF8
3FE000000FF0
1FE000001FF0
1FF000001FE0
0FF000001FE0
0FF000003FC0
07F800003FC0
07F800007F80
07FC00007F80
03FC0000FF00
03FE0000FF00
01FE0001FE00
01FF0001FE00
00FF0003FC00
00FF8003FC00
007F8003F800
007FC007F800
003FC007F000
003FC00FF000
001FE00FE000
001FE01FE000
000FF01FC000
000FF03FC000
0007F83F8000
0007F83F8000
0003F87F0000
0003FC7F0000
0001FCFE0000
0001FEFE0000
0000FFFC0000
0000FFFC0000
00007FFC0000
00007FF80000
00003FF80000
00003FF00000
00001FF00000
00001FE00000
00001FE00000
00001FE00000
00001FE00000
00001FE00000
00001FE00000
00001FE00000
00001FE00000
00001FE00000
00001FE00000
00001FE00000
00001FE00000
00001FE00000
00001FE00000
00001FE00000
00001FE00000
00001FE00000
00001FE00000
00001FE00000
00001FE00000
00001FE00000
00001FE00000
00001FE00000
00001FE00000
00001FE00000
ENDCHAR
STARTCHAR 005A
ENCODING 90
SWIDTH 534 0
DWIDTH 52 0
BBX 44 64 4 0
BITMAP
1FFFFFFFFFF0
1FFFFFFFFFF0
1FFFFFFFFFF0
1FFFFFFFFFF0
1FFFFFFFFFF0
1FFFFFFFFFF0
1FFFFFFFFFE0
000000007FC0
000000007FC0
00000000FF80
00000000FF00
00000001FF00
00000003FE00
00000003FC00
00000007FC00
0000000FF800
0000000FF000
0000001FF000
0000003FE000
0000003FE000
0000007FC000
000000FF8000
000000FF8000
000001FF0000
000001FE0000
000003FE0000
000007FC0000
000007F80000
00000FF80000
00001FF00000
00001FE00000
00003FE00000
00007FC00000
00007FC00000
0000FF800000
0000FF000000
0001FF000000
0003FE000000
0003FC000000
0007FC000000
000FF8000000
000FF0000000
001FF0000000
003FE0000000
003FC0000000
007FC0000000
00FF80000000
00FF80000000
01FF00000000
01FE00000000
03FE00000000
07FC00000000
07F800000000
0FF800000000
1FF000000000
1FE000000000
3FE000000000
7FFFFFFFFFF0
7FFFFFFFFFF0
FFFFFFFFFFF0
FFFFFFFFFFF0
FFFFFFFFFFF0
FFFFFFFFFFF0
FFFFFFFFFFF0
ENDCHAR
STARTCHAR 005B
ENCODING 91
SWIDTH 298 0
DWIDTH 29 0
BBX 18 84 9 -15
BITMAP
FFFFC0
FFFFC0
FFFFC0
FFFFC0
FFFFC0
FC0000
FC0000
FC0000
FC0000
FC0000
FC0000
FC0000
FC0000
FC0000
FC0000
FC0000
FC0000
FC0000
FC0000
FC0000
FC0000
FC0000
FC0000
FC0000
FC0000
FC0000
FC0000
FC0000
FC0000
FC0000
FC0000
FC0000
FC0000
FC0000
FC0000
FC0000
FC0000
FC0000
FC0000
FC0000
FC0000
FC0000
FC0000
FC0000
FC0000
FC0000
FC0000
FC0000
FC0000
FC0000
FC0000
FC0000
FC0000
FC0000
FC0000
FC0000
FC0000
FC0000
FC0000
FC0000
FC0000
FC0000
FC0000
FC0000
FC0000
FC0000
FC0000
FC0000
FC0000
FC0000
FC0000
FC0000
FC0000
FC0000
FC0000
FC0000
FC0000
FC0000
FC0000
FFFFC0
FFFFC0
FFFFC0
FFFFC0
FFFFC0
ENDCHAR
STARTCHAR 005C
ENCODING 92
SWIDTH 349 0
DWIDTH 34 0
BBX 31 85 2 -16
BITMAP
F8000000
FC000000
FC000000
FC000000
7C000000
7E000000
7E000000
3E000000
3F000000
3F000000
1F000000
1F800000
1F800000
1F800000
0FC00000
0FC00000
0FC00000
07C00000
07E00000
07E00000
03E00000
03F00000
03F00000
01F00000
01F80000
01F80000
01F80000
00FC0000
00FC0000
00FC0000
007C0000
007E0000
007E0000
003E0000
003F0000
003F0000
001F0000
001F8000
001F8000
001F8000
000FC000
000FC000
000FC000
0007C000
0007E000
0007E000
0003E000
0003F000
0003F000
0001F000
0001F800
0001F800
0001F800
0000FC00
0000FC00
0000FC00
00007C00
00007E00
00007E00
00003E00
00003F00
00003F00
00001F00
00001F80
00001F80
00001F80
00000FC0
00000FC0
00000FC0
000007C0
000007E0
000007E0
000003E0
000003F0
000003F0
000001F0
000001F8
000001F8
000001F8
000000F8
000000FC
000000FC
0000007C
0000007E
0000007E
ENDCHAR
STARTCHAR 005D
ENCODING 93
SWIDTH 298 0
DWIDTH 29 0
BBX 17 84 3 -15
BITMAP
FFFF80
FFFF80
FFFF80
FFFF80
FFFF80
001F80
001F80
001F80
001F80
001F80
001F80
001F80
001F80
001F80
001F80
001F80
001F80
001F80
001F80
001F80
001F80
001F80
001F80
001F80
001F80
001F80
001F80
001F80
001F80
001F80
001F80
001F80
001F80
001F80
001F80
001F80
001F80
001F80
001F80
001F80
001F80
001F80
001F80
001F80
001F80
001F80
001F80
001F80
001F80
001F80
001F80
001F80
001F80
001F80
001F80
001F80
001F80
001F80
001F80
001F80
001F80
001F80
001F80
001F80
001F80
001F80
001F80
001F80
001F80
001F80
001F80
001F80
001F80
001F80
001F80
001F80
001F80
001F80
001F80
FFFF80
FFFF80
FFFF80
FFFF80
FFFF80
ENDCHAR
STARTCHAR 005E
ENCODING 94
SWIDTH 493 0
DWIDTH 48 0
BBX 36 38 6 27
BITMAP
0003FC0000
0003FC0000
0003FE0000
0007FE0000
0007FE0000
000FFF0000
000FFF0000
000FFF8000
001FDF8000
001F9F8000
003F9FC000
003F0FC000
003F0FE000
007F07E000
007E07E000
00FE07F000
00FE03F000
00FC03F800
01FC03F800
01F801F800
01F801FC00
03F800FC00
03F000FE00
07F000FE00
07F0007E00
07E0007F00
0FE0007F00
0FE0003F80
1FC0003F80
1FC0003F80
1F80001FC0
3F80001FC0
3F80000FE0
7F00000FE0
7F00000FE0
7F000007F0
FE000007F0
FE000007F0
ENDCHAR
STARTCHAR 005F
ENCODING 95
SWIDTH 504 0
DWIDTH 49 0
BBX 46 5 1 -12
BITMAP
FFFFFFFFFFFC
FFFFFFFFFFFC
FFFFFFFFFFFC
FFFFFFFFFFFC
FFFFFFFFFFFC
ENDCHAR
STARTCHAR 0060
ENCODING 96
SWIDTH 545 0
DWIDTH 53 0
BBX 19 20 13 56
BITMAP
040000
1C0000
3E0000
7F0000
FF8000
FFC000
7FE000
3FE000
1FF000
0FF800
07FC00
03FE00
01FF00
00FF00
007F80
003FC0
001FE0
000FC0
000700
000200
ENDCHAR
STARTCHAR 0061
ENCODING 97
SWIDTH 504 0
DWIDTH 49 0
BBX 37 49 5 -1
BITMAP
0000FF8000
000FFFF000
007FFFFC00
01FFFFFF00
07FFFFFF80
1FFFFFFF80
3FFFFFFFC0
1FFC00FFE0
1FE0007FE0
0F80001FF0
0600001FF0
0000000FF0
0000000FF0
0000000FF8
00000007F8
00000007F8
00000007F8
00000007F8
0000000FF8
000007FFF8
0000FFFFF8
0007FFFFF8
003FFFFFF8
00FFFFFFF8
03FFFC07F8
07FFC007F8
0FFE0007F8
1FF80007F8
3FE00007F8
3FC00007F8
7F800007F8
7F800007F8
FF000007F8
FF000007F8
FF000007F8
FF000007F8
FF000007F8
FF00000FF8
FF80001FF8
FF80007FF8
7FC000FFF8
7FE003FFF8
3FFF7FFBF8
3FFFFFF3F8
1FFFFFC3F8
0FFFFF83F8
07FFFE03F8
01FFF803F8
003FC00000
ENDCHAR
STARTCHAR 0062
ENCODING 98
SWIDTH 555 0
DWIDTH 54 0
BBX 41 70 8 -1
BITMAP
FF0000000000
FF0000000000
FF0000000000
FF0000000000
FF0000000000
FF0000000000
FF0000000000
FF0000000000
FF0000000000
FF0000000000
FF0000000000
FF0000000000
FF0000000000
FF0000000000
FF0000000000
FF0000000000
FF0000000000
FF0000000000
FF0000000000
FF0000000000
FF0000000000
FF001FE00000
FF00FFFC0000
FF03FFFF0000
FF0FFFFFC000
FF3FFFFFE000
FF7FFFFFF000
FFFFFFFFF800
FFFF007FF800
FFFC001FFC00
FFF0000FFC00
FFE00007FE00
FFC00003FE00
FF800001FF00
FF000001FF00
FF000000FF00
FF000000FF80
FF000000FF80
FF000000FF80
FF0000007F80
FF0000007F80
FF0000007F80
FF0000007F80
FF0000007F80
FF0000007F80
FF0000007F80
FF0000007F80
FF0000007F80
FF0000007F80
FF0000007F80
FF0000007F80
FF000000FF80
FF000000FF00
FF000000FF00
FF000001FF00
FF000001FF00
FF000003FE00
FF000003FE00
FF000007FC00
FF80000FFC00
FFE0001FF800
FFF8003FF800
FFFE00FFF000
FFFFFFFFE000
FEFFFFFFC000
FE7FFFFF8000
FE1FFFFF0000
FE0FFFFC0000
FC03FFF00000
00007F800000
ENDCHAR
STARTCHAR 0063
ENCODING 99
SWIDTH 452 0
DWIDTH 44 0
BBX 38 49 4 -1
BITMAP
00003FF000
0001FFFE00
0007FFFF80
001FFFFFE0
003FFFFFF0
00FFFFFFF8
01FFFFFFF0
03FFE00FE0
03FF8003E0
07FE0001C0
0FFC000000
0FF8000000
1FF0000000
1FF0000000
3FE0000000
3FE0000000
3FC0000000
7FC0000000
7FC0000000
7F80000000
7F80000000
7F80000000
7F80000000
7F80000000
FF80000000
FF80000000
7F80000000
7F80000000
7F80000000
7F80000000
7F80000000
7FC0000000
7FC0000000
3FC0000000
3FE0000000
3FE0000000
1FF0000000
1FF8000000
0FFC000060
0FFE0000F0
07FF0001F0
03FFC00FF8
01FFFFFFFC
00FFFFFFF8
007FFFFFF0
003FFFFFE0
000FFFFF80
0003FFFE00
00003FE000
ENDCHAR
STARTCHAR 0064
ENCODING 100
SWIDTH 555 0
DWIDTH 54 0
BBX 41 70 5 -1
BITMAP
000000007F80
000000007F80
000000007F80
000000007F80
000000007F80
000000007F80
000000007F80
000000007F80
000000007F80
000000007F80
000000007F80
000000007F80
000000007F80
000000007F80
000000007F80
000000007F80
000000007F80
000000007F80
000000007F80
000000007F80
000000007F80
0000FF007F80
0007FFE07F80
001FFFF87F80
007FFFFE7F80
00FFFFFF7F80
01FFFFFFFF80
03FFFFFFFF80
07FF803FFF80
0FFE0007FF80
0FFC0003FF80
1FF80000FF80
1FF000007F80
3FE000007F80
3FE000007F80
7FC000007F80
7FC000007F80
7F8000007F80
FF8000007F80
FF8000007F80
FF0000007F80
FF0000007F80
FF0000007F80
FF0000007F80
FF0000007F80
FF0000007F80
FF0000007F80
FF0000007F80
FF0000007F80
FF0000007F80
FF0000007F80
FF0000007F80
FF8000007F80
FF8000007F80
7F8000007F80
7FC000007F80
7FC000007F80
7FE00000FF80
3FE00001FF80
3FF00003FF80
1FF80007FF80
1FFC001FFF80
0FFF007FFF80
07FFFFFFBF80
03FFFFFF3F80
01FFFFFE3F80
00FFFFF83F80
007FFFF03F80
001FFFC03F80
0003FE000000
ENDCHAR
STARTCHAR 0065
ENCODING 101
SWIDTH 493 0
DWIDTH 48 0
BBX 41 49 4 -1
BITMAP
00007FC00000
0003FFFC0000
000FFFFF0000
001FFFFF8000
007FFFFFC000
00FFFFFFE000
01FFF0FFF000
03FF801FF800
03FE0007F800
07FC0003FC00
0FF80001FC00
0FF00001FE00
1FE00000FE00
1FC00000FE00
3FC000007F00
3FC000007F00
3F8000007F00
7F8000007F00
7F8000007F00
7F0000007F00
7F0000003F80
7FFFFFFFFF80
7FFFFFFFFF80
7FFFFFFFFF80
FFFFFFFFFF00
FFFFFFFFFF00
7FFFFFFFFF00
7F0000000000
7F8000000000
7F8000000000
7F8000000000
7F8000000000
7FC000000000
3FC000000000
3FC000000000
3FE000000000
1FF000000000
1FF000000000
0FF800000000
07FE00001000
07FF00007800
03FFC001F800
01FFFE7FFC00
00FFFFFFFC00
007FFFFFFC00
001FFFFFF000
000FFFFFC000
0001FFFF0000
00003FF00000
ENDCHAR
STARTCHAR 0066
ENCODING 102
SWIDTH 288 0
DWIDTH 28 0
BBX 28 70 3 0
BITMAP
0000FF80
0007FFF0
000FFFF0
003FFFE0
003FFFE0
007FFFE0
00FFFFE0
00FF8000
01FF0000
01FF0000
01FE0000
01FE0000
01FE0000
03FC0000
03FC0000
03FC0000
03FC0000
03FC0000
03FC0000
03FC0000
03FC0000
03FC0000
03FC0000
FFFFFF00
FFFFFF00
FFFFFF00
FFFFFF00
FFFFFF00
FFFFFF00
FFFFFF00
03FC0000
03FC0000
03FC0000
03FC0000
03FC0000
03FC0000
03FC0000
03FC0000
03FC0000
03FC0000
03FC0000
03FC0000
03FC0000
03FC0000
03FC0000
03FC0000
03FC0000
03FC0000
03FC0000
03FC0000
03FC0000
03FC0000
03FC0000
03FC0000
03FC0000
03FC0000
03FC0000
03FC0000
03FC0000
03FC0000
03FC0000
03FC0000
03FC0000
03FC0000
03FC0000
03FC0000
03FC0000
03FC0000
03FC0000
03FC0000
ENDCHAR
STARTCHAR 0067
ENCODING 103
SWIDTH 504 0
DWIDTH 49 0
BBX 44 70 4 -22
BITMAP
0000FF800000
000FFFFFFFE0
003FFFFFFFE0
007FFFFFFFE0
01FFFFFFFFE0
03FFFFFFFFE0
03FF00FFFFE0
07FC003FC000
0FF8001FE000
0FF0000FE000
1FE0000FF000
1FE00007F000
1FE00007F800
3FC00003F800
3FC00003F800
3FC00003F800
3FC00003F800
3FC00003F800
3FC00003F800
3FC00003F800
1FC00007F800
1FE00007F800
1FE00007F000
0FF0000FF000
0FF8001FF000
07F8003FE000
07FE007FC000
03FF81FFC000
01FFFFFF8000
00FFFFFE0000
01FFFFFC0000
03FFFFF00000
07F1FFC00000
07E000000000
0FC000000000
0FC000000000
1FC000000000
1FC000000000
1FC000000000
1FC000000000
1FE000000000
0FF800000000
0FFFFFFC0000
0FFFFFFFF000
07FFFFFFFE00
03FFFFFFFF00
01FFFFFFFF80
03FFFFFFFFC0
07F3FFFFFFE0
0FC00001FFE0
1FC000003FF0
3F8000001FF0
3F0000000FF0
7F0000000FF0
7F0000000FF0
7E0000000FF0
FE0000000FF0
FF0000000FE0
FF0000001FE0
7F0000003FC0
7F8000007FC0
7FC00000FF80
3FF00003FF00
3FFC000FFE00
1FFFFFFFFC00
0FFFFFFFF800
07FFFFFFE000
01FFFFFF8000
003FFFFC0000
0003FFC00000
ENDCHAR
STARTCHAR 0068
ENCODING 104
SWIDTH 545 0
DWIDTH 53 0
BBX 38 69 8 0
BITMAP
FF00000000
FF00000000
FF00000000
FF00000000
FF00000000
FF00000000
FF00000000
FF00000000
FF00000000
FF00000000
FF00000000
FF00000000
FF00000000
FF00000000
FF00000000
FF00000000
FF00000000
FF00000000
FF00000000
FF00000000
FF00000000
FF001FF000
FF00FFFE00
FF03FFFF00
FF07FFFF80
FF1FFFFFC0
FF3FFFFFE0
FF7FFFFFF0
FFFF80FFF0
FFFE003FF0
FFF8001FF8
FFF0000FF8
FFE00007F8
FFC00007F8
FF800007FC
FF000007FC
FF000003FC
FF000003FC
FF000003FC
FF000003FC
FF000003FC
FF000003FC
FF000003FC
FF000003FC
FF000003FC
FF000003FC
FF000003FC
FF000003FC
FF000003FC
FF000003FC
FF000003FC
FF000003FC
FF000003FC
FF000003FC
FF000003FC
FF000003FC
FF000003FC
FF000003FC
FF000003FC
FF000003FC
FF000003FC
FF000003FC
FF000003FC
FF000003FC
FF000003FC
FF000003FC
FF000003FC
FF000003FC
FF000003FC
ENDCHAR
STARTCHAR 0069
ENCODING 105
SWIDTH 246 0
DWIDTH 24 0
BBX 11 67 7 0
BITMAP
1F00
7F80
FFC0
FFC0
FFE0
FFE0
FFC0
FFC0
7F80
3F00
0000
0000
0000
0000
0000
0000
0000
0000
0000
0000
7F80
7F80
7F80
7F80
7F80
7F80
7F80
7F80
7F80
7F80
7F80
7F80
7F80
7F80
7F80
7F80
7F80
7F80
7F80
7F80
7F80
7F80
7F80
7F80
7F80
7F80
7F80
7F80
7F80
7F80
7F80
7F80
7F80
7F80
7F80
7F80
7F80
7F80
7F80
7F80
7F80
7F80
7F80
7F80
7F80
7F80
7F80
ENDCHAR
STARTCHAR 006A
ENCODING 106
SWIDTH 246 0
DWIDTH 24 0
BBX 22 88 -4 -21
BITMAP
0003E0
000FF0
001FF8
001FF8
001FFC
001FFC
001FF8
001FF8
000FF0
0007E0
000000
000000
000000
000000
000000
000000
000000
000000
000000
000000
000FF0
000FF0
000FF0
000FF0
000FF0
000FF0
000FF0
000FF0
000FF0
000FF0
000FF0
000FF0
000FF0
000FF0
000FF0
000FF0
000FF0
000FF0
000FF0
000FF0
000FF0
000FF0
000FF0
000FF0
000FF0
000FF0
000FF0
000FF0
000FF0
000FF0
000FF0
000FF0
000FF0
000FF0
000FF0
000FF0
000FF0
000FF0
000FF0
000FF0
000FF0
000FF0
000FF0
000FF0
000FF0
000FF0
000FF0
000FF0
000FF0
000FF0
000FF0
000FF0
000FF0
000FF0
000FF0
000FF0
000FF0
000FF0
001FE0
001FE0
003FE0
3FFFC0
7FFFC0
7FFF80
7FFF00
FFFE00
FFFC00
1FE000
ENDCHAR
STARTCHAR 006B
ENCODING 107
SWIDTH 493 0
DWIDTH 48 0
BBX 39 69 8 0
BITMAP
FF00000000
FF00000000
FF00000000
FF00000000
FF00000000
FF00000000
FF00000000
FF00000000
FF00000000
FF00000000
FF00000000
FF00000000
FF00000000
FF00000000
FF00000000
FF00000000
FF00000000
FF00000000
FF00000000
FF00000000
FF00000000
FF00000000
FF00000FF8
FF00001FF0
FF00003FE0
FF00007FC0
FF00007F80
FF0000FF00
FF0001FF00
FF0003FE00
FF0007FC00
FF0007F800
FF000FF000
FF001FE000
FF003FE000
FF007FC000
FF00FF8000
FF00FF0000
FF01FE0000
FF03FC0000
FF07FC0000
FF0FFC0000
FF0FFC0000
FF1FFE0000
FF3FFF0000
FF7FFF0000
FFFFFF8000
FFFF7FC000
FFFE3FC000
FFFC1FE000
FFF81FE000
FFF00FF000
FFE00FF800
FFE007F800
FFC003FC00
FF8003FE00
FF0001FE00
FF0001FF00
FF0000FF80
FF00007F80
FF00007FC0
FF00003FC0
FF00001FE0
FF00001FF0
FF00000FF0
FF00000FF8
FF000007FC
FF000003FC
FF000003FE
ENDCHAR
STARTCHAR 006C
ENCODING 108
SWIDTH 257 0
DWIDTH 25 0
BBX 13 70 8 -1
BITMAP
FF00
FF00
FF00
FF00
FF00
FF00
FF00
FF00
FF00
FF00
FF00
FF00
FF00
FF00
FF00
FF00
FF00
FF00
FF00
FF00
FF00
FF00
FF00
FF00
FF00
FF00
FF00
FF00
FF00
FF00
FF00
FF00
FF00
FF00
FF00
FF00
FF00
FF00
FF00
FF00
FF00
FF00
FF00
FF00
FF00
FF00
FF00
FF00
FF00
FF00
FF00
FF00
FF00
FF00
FF00
FF00
FF00
FF00
FF00
FF00
FF00
FF00
FF80
FFF0
7FF0
7FF0
7FF8
3FF8
1FF8
07F0
ENDCHAR
STARTCHAR 006D
ENCODING 109
SWIDTH 833 0
DWIDTH 81 0
BBX 65 48 8 0
BITMAP
00001FE00001FE0000
FE00FFF80007FFC000
FE03FFFE001FFFF000
FE07FFFF007FFFF800
FE1FFFFF80FFFFFC00
FE3FFFFFC1FFFFFC00
FE7FFFFFC3FFFFFE00
FEFF81FFE7F80FFE00
FFFE007FEFE003FF00
FFF8003FFFC001FF00
FFF0001FFF0001FF00
FFE0001FFE0000FF80
FFC0000FFC0000FF80
FF80000FF800007F80
FF00000FF800007F80
FF00000FF800007F80
FF000007F800007F80
FF000007F800007F80
FF000007F800007F80
FF000007F800007F80
FF000007F800007F80
FF000007F800007F80
FF000007F800007F80
FF000007F800007F80
FF000007F800007F80
FF000007F800007F80
FF000007F800007F80
FF000007F800007F80
FF000007F800007F80
FF000007F800007F80
FF000007F800007F80
FF000007F800007F80
FF000007F800007F80
FF000007F800007F80
FF000007F800007F80
FF000007F800007F80
FF000007F800007F80
FF000007F800007F80
FF000007F800007F80
FF000007F800007F80
FF000007F800007F80
FF000007F800007F80
FF000007F800007F80
FF000007F800007F80
FF000007F800007F80
FF000007F800007F80
FF000007F800007F80
FF000007F800007F80
ENDCHAR
STARTCHAR 006E
ENCODING 110
SWIDTH 545 0
DWIDTH 53 0
BBX 38 48 8 0
BITMAP
00001FF000
FE00FFFE00
FE03FFFF00
FE07FFFF80
FE0FFFFFC0
FE3FFFFFE0
FE7FFFFFF0
FEFF80FFF0
FFFE003FF0
FFF8001FF8
FFF0000FF8
FFE00007F8
FFC00007F8
FF800007FC
FF000007FC
FF000003FC
FF000003FC
FF000003FC
FF000003FC
FF000003FC
FF000003FC
FF000003FC
FF000003FC
FF000003FC
FF000003FC
FF000003FC
FF000003FC
FF000003FC
FF000003FC
FF000003FC
FF000003FC
FF000003FC
FF000003FC
FF000003FC
FF000003FC
FF000003FC
FF000003FC
FF000003FC
FF000003FC
FF000003FC
FF000003FC
FF000003FC
FF000003FC
FF000003FC
FF000003FC
FF000003FC
FF000003FC
FF000003FC
ENDCHAR
STARTCHAR 006F
ENCODING 111
SWIDTH 545 0
DWIDTH 53 0
BBX 44 49 4 -1
BITMAP
00003FE00000
0003FFFC0000
000FFFFF8000
001FFFFFC000
007FFFFFF000
00FFFFFFF800
01FFFFFFFC00
03FFC01FFE00
07FF0007FE00
07FC0003FF00
0FF80001FF80
0FF80000FF80
1FF000007FC0
1FE000007FC0
3FE000003FE0
3FC000003FE0
3FC000001FE0
7FC000001FE0
7F8000001FF0
7F8000000FF0
7F8000000FF0
7F8000000FF0
7F8000000FF0
7F8000000FF0
FF8000000FF0
FF8000000FF0
7F8000000FF0
7F8000000FF0
7F8000000FF0
7F8000000FF0
7F8000001FF0
7FC000001FE0
7FC000001FE0
3FC000003FE0
3FE000003FE0
1FE000003FC0
1FF000007FC0
1FF80000FF80
0FF80001FF80
07FC0003FF00
07FF0007FE00
03FFC01FFE00
01FFFFFFFC00
00FFFFFFF800
007FFFFFE000
001FFFFFC000
000FFFFF0000
0003FFFC0000
00003FE00000
ENDCHAR
STARTCHAR 0070
ENCODING 112
SWIDTH 555 0
DWIDTH 54 0
BBX 41 68 8 -20
BITMAP
00001FE00000
FE00FFFC0000
FE03FFFF0000
FE0FFFFFC000
FE3FFFFFE000
FE7FFFFFF000
FEFFFFFFF800
FFFF007FF800
FFFC001FFC00
FFF8000FFC00
FFE00007FE00
FFC00003FE00
FF800001FF00
FF000001FF00
FF000000FF00
FF000000FF80
FF000000FF80
FF000000FF80
FF0000007F80
FF0000007F80
FF0000007F80
FF0000007F80
FF0000007F80
FF0000007F80
FF0000007F80
FF0000007F80
FF0000007F80
FF0000007F80
FF0000007F80
FF0000007F80
FF000000FF80
FF000000FF00
FF000000FF00
FF000001FF00
FF000001FF00
FF000003FE00
FF000003FE00
FF000007FC00
FF80000FFC00
FFE0001FF800
FFF8003FF800
FFFE00FFF000
FFFFFFFFE000
FFFFFFFFC000
FF7FFFFF8000
FF3FFFFF0000
FF0FFFFC0000
FF03FFF00000
FF007F800000
FF0000000000
FF0000000000
FF0000000000
FF0000000000
FF0000000000
FF0000000000
FF0000000000
FF0000000000
FF0000000000
FF0000000000
FF0000000000
FF0000000000
FF0000000000
FF0000000000
FF0000000000
FF0000000000
FF0000000000
FF0000000000
FF0000000000
ENDCHAR
STARTCHAR 0071
ENCODING 113
SWIDTH 555 0
DWIDTH 54 0
BBX 41 68 5 -20
BITMAP
0000FF800000
0007FFE03F80
001FFFF83F80
007FFFFE3F80
00FFFFFF3F80
01FFFFFFBF80
03FFFFFFFF80
07FF803FFF80
0FFE0007FF80
0FFC0003FF80
1FF80000FF80
1FF000007F80
3FE000007F80
3FE000007F80
7FC000007F80
7FC000007F80
7F8000007F80
FF8000007F80
FF8000007F80
FF0000007F80
FF0000007F80
FF0000007F80
FF0000007F80
FF0000007F80
FF0000007F80
FF0000007F80
FF0000007F80
FF0000007F80
FF0000007F80
FF0000007F80
FF0000007F80
FF8000007F80
FF8000007F80
7F8000007F80
7FC000007F80
7FC000007F80
7FE00000FF80
3FE00001FF80
3FF00003FF80
1FF80007FF80
1FFC001FFF80
0FFF007FFF80
07FFFFFFFF80
03FFFFFF7F80
01FFFFFE7F80
00FFFFFC7F80
007FFFF07F80
001FFFC07F80
0003FE007F80
000000007F80
000000007F80
000000007F80
000000007F80
000000007F80
000000007F80
000000007F80
000000007F80
000000007F80
000000007F80
000000007F80
000000007F80
000000007F80
000000007F80
000000007F80
000000007F80
000000007F80
000000007F80
000000007F80
ENDCHAR
STARTCHAR 0072
ENCODING 114
SWIDTH 349 0
DWIDTH 34 0
BBX 26 48 8 0
BITMAP
00003F80
FE01FFC0
FE03FFC0
FE0FFF80
FE1FFF80
FE3FFF80
FE3FFF80
FE7FC180
FEFE0000
FEFC0000
FFF80000
FFF00000
FFE00000
FFC00000
FFC00000
FF800000
FF800000
FF000000
FF000000
FF000000
FF000000
FF000000
FF000000
FF000000
FF000000
FF000000
FF000000
FF000000
FF000000
FF000000
FF000000
FF000000
FF000000
FF000000
FF000000
FF000000
FF000000
FF000000
FF000000
FF000000
FF000000
FF000000
FF000000
FF000000
FF000000
FF000000
FF000000
FF000000
ENDCHAR
STARTCHAR 0073
ENCODING 115
SWIDTH 421 0
DWIDTH 41 0
BBX 35 49 3 -1
BITMAP
0003FE0000
003FFFC000
00FFFFF800
01FFFFFC00
03FFFFFF00
07FFFFFF80
0FFF07FF00
0FF800FE00
1FF0003E00
1FE0000C00
3FC0000000
3FC0000000
3FC0000000
3FC0000000
3FC0000000
3FE0000000
1FE0000000
1FF8000000
1FFC000000
0FFF000000
07FFE00000
03FFFC0000
01FFFF0000
007FFFE000
001FFFF000
0007FFFC00
0000FFFE00
00003FFF00
000007FF80
000001FF80
000000FFC0
0000007FC0
0000003FC0
0000001FE0
0000001FE0
0000001FE0
0000001FE0
1000001FC0
1800003FC0
3E00003FC0
7F80007F80
FFE001FF80
FFFE0FFF00
7FFFFFFE00
3FFFFFFE00
0FFFFFF800
03FFFFF000
007FFFC000
000FFC0000
ENDCHAR
STARTCHAR 0074
ENCODING 116
SWIDTH 339 0
DWIDTH 33 0
BBX 29 61 2 -1
BITMAP
007E0000
007E0000
00FE0000
00FE0000
00FE0000
00FE0000
00FE0000
00FE0000
00FE0000
00FE0000
00FE0000
00FE0000
00FE0000
FFFFFFF0
FFFFFFF0
FFFFFFF0
FFFFFFF0
FFFFFFF0
FFFFFFF0
FFFFFFF0
01FE0000
01FE0000
01FE0000
01FE0000
01FE0000
01FE0000
01FE0000
01FE0000
01FE0000
01FE0000
01FE0000
01FE0000
01FE0000
01FE0000
01FE0000
01FE0000
01FE0000
01FE0000
01FE0000
01FE0000
01FE0000
01FE0000
01FE0000
01FE0000
01FE0000
01FE0000
01FE0000
01FF0000
01FF0000
00FF0000
00FF0000
00FF8000
00FF8000
007FE010
007FFFF0
003FFFF8
003FFFF8
001FFFF8
000FFFF8
0003FFF8
0000FF80
ENDCHAR
STARTCHAR 0075
ENCODING 117
SWIDTH 545 0
DWIDTH 53 0
BBX 38 48 7 -1
BITMAP
FF000003FC
FF000003FC
FF000003FC
FF000003FC
FF000003FC
FF000003FC
FF000003FC
FF000003FC
FF000003FC
FF000003FC
FF000003FC
FF000003FC
FF000003FC
FF000003FC
FF000003FC
FF000003FC
FF000003FC
FF000003FC
FF000003FC
FF000003FC
FF000003FC
FF000003FC
FF000003FC
FF000003FC
FF000003FC
FF000003FC
FF000003FC
FF000003FC
FF000003FC
FF000003FC
FF000003FC
FF800003FC
FF800003FC
FF800003FC
7F800007FC
7F80000FFC
7FC0001FFC
7FC0003FFC
7FE0007FFC
3FF001FDFC
3FFC07F9FC
1FFFFFF1FC
1FFFFFE1FC
0FFFFFC1FC
07FFFF81FC
03FFFF01FC
00FFFC01FC
003FE00000
ENDCHAR
STARTCHAR 0076
ENCODING 118
SWIDTH 462 0
DWIDTH 45 0
BBX 43 47 1 0
BITMAP
FF8000001FE0
7F8000001FE0
7F8000001FC0
7FC000003FC0
3FC000003FC0
3FC000007F80
1FE000007F80
1FE000007F80
1FE00000FF00
0FF00000FF00
0FF00000FE00
0FF00001FE00
07F80001FE00
07F80001FC00
07F80003FC00
03FC0003FC00
03FC0003F800
03FC0007F800
01FE0007F800
01FE0007F000
00FE000FF000
00FF000FF000
00FF000FE000
007F001FE000
007F801FC000
007F801FC000
003F803FC000
003FC03F8000
003FC03F8000
001FC03F8000
001FE07F0000
000FE07F0000
000FE07F0000
000FF0FE0000
0007F0FE0000
0007F0FE0000
0007F1FC0000
0003F9FC0000
0003F9FC0000
0003FBF80000
0001FFF80000
0001FFF00000
0000FFF00000
0000FFF00000
0000FFE00000
00007FE00000
00007FE00000
ENDCHAR
STARTCHAR 0077
ENCODING 119
SWIDTH 720 0
DWIDTH 70 0
BBX 65 47 2 0
BITMAP
FF800007F800003F80
7F800007F800007F80
7F800007FC00007F80
7F80000FFC00007F80
3FC0000FFC00007F00
3FC0000FFC0000FF00
3FC0001FFE0000FF00
3FC0001FFE0000FE00
1FE0001FFE0000FE00
1FE0001F7F0001FE00
1FE0003F3F0001FE00
0FE0003F3F0001FC00
0FF0003F3F0001FC00
0FF0003F3F8003FC00
0FF0007E1F8003FC00
07F0007E1F8003F800
07F8007E1F8003F800
07F800FE1FC007F800
07F800FC1FC007F000
03FC00FC0FC007F000
03FC00FC0FE007F000
03FC01FC0FE00FF000
01FC01F80FE00FE000
01FE01F807E00FE000
01FE01F807F00FE000
01FE03F007F01FE000
00FE03F003F01FC000
00FF03F003F01FC000
00FF03F003F81FC000
007F07E003F83FC000
007F07E001F83F8000
007F87E001FC3F8000
007F87E001FC3F8000
003F8FC001FC3F0000
003F8FC000FC7F0000
003F8FC000FE7F0000
001FCFC000FE7F0000
001FDF80007E7E0000
001FDF80007EFE0000
001FDF80007FFE0000
000FFF00007FFE0000
000FFF00003FFC0000
000FFF00003FFC0000
000FFF00003FFC0000
0007FE00003FFC0000
0007FE00001FF80000
0007FE00001FF80000
ENDCHAR
STARTCHAR 0078
ENCODING 120
SWIDTH 442 0
DWIDTH 43 0
BBX 40 47 2 0
BITMAP
7F800003FE
7FC00003FC
3FE00007F8
1FE00007F8
1FF0000FF0
0FF8000FF0
07F8001FE0
07FC003FC0
03FC003FC0
01FE007F80
01FF007F00
00FF00FF00
00FF80FE00
007F81FE00
003FC1FC00
003FE3F800
001FE3F800
000FF7F000
000FFFF000
0007FFE000
0003FFC000
0003FFC000
0001FF8000
0003FF8000
0003FF8000
0007FFC000
000FFFE000
000FFFE000
001FCFF000
003FCFF800
003F87F800
007F83FC00
00FF03FE00
00FF01FE00
01FE01FF00
01FC00FF80
03FC007F80
07F8007FC0
07F8003FC0
0FF0001FE0
1FF0001FF0
1FE0000FF0
3FC0000FF8
3FC00007FC
7F800003FC
FF800003FE
FF000001FF
ENDCHAR
STARTCHAR 0079
ENCODING 121
SWIDTH 462 0
DWIDTH 45 0
BBX 43 67 1 -20
BITMAP
FF8000001FE0
7F8000001FE0
7F8000001FC0
3FC000003FC0
3FC000003FC0
3FC000003F80
1FE000007F80
1FE000007F80
0FF000007F00
0FF00000FF00
0FF00000FF00
07F80000FE00
07F80001FE00
03F80001FC00
03FC0001FC00
03FC0003FC00
01FE0003F800
01FE0003F800
00FE0007F800
00FF0007F000
00FF0007F000
007F000FF000
007F800FE000
003F800FE000
003FC01FE000
003FC01FC000
001FC01FC000
001FE01FC000
000FE03F8000
000FE03F8000
000FF03F8000
0007F07F0000
0007F07F0000
0003F87E0000
0003F8FE0000
0003F8FE0000
0001FCFC0000
0001FCFC0000
0000FDFC0000
0000FFF80000
00007FF80000
00007FF80000
00007FF00000
00003FF00000
00003FF00000
00001FE00000
00001FE00000
00001FE00000
00001FC00000
00003FC00000
00003FC00000
00003F800000
00007F800000
00007F000000
0000FF000000
0000FE000000
0001FE000000
0003FC000000
0007FC000000
001FF8000000
0FFFF0000000
1FFFF0000000
1FFFE0000000
1FFFC0000000
1FFF00000000
3FFE00000000
0FF000000000
ENDCHAR
STARTCHAR 007A
ENCODING 122
SWIDTH 421 0
DWIDTH 41 0
BBX 36 47 3 0
BITMAP
1FFFFFFFE0
1FFFFFFFE0
1FFFFFFFE0
1FFFFFFFE0
1FFFFFFFE0
1FFFFFFFC0
1FFFFFFF80
000000FF80
000000FF00
000001FE00
000003FE00
000007FC00
000007F800
00000FF800
00001FF000
00001FE000
00003FE000
00007FC000
00007F8000
0000FF8000
0001FF0000
0001FE0000
0003FC0000
0007FC0000
0007F80000
000FF00000
001FF00000
003FE00000
003FC00000
007FC00000
00FF800000
00FF000000
01FF000000
03FE000000
03FC000000
07FC000000
0FF8000000
0FF0000000
1FE0000000
3FE0000000
3FC0000000
7FFFFFFFF0
FFFFFFFFF0
FFFFFFFFF0
FFFFFFFFF0
FFFFFFFFF0
FFFFFFFFF0
ENDCHAR
STARTCHAR 007B
ENCODING 123
SWIDTH 298 0
DWIDTH 29 0
BBX 24 84 3 -15
BITMAP
0001FF
000FFF
001FFF
003FFF
007FFF
007F80
007F00
00FE00
00FE00
00FE00
00FC00
00FC00
00FC00
00FC00
00FC00
00FC00
00FC00
00FC00
00FC00
00FE00
00FE00
00FE00
00FE00
00FE00
00FE00
00FE00
007E00
007E00
007E00
007E00
007E00
007E00
007E00
00FE00
00FE00
00FC00
01FC00
03FC00
0FF800
FFF000
FFE000
FF8000
FFE000
FFF000
1FF800
03FC00
01FC00
00FC00
00FE00
00FE00
007E00
007E00
007E00
007E00
007E00
007E00
007E00
00FE00
00FE00
00FE00
00FE00
00FE00
00FE00
00FE00
00FC00
00FC00
00FC00
00FC00
00FC00
00FC00
00FC00
00FC00
00FC00
00FE00
00FE00
00FE00
00FE00
007F00
007FC0
003FFF
003FFF
001FFF
0007FF
00007F
ENDCHAR
STARTCHAR 007C
ENCODING 124
SWIDTH 236 0
DWIDTH 23 0
BBX 6 97 9 -24
BITMAP
FC
FC
FC
FC
FC
FC
FC
FC
FC
FC
FC
FC
FC
FC
FC
FC
FC
FC
FC
FC
FC
FC
FC
FC
FC
FC
FC
FC
FC
FC
FC
FC
FC
FC
FC
FC
FC
FC
FC
FC
FC
FC
FC
FC
FC
FC
FC
FC
FC
FC
FC
FC
FC
FC
FC
FC
FC
FC
FC
FC
FC
FC
FC
FC
FC
FC
FC
FC
FC
FC
FC
FC
FC
FC
FC
FC
FC
FC
FC
FC
FC
FC
FC
FC
FC
FC
FC
FC
FC
FC
FC
FC
FC
FC
FC
FC
FC
ENDCHAR
STARTCHAR 007D
ENCODING 125
SWIDTH 298 0
DWIDTH 29 0
BBX 23 84 3 -15
BITMAP
FF8000
FFE000
FFF800
FFFC00
FFFC00
01FE00
00FE00
00FE00
007E00
007F00
007F00
007F00
007F00
007F00
007F00
007F00
007F00
007F00
007F00
007E00
007E00
007E00
007E00
007E00
007E00
007E00
007E00
007E00
007E00
007E00
007E00
007E00
007E00
007E00
007E00
007F00
007F00
003FC0
003FF0
001FFE
000FFE
0003FE
0007FE
001FFE
003FF0
003FC0
007F80
007F00
007E00
007E00
007E00
007E00
007E00
007E00
007E00
007E00
007E00
007E00
007E00
007E00
007E00
007E00
007E00
007E00
007F00
007F00
007F00
007F00
007F00
007F00
007F00
007F00
007F00
007F00
007E00
007E00
00FE00
01FE00
03FC00
FFFC00
FFF800
FFF000
FFE000
FC0000
ENDCHAR
STARTCHAR 007E
ENCODING 126
SWIDTH 493 0
DWIDTH 48 0
BBX 41 14 4 25
BITMAP
00FE00000000
03FF80000000
07FFE0000800
0FFFF0000C00
1FFFFC001E00
3FFFFE003F80
7F83FF807F00
FE00FFC1FF00
FC007FFFFE00
7C001FFFFC00
38000FFFF800
100007FFF000
000001FFC000
0000007F0000
ENDCHAR
STARTCHAR 00A0
ENCODING 160
SWIDTH 205 0
DWIDTH 20 0
BBX 0 0 0 0
BITMAP
ENDCHAR
STARTCHAR 00A1
ENCODING 161
SWIDTH 288 0
DWIDTH 28 0
BBX 12 66 8 -18
BITMAP
0F00
3FC0
7FE0
7FE0
FFF0
FFF0
FFF0
FFF0
7FE0
7FE0
3FC0
1F80
0000
0000
0000
0000
0000
0000
0000
0000
1F80
1F80
1F80
1F80
1F80
1F80
1F80
1F80
1F80
1F80
1F80
1F80
1F80
1F80
1F80
1F80
1F80
1F80
1F80
1F80
1F80
1F80
1F80
1F80
1FC0
1FC0
1FC0
3FC0
3FC0
3FC0
3FC0
3FC0
3FC0
3FC0
3FC0
3FC0
3FC0
3FC0
3FC0
3FC0
3FC0
3FC0
3FC0
3FC0
3FC0
3FC0
ENDCHAR
STARTCHAR 00A2
ENCODING 162
SWIDTH 493 0
DWIDTH 48 0
BBX 38 67 6 -3
BITMAP
00001F8000
00001F8000
00001F8000
00001F8000
00001F8000
00001F8000
00001F8000
00001F8000
00001F8000
00001F8000
00001FC000
0000FFFC00
0007FFFF00
001FFFFFC0
007FFFFFF0
00FFFFFFF8
01FFFFFFF8
03FFFF9FF0
07FF1F83E0
0FFE1F81E0
0FF81F8040
1FF01F8000
3FE01F8000
3FE01F8000
3FC01F8000
7FC01F8000
7F801F8000
7F801F8000
FF801F8000
FF001F8000
FF001F8000
FF001F8000
FF001F8000
FF001F8000
FF001F8000
FF001F8000
FF001F8000
FF001F8000
FF001F8000
FF801F8000
7F801F8000
7F801F8000
7FC01F8000
3FC01F8000
3FE01F8000
3FF01F8000
1FF81F8020
0FFC1F8070
0FFF1F81F0
07FFDF87F8
03FFFFFFFC
01FFFFFFF8
00FFFFFFF0
007FFFFFE0
001FFFFF80
0007FFFE00
00007FF000
00001F8000
00001F8000
00001F8000
00001F8000
00001F8000
00001F8000
00001F8000
00001F8000
00001F8000
00001F8000
ENDCHAR
STARTCHAR 00A3
ENCODING 163
SWIDTH 493 0
DWIDTH 48 0
BBX 39 63 5 0
BITMAP
00001FF000
0000FFFF00
0003FFFFC0
000FFFFFE0
001FFFFFF0
003FFFFFF8
007FFFFFFC
007FF007FE
00FFC001FC
00FF8000F8
01FF000070
01FE000020
03FE000000
03FC000000
03FC000000
03FC000000
03FC000000
03FC000000
03FC000000
03FC000000
03FC000000
03FC000000
03FC000000
01FC000000
01FE000000
01FE000000
01FE000000
00FE000000
00FF000000
00FF000000
FFFFFFFE00
FFFFFFFE00
FFFFFFFE00
FFFFFFFE00
FFFFFFFE00
003F800000
003F800000
003FC00000
003FC00000
003FC00000
001FC00000
001FC00000
001FC00000
003FC00000
003FC00000
003F800000
003F800000
007F800000
007F800000
007F000000
00FF000000
01FE000000
01FC000000
03FC000000
07F8000000
0FF0000000
1FFFFFFFFE
7FFFFFFFFE
FFFFFFFFFE
FFFFFFFFFE
FFFFFFFFFE
FFFFFFFFFE
FFFFFFFFFE
ENDCHAR
STARTCHAR 00A4
ENCODING 164
SWIDTH 493 0
DWIDTH 48 0
BBX 43 44 3 10
BITMAP
100000000200
380000000700
7C0000000F80
FE007F801FC0
FF03FFF03FC0
7F8FFFFC7F80
3FDFFFFFFF00
1FFFFFFFFF00
0FFFFFFFFE00
07FFC07FFC00
03FF001FF800
07FC000FF800
07F80007FC00
0FF00003FC00
0FF00001FE00
1FE00001FE00
1FE00000FE00
1FC00000FF00
1FC00000FF00
3FC00000FF00
3FC000007F00
3FC000007F00
3FC000007F00
3FC000007F00
3FC000007F00
1FC00000FF00
1FC00000FF00
1FE00000FE00
1FE00001FE00
0FF00001FE00
0FF00003FC00
07F80007FC00
07FC000FF800
07FF001FF800
07FFC07FFC00
0FFFFFFFFE00
1FFFFFFFFF00
3FDFFFFFFF80
7F8FFFFC7FC0
FF03FFF03FE0
FE007F801FC0
7C0000000F80
380000000700
100000000200
ENDCHAR
STARTCHAR 00A5
ENCODING 165
SWIDTH 493 0
DWIDTH 48 0
BBX 44 62 2 0
BITMAP
FF8000000FF0
7F8000001FE0
7FC000001FE0
3FC000003FC0
1FE000003FC0
1FE000007F80
0FF000007F80
0FF00000FF00
07F00000FF00
07F80000FE00
03F80001FE00
03FC0001FC00
01FC0003FC00
01FE0003F800
00FE0007F800
00FF0007F000
007F000FF000
007F800FE000
003F800FE000
003FC01FC000
001FC01FC000
001FC03F8000
000FE03F0000
000FE07F0000
0007F07E0000
0007F0FE0000
0003F8FC0000
0003F9FC0000
0001FDF80000
0001FFF80000
0000FFF00000
3FFFFFFFFFC0
3FFFFFFFFFC0
3FFFFFFFFFC0
3FFFFFFFFFC0
3FFFFFFFFFC0
00003FC00000
00003FC00000
00003FC00000
00003FC00000
00003FC00000
00003FC00000
3FFFFFFFFFC0
3FFFFFFFFFC0
3FFFFFFFFFC0
3FFFFFFFFFC0
3FFFFFFFFFC0
00003FC00000
00003FC00000
00003FC00000
00003FC00000
00003FC00000
00003FC00000
00003FC00000
00003FC00000
00003FC00000
00003FC00000
00003FC00000
00003FC00000
00003FC00000
00003FC00000
00003FC00000
ENDCHAR
STARTCHAR 00A6
ENCODING 166
SWIDTH 236 0
DWIDTH 23 0
BBX 6 97 9 -24
BITMAP
FC
FC
FC
FC
FC
FC
FC
FC
FC
FC
FC
FC
FC
FC
FC
FC
FC
FC
FC
FC
FC
FC
FC
FC
FC
FC
FC
FC
FC
FC
FC
FC
FC
FC
FC
FC
FC
FC
FC
FC
FC
FC
FC
FC
FC
00
00
00
00
00
00
00
FC
FC
FC
FC
FC
FC
FC
FC
FC
FC
FC
FC
FC
FC
FC
FC
FC
FC
FC
FC
FC
FC
FC
FC
FC
FC
FC
FC
FC
FC
FC
FC
FC
FC
FC
FC
FC
FC
FC
FC
FC
FC
FC
FC
FC
ENDCHAR
STARTCHAR 00A7
ENCODING 167
SWIDTH 493 0
DWIDTH 48 0
BBX 40 72 4 -6
BITMAP
0001FFC000
000FFFF800
001FFFFE00
007FFFFF80
007FFFFFC0
00FFFFFFE0
01FF80FFC0
01FE001FC0
03FC000780
03FC000300
03F8000000
03F8000000
03F8000000
03F8000000
03FC000000
03FC000000
03FE000000
01FF000000
01FFC00000
00FFF00000
00FFFC0000
01FFFF0000
03FFFFC000
0FFFFFF800
0FF3FFFC00
1FE0FFFF00
3FC01FFFC0
3F8007FFE0
7F0001FFF0
7F00007FF8
7F00001FFC
FE000007FC
FE000003FE
FE000001FE
FF000000FE
7F000000FF
7F8000007F
7F8000007F
7FC000007F
3FE000007F
1FF800007F
1FFE00007F
0FFF8000FE
07FFE000FE
03FFF801FE
00FFFF03FC
007FFFC7F8
001FFFFFF0
0007FFFFE0
0000FFFFC0
00003FFF80
00000FFF00
000003FF80
000000FF80
0000007FC0
0000003FC0
0000003FC0
0000001FE0
0000001FE0
0000001FE0
0000001FE0
0300001FC0
0780003FC0
0FC0003FC0
1FF0007F80
3FFE03FF80
1FFFFFFF00
0FFFFFFE00
03FFFFFC00
00FFFFF800
003FFFE000
0007FF0000
ENDCHAR
STARTCHAR 00A8
ENCODING 168
SWIDTH 545 0
DWIDTH 53 0
BBX 29 10 12 57
BITMAP
0C000180
3F0007E0
7F800FF0
FFC01FF0
FFC01FF8
FFC01FF8
FFC01FF0
7F801FF0
7F800FE0
1E0003C0
ENDCHAR
STARTCHAR 00A9
ENCODING 169
SWIDTH 740 0
DWIDTH 72 0
BBX 63 65 5 -1
BITMAP
0000003FF8000000
000007FFFF800000
00001FFFFFF00000
00007FFFFFFC0000
0001FFC00FFF0000
0007FC0000FF8000
000FF000003FE000
001FC000000FF000
007F00000003F800
007E00000001FC00
00FC000000007E00
01F8000000003F00
03F0000000001F80
07E0000000000F80
07C0000FF0000FC0
0F80007FFE0007C0
0F8001FFFF8003E0
1F0003FFFFC003E0
1F000FFFFFE001F0
3E001FFE3FF001F0
3E003FE007F000F8
7C003FC001E000F8
7C007F0000C000F8
7C00FF000000007C
7800FE000000007C
F800FC000000007C
F801FC000000007C
F801F8000000003C
F801F8000000003C
F003F8000000003C
F003F8000000003E
F003F8000000003E
F003F8000000003E
F003F8000000003E
F003F8000000003E
F003F8000000003C
F801F8000000003C
F801F8000000003C
F801FC000000003C
F801FC000000007C
7800FC000000007C
7C00FE000000007C
7C00FF0000000078
7C007F00006000F8
3E003FC001F000F8
3E003FE003F001F0
3F001FFE3FF801F0
1F000FFFFFF003E0
1F8007FFFFC003E0
0F8001FFFF8007C0
0FC0007FFE000FC0
07E0000FF0000F80
03F0000000001F00
01F8000000003F00
01FC000000007E00
00FE00000000FC00
007F00000003F800
003FC0000007F000
000FF000001FE000
0007FE0000FF8000
0001FFE00FFF0000
0000FFFFFFFC0000
00003FFFFFF00000
000007FFFF800000
0000007FF8000000
ENDCHAR
STARTCHAR 00AA
ENCODING 170
SWIDTH 349 0
DWIDTH 34 0
BBX 25 33 4 37
BITMAP
003FC000
03FFF000
0FFFFC00
3FFFFC00
7FFFFE00
3F80FF00
3C007F00
10003F00
00003F80
00001F80
00001F80
00001F80
0000FF80
003FFF80
01FFFF80
07FFFF80
1FFE1F80
3FE01F80
7F801F80
7E001F80
FC001F80
FC001F80
FC001F80
FC001F80
FC001F80
FC007F80
FE00FF80
FF03FF80
7FFFFF80
3FFFCF80
3FFF0F80
0FFE0F80
01E00000
ENDCHAR
STARTCHAR 00AB
ENCODING 171
SWIDTH 432 0
DWIDTH 42 0
BBX 32 36 4 6
BITMAP
0004000C
000F001E
001F801F
003F803F
003F007E
007E00FC
00FC01FC
01F803F8
03F807F0
07F00FE0
0FE00FE0
1FC01FC0
3FC03F80
3F807F00
7F00FF00
FE00FE00
FE00FC00
FC00F800
FC00F800
FE00FC00
FF00FE00
7F00FF00
3F807F00
1FC03F80
1FE01FC0
0FE00FE0
07F007E0
03F807F0
01FC03F8
00FC01FC
007E00FC
003F007E
001F803F
001F801F
000F000E
00040004
ENDCHAR
STARTCHAR 00AC
ENCODING 172
SWIDTH 493 0
DWIDTH 48 0
BBX 42 25 3 10
BITMAP
FFFFFFFFFFC0
FFFFFFFFFFC0
FFFFFFFFFFC0
FFFFFFFFFFC0
FFFFFFFFFFC0
FFFFFFFFFFC0
000000000FC0
000000000FC0
000000000FC0
000000000FC0
000000000FC0
000000000FC0
000000000FC0
000000000FC0
000000000FC0
000000000FC0
000000000FC0
000000000FC0
000000000FC0
000000000FC0
000000000FC0
000000000FC0
000000000FC0
000000000FC0
000000000FC0
ENDCHAR
STARTCHAR 00AD
ENCODING 173
SWIDTH 308 0
DWIDTH 30 0
BBX 22 6 4 21
BITMAP
FFFFFC
FFFFFC
FFFFFC
FFFFFC
FFFFFC
FFFFFC
ENDCHAR
STARTCHAR 00AE
ENCODING 174
SWIDTH 421 0
DWIDTH 41 0
BBX 37 39 2 30
BITMAP
0003FE0000
001FFFC000
007FFFF000
00FFFFF800
01F800FE00
07E0003F00
07C0001F80
0F80000F80
1F000007C0
1E1FFC03E0
3C1FFF01E0
3C1FFF81F0
781E0FC0F0
781E03C0F0
781E03C0F0
781E03C078
F01E03C078
F01E03C078
F01E07C078
F01FFF8078
F01FFF0078
F01FFE0078
F01E0F0078
781E0F0070
781E0780F0
781E0780F0
7C1E03C0F0
3C1E03E1E0
3E1E01E1E0
1E000003C0
1F000007C0
0F80000F80
07C0001F00
03F0007E00
01FE03FC00
00FFFFF800
003FFFE000
000FFF8000
0000700000
ENDCHAR
STARTCHAR 00AF
ENCODING 175
SWIDTH 545 0
DWIDTH 53 0
BBX 26 6 13 58
BITMAP
FFFFFFC0
FFFFFFC0
FFFFFFC0
FFFFFFC0
FFFFFFC0
FFFFFFC0
ENDCHAR
STARTCHAR 00B0
ENCODING 176
SWIDTH 329 0
DWIDTH 32 0
BBX 24 24 4 42
BITMAP
01FF80
07FFE0
0FFFF0
1FFFF8
3F81FC
3F007E
7E003E
7C003F
FC001F
F8001F
F8001F
F8001F
F8001F
F8001F
F8001F
FC001F
7C003F
7E003E
3F007E
3FC1FC
1FFFF8
0FFFF0
07FFE0
01FF80
ENDCHAR
STARTCHAR 00B1
ENCODING 177
SWIDTH 493 0
DWIDTH 48 0
BBX 42 54 3 0
BITMAP
00003F000000
00003F000000
00003F000000
00003F000000
00003F000000
00003F000000
00003F000000
00003F000000
00003F000000
00003F000000
00003F000000
00003F000000
00003F000000
00003F000000
00003F000000
00003F000000
00003F000000
00003F000000
FFFFFFFFFFC0
FFFFFFFFFFC0
FFFFFFFFFFC0
FFFFFFFFFFC0
FFFFFFFFFFC0
FFFFFFFFFFC0
00003F000000
00003F000000
00003F000000
00003F000000
00003F000000
00003F000000
00003F000000
00003F000000
00003F000000
00003F000000
00003F000000
00003F000000
00003F000000
00003F000000
00003F000000
00003F000000
00003F000000
00003F000000
000000000000
000000000000
000000000000
000000000000
000000000000
000000000000
FFFFFFFFFFC0
FFFFFFFFFFC0
FFFFFFFFFFC0
FFFFFFFFFFC0
FFFFFFFFFFC0
FFFFFFFFFFC0
ENDCHAR
STARTCHAR 00B2
ENCODING 178
SWIDTH 370 0
DWIDTH 36 0
BBX 27 38 4 39
BITMAP
00FFC000
03FFF000
0FFFF800
1FFFFC00
3FFFFE00
7F81FF00
FE00FF00
FC007F80
78003F80
10003F80
00001F80
00001F80
00001F80
00001F80
00001F80
00001F80
00003F00
00003F00
00007E00
00007E00
0000FC00
0001FC00
0003F800
0007F000
000FE000
001FC000
003F8000
007F0000
00FF0000
01FE0000
03FC0000
07F80000
0FF00000
1FFFFFE0
7FFFFFE0
7FFFFFE0
7FFFFFE0
7FFFFFE0
ENDCHAR
STARTCHAR 00B3
ENCODING 179
SWIDTH 370 0
DWIDTH 36 0
BBX 28 41 3 37
BITMAP
001FC000
00FFF800
03FFFE00
07FFFF00
0FFFFF80
1FE0FF80
3F803FC0
1F001FC0
0E000FC0
00000FC0
00000FC0
00000FC0
00000FC0
00000FC0
00001FC0
00003F80
00007F00
0003FE00
003FFC00
003FF000
003FFC00
003FFF00
0001FF80
00003FC0
00000FE0
000007E0
000007F0
000003F0
000003F0
000003F0
080003F0
1C0007F0
3C0007F0
FF000FE0
7F801FE0
3FE07FC0
1FFFFF80
0FFFFF00
03FFFE00
01FFF800
003FC000
ENDCHAR
STARTCHAR 00B4
ENCODING 180
SWIDTH 545 0
DWIDTH 53 0
BBX 19 20 21 56
BITMAP
000400
000E00
001F00
001F80
003FC0
007FE0
00FFC0
01FF80
03FF00
03FE00
07FC00
0FF800
1FF000
3FE000
7FC000
7F8000
FF0000
7E0000
3C0000
180000
ENDCHAR
STARTCHAR 00B5
ENCODING 181
SWIDTH 565 0
DWIDTH 55 0
BBX 44 64 8 -17
BITMAP
FF000007F800
FF000007F800
FF000007F800
FF000007F800
FF000007F800
FF000007F800
FF000007F800
FF000007F800
FF000007F800
FF000007F800
FF000007F800
FF000007F800
FF000007F800
FF000007F800
FF000007F800
FF000007F800
FF000007F800
FF000007F800
FF000007F800
FF000007F800
FF000007F800
FF000007F800
FF000007F800
FF000007F800
FF000007F800
FF000007F800
FF000007F800
FF000007F800
FF000007F800
FF000007F800
FF000007F800
FF000007F800
FF000007F800
FF00000FF800
FF80000FF800
FF80001FF800
FF80003FF800
FFC0007FF800
FFC000FFF800
FFE001FBF800
FFF807FBFC00
FFFFFFF3FFE0
FFFFFFE1FFE0
FFFFFFC1FFE0
FEFFFF81FFF0
FE7FFF00FFF0
FE3FFC007FF0
FE0FF0001FC0
FE0000000000
FE0000000000
FF0000000000
FF0000000000
FF0000000000
FF0000000000
FF0000000000
FF0000000000
FF0000000000
FF0000000000
FF0000000000
FF0000000000
FF0000000000
FF0000000000
FF0000000000
FF0000000000
ENDCHAR
STARTCHAR 00B6
ENCODING 182
SWIDTH 555 0
DWIDTH 54 0
BBX 41 72 4 -8
BITMAP
00007FF07F80
0007FFF07F80
003FFFF07F80
00FFFFF07F80
01FFFFF07F80
03FFFFF07F80
07FFFFF07F80
0FFFFFF07F80
1FFFFFF07F80
1FFFFFF07F80
3FFFFFF07F80
3FFFFFF07F80
7FFFFFF07F80
7FFFFFF07F80
7FFFFFF07F80
FFFFFFF07F80
FFFFFFF07F80
FFFFFFF07F80
FFFFFFF07F80
FFFFFFF07F80
FFFFFFF07F80
FFFFFFF07F80
FFFFFFF07F80
FFFFFFF07F80
FFFFFFF07F80
FFFFFFF07F80
7FFFFFF07F80
7FFFFFF07F80
7FFFFFF07F80
3FFFFFF07F80
3FFFFFF07F80
3FFFFFF07F80
1FFFFFF07F80
0FFFFFF07F80
07FFFFF07F80
07FFFFF07F80
01FFFFF07F80
00FFFFF07F80
003FFFF07F80
000FFFF07F80
0003FFF07F80
00001FF07F80
000000007F80
000000007F80
000000007F80
000000007F80
000000007F80
000000007F80
000000007F80
000000007F80
000000007F80
000000007F80
000000007F80
000000007F80
000000007F80
000000007F80
000000007F80
000000007F80
000000007F80
000000007F80
000000007F80
000000007F80
000000007F80
000000007F80
000000007F80
000000007F80
000000007F80
000000007F80
000000007F80
000000007F80
000000007F80
000000007F80
ENDCHAR
STARTCHAR 00B7
ENCODING 183
SWIDTH 246 0
DWIDTH 24 0
BBX 12 12 6 25
BITMAP
1F80
3FC0
7FE0
7FE0
7FF0
FFF0
FFF0
7FF0
7FE0
7FE0
3FC0
0F00
ENDCHAR
STARTCHAR 00B8
ENCODING 184
SWIDTH 545 0
DWIDTH 53 0
BBX 17 22 18 -22
BITMAP
01F000
03E000
03E000
07E000
07C000
0FC000
0FC000
1FF800
1FFE00
01FE00
007F00
003F00
003F80
003F80
003F00
003F00
00FF00
07FE00
FFFC00
FFF000
FFC000
F80000
ENDCHAR
STARTCHAR 00B9
ENCODING 185
SWIDTH 370 0
DWIDTH 36 0
BBX 15 38 8 38
BITMAP
007E
00FE
03FE
3FFE
FFFE
FFFE
FFFE
FFFE
007E
007E
007E
007E
007E
007E
007E
007E
007E
007E
007E
007E
007E
007E
007E
007E
007E
007E
007E
007E
007E
007E
007E
007E
007E
007E
007E
007E
007E
007E
ENDCHAR
STARTCHAR 00BA
ENCODING 186
SWIDTH 360 0
DWIDTH 35 0
BBX 29 33 3 37
BITMAP
001FE000
00FFF800
03FFFE00
07FFFF00
0FFFFF80
1FF03FC0
1FC01FE0
3F800FE0
3F0007F0
7F0003F0
7E0003F8
7E0001F8
FC0001F8
FC0001F8
FC0001F8
FC0001F8
FC0001F8
FC0001F8
FC0001F8
FC0001F8
FE0001F8
FE0001F8
7E0003F8
7F0003F0
3F0007F0
3F800FE0
1FC01FE0
1FF03FC0
0FFFFF80
07FFFF00
03FFFE00
00FFF800
001FC000
ENDCHAR
STARTCHAR 00BB
ENCODING 187
SWIDTH 432 0
DWIDTH 42 0
BBX 32 36 5 6
BITMAP
10003000
38007000
7C00F800
7E00FC00
3F007E00
3F803F00
1FC03F80
0FC01FC0
07E00FE0
07F007F0
03F807F0
01FC03F8
00FE01FC
00FF00FE
007F80FF
003F807F
001F803F
001F801F
001F801F
001F803F
003F807F
007F00FF
00FF00FE
00FE01FC
01FC03F8
03F807F0
07F007E0
07E00FE0
0FC01FC0
1F803F80
3F803F00
3F007E00
7E00FC00
FC00F800
38007000
10002000
ENDCHAR
STARTCHAR 00BC
ENCODING 188
SWIDTH 781 0
DWIDTH 76 0
BBX 67 66 6 -1
BITMAP
000000000003F00000
007E00000003E00000
01FE00000007E00000
07FE00000007C00000
3FFE0000000FC00000
FFFE0000000F800000
FFFE0000001F800000
FFFE0000001F000000
FFFE0000003F000000
00FE0000003E000000
00FE0000007C000000
00FE000000FC000000
00FE000000F8000000
00FE000001F8000000
00FE000001F0000000
00FE000003F0000000
00FE000003E0000000
00FE000007E0000000
00FE000007C0000000
00FE00000FC0000000
00FE00000F80000000
00FE00001F80000000
00FE00001F00000000
00FE00003F00000000
00FE00003E00000000
00FE00007C00000000
00FE00007C00000000
00FE0000F80003F800
00FE0001F80007F800
00FE0001F00007F800
00FE0003F0000FF800
00FE0003E0001FF800
00FE0007E0001FF800
00FE0007C0003EF800
00FE000FC0007EF800
00FE000F80007CF800
00FE001F8000F8F800
00FE001F0001F8F800
00FE003F0001F0F800
0000003E0003F0F800
0000007E0007E0F800
0000007C0007C0F800
000000F8000FC0F800
000001F8000F80F800
000001F0001F00F800
000003F0003F00F800
000003E0003E00F800
000007E0007E00F800
000007C000FC00F800
00000FC000F800F800
00000F8001F800F800
00001F8003FFFFFFE0
00001F0003FFFFFFE0
00003F0003FFFFFFE0
00003E0003FFFFFFE0
00007E00000000F800
00007C00000000F800
0000F800000000F800
0001F800000000F800
0001F000000000F800
0003F000000000F800
0003E000000000F800
0007E000000000F800
0007C000000000F800
000FC000000000F800
000F80000000000000
ENDCHAR
STARTCHAR 00BD
ENCODING 189
SWIDTH 812 0
DWIDTH 79 0
BBX 68 66 6 -1
BITMAP
00000000000FC00000
007E0000000F800000
01FE0000001F800000
07FE0000001F000000
3FFE0000003F000000
FFFE0000003E000000
FFFE0000007E000000
FFFE0000007C000000
FFFE000000FC000000
00FE000000F8000000
00FE000001F8000000
00FE000001F0000000
00FE000003E0000000
00FE000007E0000000
00FE000007C0000000
00FE00000FC0000000
00FE00000F80000000
00FE00001F80000000
00FE00001F00000000
00FE00003F00000000
00FE00003E00000000
00FE00007E00000000
00FE00007C00000000
00FE0000FC00000000
00FE0000F800000000
00FE0001F800000000
00FE0001F0007FC000
00FE0003E001FFF800
00FE0007E007FFFC00
00FE0007C00FFFFE00
00FE000FC01FFFFF00
00FE000F803FC1FF80
00FE001F807F007F80
00FE001F007E003F80
00FE003F003C001FC0
00FE003E0018001FC0
00FE007E0008000FC0
00FE007C0000000FC0
00FE00FC0000000FC0
000000F80000000FC0
000001F80000000FC0
000001F00000000FC0
000003E00000001F80
000003E00000001F80
000007C00000003F00
00000FC00000003F00
00000F800000007E00
00001F80000000FE00
00001F00000001FC00
00003F00000003F800
00003E00000003F000
00007E00000007F000
00007C0000000FE000
0000FC0000001FC000
0000F80000007F8000
0001F8000000FF0000
0001F0000001FE0000
0003F0000003FC0000
0003E0000007F80000
0007C000000FF00000
000FC000001FFFFFF0
000F8000003FFFFFF0
001F8000003FFFFFF0
001F0000003FFFFFF0
003F0000003FFFFFF0
003E00000000000000
ENDCHAR
STARTCHAR 00BE
ENCODING 190
SWIDTH 792 0
DWIDTH 77 0
BBX 70 66 4 -1
BITMAP
007F800000000FC000
01FFF00000000F8000
07FFFC0000001F0000
0FFFFE0000001F0000
1FFFFF0000003E0000
3FC1FF0000007E0000
7F007F8000007C0000
3E003F800000FC0000
1C001F800000F80000
00001F800001F80000
00001F800001F00000
00001F800003F00000
00001F800003E00000
00001F800007E00000
00003F000007C00000
00007F00000FC00000
0000FE00000F800000
0007FC00001F000000
007FF800001F000000
007FE000003E000000
007FF800007E000000
007FFE00007C000000
0003FF0000FC000000
00007F8000F8000000
00001FC001F8000000
00000FC001F0000000
00000FE003F0000000
000007E003E0007F80
000007E007E0007F80
000007E007C000FF80
30000FE00FC001FF80
78000FE00F8001FF80
FC001FC01F0003FF80
FF003FC01F0007FF80
7FC0FF803E0007DF80
3FFFFF007E000F9F80
1FFFFE007C000F9F80
0FFFFC00FC001F1F80
03FFF000F8003E1F80
007FC001F8003E1F80
00000001F0007C1F80
00000003F000FC1F80
00000003E000F81F80
00000007E001F01F80
00000007C003F01F80
0000000FC003E01F80
0000000F8007E01F80
0000001F000FC01F80
0000001F000F801F80
0000003E001F801F80
0000007E001F001F80
0000007C003FFFFFFC
000000FC003FFFFFFC
000000F8003FFFFFFC
000001F8003FFFFFFC
000001F00000001F80
000003F00000001F80
000003E00000001F80
000007E00000001F80
000007C00000001F80
00000FC00000001F80
00000F800000001F80
00001F000000001F80
00001F000000001F80
00003E000000001F80
00007E000000000000
ENDCHAR
STARTCHAR 00BF
ENCODING 191
SWIDTH 421 0
DWIDTH 41 0
BBX 32 67 5 -19
BITMAP
0001E000
0007F800
000FFC00
000FFC00
001FFE00
001FFE00
001FFE00
001FFE00
000FFC00
000FFC00
0007F800
0003F000
00000000
00000000
00000000
00000000
00000000
00000000
00000000
00000000
0003F800
0003F800
0003F800
0003F800
0003F800
0007F800
0007F800
0007F000
000FF000
000FF000
001FE000
001FE000
003FC000
007FC000
007F8000
00FF0000
01FF0000
03FE0000
07FC0000
07F80000
0FF00000
1FF00000
1FE00000
3FC00000
7FC00000
7F800000
7F000000
FF000000
FF000000
FF000000
FE000000
FE000000
FF000000
FF000000
FF000000
FF000018
FF80003C
7FC0007E
7FE000FF
3FF807FF
3FFFFFFE
1FFFFFFC
0FFFFFF8
07FFFFE0
03FFFFC0
00FFFF00
001FF000
ENDCHAR
STARTCHAR 00C0
ENCODING 192
SWIDTH 545 0
DWIDTH 53 0
BBX 52 84 0 1
BITMAP
00006000000000
0000F000000000
0001F800000000
0003FC00000000
0007FE00000000
0003FF00000000
0001FF80000000
00007FE0000000
00003FF0000000
00001FF8000000
000007FC000000
000003FE000000
000001FE000000
0000007C000000
00000038000000
00000010000000
00000000000000
00000000000000
00000000000000
00000000000000
000003FE000000
000007FF000000
000007FF000000
000007FF000000
00000FFF800000
00000FFF800000
00000FFF800000
00001FDFC00000
00001FDFC00000
00001F9FC00000
00003F8FE00000
00003F8FE00000
00003F0FE00000
00007F0FF00000
00007F07F00000
00007F07F00000
0000FE07F80000
0000FE03F80000
0000FE03F80000
0001FC03FC0000
0001FC03FC0000
0001FC01FC0000
0003FC01FE0000
0003F801FE0000
0003F800FE0000
0007F800FF0000
0007F000FF0000
0007F0007F0000
000FF0007F8000
000FE0007F8000
000FE0003F8000
001FE0003FC000
001FC0003FC000
001FC0003FC000
003FC0001FE000
003F80001FE000
003F80001FE000
007F80000FF000
007FFFFFFFF000
007FFFFFFFF000
00FFFFFFFFF800
00FFFFFFFFF800
00FFFFFFFFF800
01FFFFFFFFFC00
01FFFFFFFFFC00
01FC000003FC00
03FC000001FE00
03FC000001FE00
03F8000001FE00
07F8000001FF00
07F8000000FF00
0FF0000000FF00
0FF0000000FF80
0FF00000007F80
1FF00000007F80
1FE00000007FC0
1FE00000003FC0
3FE00000003FC0
3FC00000003FE0
3FC00000001FE0
7FC00000001FE0
7F800000001FF0
7F800000001FF0
FF800000000FF0
ENDCHAR
STARTCHAR 00C1
ENCODING 193
SWIDTH 545 0
DWIDTH 53 0
BBX 52 84 0 1
BITMAP
00000000300000
00000000780000
00000001F80000
00000003FC0000
00000007FE0000
0000000FFC0000
0000001FF80000
0000003FF00000
0000007FE00000
000000FF800000
000001FF000000
000007FE000000
000007F8000000
000003F0000000
000001E0000000
00000080000000
00000000000000
00000000000000
00000000000000
00000000000000
000003FE000000
000007FF000000
000007FF000000
000007FF000000
00000FFF800000
00000FFF800000
00000FFF800000
00001FDFC00000
00001FDFC00000
00001F9FC00000
00003F8FE00000
00003F8FE00000
00003F0FE00000
00007F0FF00000
00007F07F00000
00007F07F00000
0000FE07F80000
0000FE03F80000
0000FE03F80000
0001FC03FC0000
0001FC03FC0000
0001FC01FC0000
0003FC01FE0000
0003F801FE0000
0003F800FE0000
0007F800FF0000
0007F000FF0000
0007F0007F0000
000FF0007F8000
000FE0007F8000
000FE0003F8000
001FE0003FC000
001FC0003FC000
001FC0003FC000
003FC0001FE000
003F80001FE000
003F80001FE000
007F80000FF000
007FFFFFFFF000
007FFFFFFFF000
00FFFFFFFFF800
00FFFFFFFFF800
00FFFFFFFFF800
01FFFFFFFFFC00
01FFFFFFFFFC00
01FC000003FC00
03FC000001FE00
03FC000001FE00
03F8000001FE00
07F8000001FF00
07F8000000FF00
0FF0000000FF00
0FF0000000FF80
0FF00000007F80
1FF00000007F80
1FE00000007FC0
1FE00000003FC0
3FE00000003FC0
3FC00000003FE0
3FC00000001FE0
7FC00000001FE0
7F800000001FF0
7F800000001FF0
FF800000000FF0
ENDCHAR
STARTCHAR 00C2
ENCODING 194
SWIDTH 545 0
DWIDTH 53 0
BBX 52 81 0 0
BITMAP
000007FE000000
00000FFF000000
00001FFF800000
00003FFFC00000
00007F9FE00000
0000FF0FF00000
0000FE07F80000
0001FC01FC0000
0003F800FE0000
0007E0007F0000
000FC0003F8000
000780001E0000
00010000040000
00000000000000
00000000000000
00000000000000
00000000000000
000003FE000000
000007FF000000
000007FF000000
000007FF000000
00000FFF800000
00000FFF800000
00000FFF800000
00001FDFC00000
00001FDFC00000
00001F9FC00000
00003F8FE00000
00003F8FE00000
00003F0FE00000
00007F0FF00000
00007F07F00000
00007F07F00000
0000FE07F80000
0000FE03F80000
0000FE03F80000
0001FC03FC0000
0001FC03FC0000
0001FC01FC0000
0003FC01FE0000
0003F801FE0000
0003F800FE0000
0007F800FF0000
0007F000FF0000
0007F0007F0000
000FF0007F8000
000FE0007F8000
000FE0003F8000
001FE0003FC000
001FC0003FC000
001FC0003FC000
003FC0001FE000
003F80001FE000
003F80001FE000
007F80000FF000
007FFFFFFFF000
007FFFFFFFF000
00FFFFFFFFF800
00FFFFFFFFF800
00FFFFFFFFF800
01FFFFFFFFFC00
01FFFFFFFFFC00
01FC000003FC00
03FC000001FE00
03FC000001FE00
03F8000001FE00
07F8000001FF00
07F8000000FF00
0FF0000000FF00
0FF0000000FF80
0FF00000007F80
1FF00000007F80
1FE00000007FC0
1FE00000003FC0
3FE00000003FC0
3FC00000003FE0
3FC00000001FE0
7FC00000001FE0
7F800000001FF0
7F800000001FF0
FF800000000FF0
ENDCHAR
STARTCHAR 00C3
ENCODING 195
SWIDTH 545 0
DWIDTH 53 0
BBX 52 82 0 0
BITMAP
0000FC00000000
0003FF0003E000
0007FFC003E000
000FFFE007E000
001FFFF007E000
001FFFFC0FE000
003F87FE1FC000
003F01FFFFC000
003E00FFFF8000
007E007FFF8000
007E001FFF0000
007E000FFE0000
00000001F00000
00000000000000
00000000000000
00000000000000
00000000000000
00000000000000
000003FE000000
000007FF000000
000007FF000000
000007FF000000
00000FFF800000
00000FFF800000
00000FFF800000
00001FDFC00000
00001FDFC00000
00001F9FC00000
00003F8FE00000
00003F8FE00000
00003F0FE00000
00007F0FF00000
00007F07F00000
00007F07F00000
0000FE07F80000
0000FE03F80000
0000FE03F80000
0001FC03FC0000
0001FC03FC0000
0001FC01FC0000
0003FC01FE0000
0003F801FE0000
0003F800FE0000
0007F800FF0000
0007F000FF0000
0007F0007F0000
000FF0007F8000
000FE0007F8000
000FE0003F8000
001FE0003FC000
001FC0003FC000
001FC0003FC000
003FC0001FE000
003F80001FE000
003F80001FE000
007F80000FF000
007FFFFFFFF000
007FFFFFFFF000
00FFFFFFFFF800
00FFFFFFFFF800
00FFFFFFFFF800
01FFFFFFFFFC00
01FFFFFFFFFC00
01FC000003FC00
03FC000001FE00
03FC000001FE00
03F8000001FE00
07F8000001FF00
07F8000000FF00
0FF0000000FF00
0FF0000000FF80
0FF00000007F80
1FF00000007F80
1FE00000007FC0
1FE00000003FC0
3FE00000003FC0
3FC00000003FE0
3FC00000001FE0
7FC00000001FE0
7F800000001FF0
7F800000001FF0
FF800000000FF0
ENDCHAR
STARTCHAR 00C4
ENCODING 196
SWIDTH 545 0
DWIDTH 53 0
BBX 52 79 0 0
BITMAP
0003E0003E0000
0007F0007F0000
000FF800FF8000
000FF800FF8000
001FF800FF8000
000FF800FF8000
000FF800FF8000
000FF000FF0000
0007E0007E0000
00000000000000
00000000000000
00000000000000
00000000000000
00000000000000
00000000000000
000003FE000000
000007FF000000
000007FF000000
000007FF000000
00000FFF800000
00000FFF800000
00000FFF800000
00001FDFC00000
00001FDFC00000
00001F9FC00000
00003F8FE00000
00003F8FE00000
00003F0FE00000
00007F0FF00000
00007F07F00000
00007F07F00000
0000FE07F80000
0000FE03F80000
0000FE03F80000
0001FC03FC0000
0001FC03FC0000
0001FC01FC0000
0003FC01FE0000
0003F801FE0000
0003F800FE0000
0007F800FF0000
0007F000FF0000
0007F0007F0000
000FF0007F8000
000FE0007F8000
000FE0003F8000
001FE0003FC000
001FC0003FC000
001FC0003FC000
003FC0001FE000
003F80001FE000
003F80001FE000
007F80000FF000
007FFFFFFFF000
007FFFFFFFF000
00FFFFFFFFF800
00FFFFFFFFF800
00FFFFFFFFF800
01FFFFFFFFFC00
01FFFFFFFFFC00
01FC000003FC00
03FC000001FE00
03FC000001FE00
03F8000001FE00
07F8000001FF00
07F8000000FF00
0FF0000000FF00
0FF0000000FF80
0FF00000007F80
1FF00000007F80
1FE00000007FC0
1FE00000003FC0
3FE00000003FC0
3FC00000003FE0
3FC00000001FE0
7FC00000001FE0
7F800000001FF0
7F800000001FF0
FF800000000FF0
ENDCHAR
STARTCHAR 00C5
ENCODING 197
SWIDTH 545 0
DWIDTH 53 0
BBX 52 86 0 0
BITMAP
00000060000000
000007FE000000
00000FFF800000
00001FFFC00000
00003F0FC00000
00003E03E00000
00007C01E00000
00007801F00000
00007801F00000
00007801F00000
00007801F00000
00007C01E00000
00007C03E00000
00003E07E00000
00003FFFC00000
00001FFF800000
000007FF000000
000001F8000000
00000000000000
00000000000000
00000000000000
00000000000000
000003FE000000
000007FF000000
000007FF000000
000007FF000000
00000FFF800000
00000FFF800000
00000FFF800000
00001FDFC00000
00001FDFC00000
00001F9FC00000
00003F8FE00000
00003F8FE00000
00003F0FE00000
00007F0FF00000
00007F07F00000
00007F07F00000
0000FE07F80000
0000FE03F80000
0000FE03F80000
0001FC03FC0000
0001FC03FC0000
0001FC01FC0000
0003FC01FE0000
0003F801FE0000
0003F800FE0000
0007F800FF0000
0007F000FF0000
0007F0007F0000
000FF0007F8000
000FE0007F8000
000FE0003F8000
001FE0003FC000
001FC0003FC000
001FC0003FC000
003FC0001FE000
003F80001FE000
003F80001FE000
007F80000FF000
007FFFFFFFF000
007FFFFFFFF000
00FFFFFFFFF800
00FFFFFFFFF800
00FFFFFFFFF800
01FFFFFFFFFC00
01FFFFFFFFFC00
01FC000003FC00
03FC000001FE00
03FC000001FE00
03F8000001FE00
07F8000001FF00
07F8000000FF00
0FF0000000FF00
0FF0000000FF80
0FF00000007F80
1FF00000007F80
1FE00000007FC0
1FE00000003FC0
3FE00000003FC0
3FC00000003FE0
3FC00000001FE0
7FC00000001FE0
7F800000001FF0
7F800000001FF0
FF800000000FF0
ENDCHAR
STARTCHAR 00C6
ENCODING 198
SWIDTH 822 0
DWIDTH 80 0
BBX 74 64 1 0
BITMAP
000000007FFFFFFFFF80
00000000FFFFFFFFFF80
00000000FFFFFFFFFF80
00000001FFFFFFFFFF80
00000001FFFFFFFFFF80
00000003FFFFFFFFFF80
00000003FFFFFFFFFF80
00000007FBFC00000000
00000007FBFC00000000
0000000FF3FC00000000
0000000FF3FC00000000
0000001FE3FC00000000
0000001FE3FC00000000
0000003FC3FC00000000
0000003FC3FC00000000
0000007F83FC00000000
0000007F83FC00000000
000000FF03FC00000000
000000FF03FC00000000
000001FE03FC00000000
000003FE03FC00000000
000003FC03FC00000000
000007FC03FC00000000
000007F803FC00000000
00000FF803FC00000000
00000FF003FC00000000
00001FF003FC00000000
00001FE003FFFFFFF800
00003FE003FFFFFFF800
00003FC003FFFFFFF800
00007FC003FFFFFFF800
00007F8003FFFFFFF800
0000FF8003FFFFFFF800
0000FF0003FFFFFFF800
0001FF0003FC00000000
0001FE0003FC00000000
0003FE0003FC00000000
0003FC0003FC00000000
0007FC0003FC00000000
0007FFFFFFFC00000000
000FFFFFFFFC00000000
000FFFFFFFFC00000000
001FFFFFFFFC00000000
003FFFFFFFFC00000000
003FFFFFFFFC00000000
007FFFFFFFFC00000000
007F800003FC00000000
00FF800003FC00000000
00FF000003FC00000000
01FF000003FC00000000
01FE000003FC00000000
03FE000003FC00000000
03FC000003FC00000000
07FC000003FC00000000
07F8000003FC00000000
0FF8000003FC00000000
0FF0000003FC00000000
1FF0000003FFFFFFFFC0
1FE0000003FFFFFFFFC0
3FE0000003FFFFFFFFC0
3FC0000003FFFFFFFFC0
7FC0000003FFFFFFFFC0
7F80000003FFFFFFFFC0
FF80000003FFFFFFFFC0
ENDCHAR
STARTCHAR 00C7
ENCODING 199
SWIDTH 576 0
DWIDTH 56 0
BBX 47 87 5 -22
BITMAP
000001FF8000
00001FFFF800
00007FFFFE00
0001FFFFFF80
0007FFFFFFC0
000FFFFFFFE0
001FFFFFFFF8
007FFF80FFFC
00FFF8001FF8
00FFE00007F0
01FFC00003F0
03FF000000E0
07FE00000040
07FC00000000
0FFC00000000
0FF800000000
1FF000000000
1FF000000000
3FE000000000
3FE000000000
3FC000000000
3FC000000000
7FC000000000
7FC000000000
7F8000000000
7F8000000000
7F8000000000
FF8000000000
FF8000000000
FF8000000000
FF0000000000
FF0000000000
FF0000000000
FF0000000000
FF0000000000
FF8000000000
FF8000000000
FF8000000000
FF8000000000
FF8000000000
7F8000000000
7F8000000000
7FC000000000
7FC000000000
7FC000000000
3FC000000000
3FE000000000
3FE000000000
1FF000000000
1FF000000000
0FF800000000
0FFC00000000
07FC00000030
07FE00000070
03FF000000F8
03FF800001FC
01FFE00007FE
00FFF8000FFE
007FFF007FFC
003FFFFFFFF8
001FFFFFFFF0
0007FFFFFFC0
0003FFFFFF80
0000FFFFFE00
00003FFFF800
000003FF8000
0000003E0000
0000007C0000
0000007C0000
000000FC0000
000000F80000
000001FC0000
000001FF8000
000003FFC000
0000001FE000
0000000FE000
00000007F000
00000003F000
00000003F000
00000007F000
00000007F000
0000001FE000
000000FFC000
00001FFF8000
00001FFF0000
00000FF80000
00000F000000
ENDCHAR
STARTCHAR 00C8
ENCODING 200
SWIDTH 524 0
DWIDTH 51 0
BBX 37 84 9 1
BITMAP
0060000000
00F0000000
01F8000000
01FE000000
03FF000000
03FF800000
00FFC00000
007FE00000
003FF00000
000FF80000
0007FC0000
0003FE0000
0000FE0000
00007C0000
00003C0000
0000080000
0000000000
0000000000
0000000000
0000000000
FFFFFFFFF0
FFFFFFFFF0
FFFFFFFFF0
FFFFFFFFF0
FFFFFFFFF0
FFFFFFFFF0
FFFFFFFFF0
FF00000000
FF00000000
FF00000000
FF00000000
FF00000000
FF00000000
FF00000000
FF00000000
FF00000000
FF00000000
FF00000000
FF00000000
FF00000000
FF00000000
FF00000000
FF00000000
FF00000000
FF00000000
FF00000000
FF00000000
FFFFFFFF00
FFFFFFFF00
FFFFFFFF00
FFFFFFFF00
FFFFFFFF00
FFFFFFFF00
FFFFFFFF00
FF00000000
FF00000000
FF00000000
FF00000000
FF00000000
FF00000000
FF00000000
FF00000000
FF00000000
FF00000000
FF00000000
FF00000000
FF00000000
FF00000000
FF00000000
FF00000000
FF00000000
FF00000000
FF00000000
FF00000000
FF00000000
FF00000000
FF00000000
FFFFFFFFF8
FFFFFFFFF8
FFFFFFFFF8
FFFFFFFFF8
FFFFFFFFF8
FFFFFFFFF8
FFFFFFFFF8
ENDCHAR
STARTCHAR 00C9
ENCODING 201
SWIDTH 524 0
DWIDTH 51 0
BBX 37 84 9 1
BITMAP
0000003000
0000007800
000000FC00
000001FE00
000003FE00
00000FFE00
00001FFC00
00003FF000
00007FE000
0000FFC000
0001FF0000
0003FE0000
0003FC0000
0001F00000
0000E00000
0000C00000
0000000000
0000000000
0000000000
0000000000
FFFFFFFFF0
FFFFFFFFF0
FFFFFFFFF0
FFFFFFFFF0
FFFFFFFFF0
FFFFFFFFF0
FFFFFFFFF0
FF00000000
FF00000000
FF00000000
FF00000000
FF00000000
FF00000000
FF00000000
FF00000000
FF00000000
FF00000000
FF00000000
FF00000000
FF00000000
FF00000000
FF00000000
FF00000000
FF00000000
FF00000000
FF00000000
FF00000000
FFFFFFFF00
FFFFFFFF00
FFFFFFFF00
FFFFFFFF00
FFFFFFFF00
FFFFFFFF00
FFFFFFFF00
FF00000000
FF00000000
FF00000000
FF00000000
FF00000000
FF00000000
FF00000000
FF00000000
FF00000000
FF00000000
FF00000000
FF00000000
FF00000000
FF00000000
FF00000000
FF00000000
FF00000000
FF00000000
FF00000000
FF00000000
FF00000000
FF00000000
FF00000000
FFFFFFFFF8
FFFFFFFFF8
FFFFFFFFF8
FFFFFFFFF8
FFFFFFFFF8
FFFFFFFFF8
FFFFFFFFF8
ENDCHAR
STARTCHAR 00CA
ENCODING 202
SWIDTH 524 0
DWIDTH 51 0
BBX 37 81 9 0
BITMAP
0003FF0000
0007FF8000
000FFFC000
001FFFE000
003FDFE000
007F87F000
00FE03F800
01FC01FC00
03F800FE00
07F0007F00
0FE0001F80
0380000E00
0100000400
0000000000
0000000000
0000000000
0000000000
FFFFFFFFF0
FFFFFFFFF0
FFFFFFFFF0
FFFFFFFFF0
FFFFFFFFF0
FFFFFFFFF0
FFFFFFFFF0
FF00000000
FF00000000
FF00000000
FF00000000
FF00000000
FF00000000
FF00000000
FF00000000
FF00000000
FF00000000
FF00000000
FF00000000
FF00000000
FF00000000
FF00000000
FF00000000
FF00000000
FF00000000
FF00000000
FF00000000
FFFFFFFF00
FFFFFFFF00
FFFFFFFF00
FFFFFFFF00
FFFFFFFF00
FFFFFFFF00
FFFFFFFF00
FF00000000
FF00000000
FF00000000
FF00000000
FF00000000
FF00000000
FF00000000
FF00000000
FF00000000
FF00000000
FF00000000
FF00000000
FF00000000
FF00000000
FF00000000
FF00000000
FF00000000
FF00000000
FF00000000
FF00000000
FF00000000
FF00000000
FF00000000
FFFFFFFFF8
FFFFFFFFF8
FFFFFFFFF8
FFFFFFFFF8
FFFFFFFFF8
FFFFFFFFF8
FFFFFFFFF8
ENDCHAR
STARTCHAR 00CB
ENCODING 203
SWIDTH 524 0
DWIDTH 51 0
BBX 37 79 9 0
BITMAP
03E0003E00
07F0007F00
0FF800FF80
0FF800FF80
0FF800FF80
0FF800FF80
0FF800FF80
07F8007F80
03F0003F00
0080000800
0000000000
0000000000
0000000000
0000000000
0000000000
FFFFFFFFF0
FFFFFFFFF0
FFFFFFFFF0
FFFFFFFFF0
FFFFFFFFF0
FFFFFFFFF0
FFFFFFFFF0
FF00000000
FF00000000
FF00000000
FF00000000
FF00000000
FF00000000
FF00000000
FF00000000
FF00000000
FF00000000
FF00000000
FF00000000
FF00000000
FF00000000
FF00000000
FF00000000
FF00000000
FF00000000
FF00000000
FF00000000
FFFFFFFF00
FFFFFFFF00
FFFFFFFF00
FFFFFFFF00
FFFFFFFF00
FFFFFFFF00
FFFFFFFF00
FF00000000
FF00000000
FF00000000
FF00000000
FF00000000
FF00000000
FF00000000
FF00000000
FF00000000
FF00000000
FF00000000
FF00000000
FF00000000
FF00000000
FF00000000
FF00000000
FF00000000
FF00000000
FF00000000
FF00000000
FF00000000
FF00000000
FF00000000
FFFFFFFFF8
FFFFFFFFF8
FFFFFFFFF8
FFFFFFFFF8
FFFFFFFFF8
FFFFFFFFF8
FFFFFFFFF8
ENDCHAR
STARTCHAR 00CC
ENCODING 204
SWIDTH 267 0
DWIDTH 26 0
BBX 18 84 0 1
BITMAP
180000
3C0000
3F0000
7F8000
FFC000
FFE000
3FF000
1FF800
0FFC00
03FE00
01FF00
00FFC0
003F80
001F80
000F00
000200
000000
000000
000000
000000
007F80
007F80
007F80
007F80
007F80
007F80
007F80
007F80
007F80
007F80
007F80
007F80
007F80
007F80
007F80
007F80
007F80
007F80
007F80
007F80
007F80
007F80
007F80
007F80
007F80
007F80
007F80
007F80
007F80
007F80
007F80
007F80
007F80
007F80
007F80
007F80
007F80
007F80
007F80
007F80
007F80
007F80
007F80
007F80
007F80
007F80
007F80
007F80
007F80
007F80
007F80
007F80
007F80
007F80
007F80
007F80
007F80
007F80
007F80
007F80
007F80
007F80
007F80
007F80
ENDCHAR
STARTCHAR 00CD
ENCODING 205
SWIDTH 267 0
DWIDTH 26 0
BBX 18 84 8 1
BITMAP
000C00
001E00
003F00
007F80
00FFC0
01FF80
03FF00
0FFC00
1FF800
3FF000
7FC000
FF8000
FF0000
7C0000
380000
100000
000000
000000
000000
000000
7F8000
7F8000
7F8000
7F8000
7F8000
7F8000
7F8000
7F8000
7F8000
7F8000
7F8000
7F8000
7F8000
7F8000
7F8000
7F8000
7F8000
7F8000
7F8000
7F8000
7F8000
7F8000
7F8000
7F8000
7F8000
7F8000
7F8000
7F8000
7F8000
7F8000
7F8000
7F8000
7F8000
7F8000
7F8000
7F8000
7F8000
7F8000
7F8000
7F8000
7F8000
7F8000
7F8000
7F8000
7F8000
7F8000
7F8000
7F8000
7F8000
7F8000
7F8000
7F8000
7F8000
7F8000
7F8000
7F8000
7F8000
7F8000
7F8000
7F8000
7F8000
7F8000
7F8000
7F8000
ENDCHAR
STARTCHAR 00CE
ENCODING 206
SWIDTH 267 0
DWIDTH 26 0
BBX 29 81 -2 0
BITMAP
003FF000
007FF800
00FFFC00
01FFFE00
03FCFF00
07F87F80
0FF03F80
1FC01FC0
3F800FE0
7F0003F0
FE0001F8
3C0000F0
10000040
00000000
00000000
00000000
00000000
001FE000
001FE000
001FE000
001FE000
001FE000
001FE000
001FE000
001FE000
001FE000
001FE000
001FE000
001FE000
001FE000
001FE000
001FE000
001FE000
001FE000
001FE000
001FE000
001FE000
001FE000
001FE000
001FE000
001FE000
001FE000
001FE000
001FE000
001FE000
001FE000
001FE000
001FE000
001FE000
001FE000
001FE000
001FE000
001FE000
001FE000
001FE000
001FE000
001FE000
001FE000
001FE000
001FE000
001FE000
001FE000
001FE000
001FE000
001FE000
001FE000
001FE000
001FE000
001FE000
001FE000
001FE000
001FE000
001FE000
001FE000
001FE000
001FE000
001FE000
001FE000
001FE000
001FE000
001FE000
ENDCHAR
STARTCHAR 00CF
ENCODING 207
SWIDTH 267 0
DWIDTH 26 0
BBX 30 79 -2 0
BITMAP
1E0001E0
7F0007F0
7F8007F8
FF800FF8
FF800FFC
FF800FF8
FF800FF8
7F8007F8
3F0003F0
00000000
00000000
00000000
00000000
00000000
00000000
001FE000
001FE000
001FE000
001FE000
001FE000
001FE000
001FE000
001FE000
001FE000
001FE000
001FE000
001FE000
001FE000
001FE000
001FE000
001FE000
001FE000
001FE000
001FE000
001FE000
001FE000
001FE000
001FE000
001FE000
001FE000
001FE000
001FE000
001FE000
001FE000
001FE000
001FE000
001FE000
001FE000
001FE000
001FE000
001FE000
001FE000
001FE000
001FE000
001FE000
001FE000
001FE000
001FE000
001FE000
001FE000
001FE000
001FE000
001FE000
001FE000
001FE000
001FE000
001FE000
001FE000
001FE000
001FE000
001FE000
001FE000
001FE000
001FE000
001FE000
001FE000
001FE000
001FE000
001FE000
ENDCHAR
STARTCHAR 00D0
ENCODING 208
SWIDTH 637 0
DWIDTH 62 0
BBX 54 64 3 0
BITMAP
00FFFFFE000000
00FFFFFFE00000
00FFFFFFFC0000
00FFFFFFFF0000
00FFFFFFFFC000
00FFFFFFFFE000
00FFFFFFFFF800
00FF0001FFFC00
00FF00003FFE00
00FF00000FFE00
00FF000007FF00
00FF000003FF80
00FF000001FFC0
00FF000000FFC0
00FF0000007FE0
00FF0000003FE0
00FF0000003FE0
00FF0000001FF0
00FF0000001FF0
00FF0000000FF0
00FF0000000FF8
00FF0000000FF8
00FF00000007F8
00FF00000007F8
00FF00000007FC
00FF00000007FC
00FF00000007FC
00FF00000007FC
FFFFFFFC0003FC
FFFFFFFC0003FC
FFFFFFFC0003FC
FFFFFFFC0003FC
FFFFFFFC0003FC
00FF00000003FC
00FF00000003FC
00FF00000007FC
00FF00000007FC
00FF00000007FC
00FF00000007FC
00FF00000007F8
00FF00000007F8
00FF00000007F8
00FF0000000FF8
00FF0000000FF8
00FF0000000FF0
00FF0000001FF0
00FF0000001FF0
00FF0000003FE0
00FF0000003FE0
00FF0000007FC0
00FF000000FFC0
00FF000001FF80
00FF000003FF80
00FF000007FF00
00FF00001FFE00
00FF00007FFC00
00FF0001FFF800
00FFFFFFFFF000
00FFFFFFFFE000
00FFFFFFFFC000
00FFFFFFFF0000
00FFFFFFFC0000
00FFFFFFE00000
00FFFFFE000000
ENDCHAR
STARTCHAR 00D1
ENCODING 209
SWIDTH 648 0
DWIDTH 63 0
BBX 45 82 9 0
BITMAP
0007E0000000
003FF8003F00
007FFC003F00
00FFFF003F00
00FFFF807F00
01FFFFC07E00
01FC3FF0FE00
03F81FFFFE00
03F007FFFC00
03F003FFF800
03E001FFF000
03E0007FE000
0000001F8000
000000000000
000000000000
000000000000
000000000000
000000000000
FF00000007F8
FF80000007F8
FFC0000007F8
FFC0000007F8
FFE0000007F8
FFE0000007F8
FFF0000007F8
FFF0000007F8
FFF8000007F8
FFFC000007F8
FDFC000007F8
FDFE000007F8
FEFE000007F8
FEFF000007F8
FE7F000007F8
FE7F800007F8
FE3FC00007F8
FE3FC00007F8
FE1FE00007F8
FE1FE00007F8
FE0FF00007F8
FE0FF00007F8
FE07F80007F8
FE03FC0007F8
FE03FC0007F8
FE01FE0007F8
FE01FE0007F8
FE00FF0007F8
FE00FF0007F8
FE007F8007F8
FE003FC007F8
FE003FC007F8
FE001FE007F8
FE001FE007F8
FE000FF007F8
FE000FF007F8
FE0007F803F8
FE0003FC03F8
FE0003FC03F8
FE0001FE03F8
FE0001FE03F8
FE0000FF03F8
FE0000FF03F8
FE00007F83F8
FE00003F83F8
FE00003FC3F8
FE00001FC3F8
FE00001FE3F8
FE00000FE3F8
FE00000FF3F8
FE000007F3F8
FE000003FBF8
FE000003FFF8
FE000001FFF8
FE000001FFF8
FE000000FFF8
FE000000FFF8
FE0000007FF8
FE0000003FF8
FE0000003FF8
FE0000001FF8
FE0000001FF8
FE0000000FF8
FE0000000FF8
ENDCHAR
STARTCHAR 00D2
ENCODING 210
SWIDTH 668 0
DWIDTH 65 0
BBX 55 85 5 -1
BITMAP
00003000000000
00007800000000
0000FC00000000
0001FE00000000
0001FF00000000
0001FF80000000
0000FFC0000000
00007FE0000000
00001FF8000000
00000FFC000000
000007FE000000
000001FF000000
000000FF000000
0000007E000000
0000001C000000
0000000C000000
00000000000000
00000000000000
00000000000000
000003FF800000
00003FFFF00000
0000FFFFFE0000
0003FFFFFF8000
000FFFFFFFC000
001FFFFFFFF000
003FFFFFFFF800
007FFF01FFFC00
00FFF0003FFE00
01FFC0000FFF00
03FF800003FF00
03FF000001FF80
07FE000000FFC0
0FFC0000007FC0
0FF80000007FE0
1FF80000003FE0
1FF00000001FF0
1FE00000001FF0
3FE00000000FF0
3FE00000000FF8
3FC00000000FF8
7FC000000007F8
7FC000000007FC
7F8000000007FC
7F8000000007FC
7F8000000003FC
FF8000000003FC
FF8000000003FC
FF8000000003FC
FF8000000003FE
FF0000000003FE
FF0000000003FE
FF0000000003FE
FF0000000003FE
FF0000000003FE
FF8000000003FE
FF8000000003FC
FF8000000003FC
FF8000000003FC
7F8000000003FC
7F8000000003FC
7F8000000007FC
7FC000000007FC
7FC000000007F8
7FC000000007F8
3FC00000000FF8
3FE00000000FF8
3FE00000001FF0
1FF00000001FF0
1FF00000003FE0
0FF80000003FE0
0FF80000007FE0
07FC000000FFC0
07FE000000FF80
03FF000001FF80
03FF800007FF00
01FFE0000FFE00
00FFF8003FFE00
007FFF01FFFC00
003FFFFFFFF800
001FFFFFFFE000
000FFFFFFFC000
0003FFFFFF8000
0000FFFFFE0000
00003FFFF00000
000003FF000000
ENDCHAR
STARTCHAR 00D3
ENCODING 211
SWIDTH 668 0
DWIDTH 65 0
BBX 55 85 5 -1
BITMAP
00000000180000
00000000380000
000000007C0000
00000000FE0000
00000003FF0000
00000007FF0000
0000000FFC0000
0000001FF80000
0000003FF00000
0000007FC00000
000000FF800000
000001FF000000
000003FC000000
000001F8000000
000000F0000000
00000060000000
00000000000000
00000000000000
00000000000000
000003FF800000
00003FFFF00000
0000FFFFFE0000
0003FFFFFF8000
000FFFFFFFC000
001FFFFFFFF000
003FFFFFFFF800
007FFF01FFFC00
00FFF0003FFE00
01FFC0000FFF00
03FF800003FF00
03FF000001FF80
07FE000000FFC0
0FFC0000007FC0
0FF80000007FE0
1FF80000003FE0
1FF00000001FF0
1FE00000001FF0
3FE00000000FF0
3FE00000000FF8
3FC00000000FF8
7FC000000007F8
7FC000000007FC
7F8000000007FC
7F8000000007FC
7F8000000003FC
FF8000000003FC
FF8000000003FC
FF8000000003FC
FF8000000003FE
FF0000000003FE
FF0000000003FE
FF0000000003FE
FF0000000003FE
FF0000000003FE
FF8000000003FE
FF8000000003FC
FF8000000003FC
FF8000000003FC
7F8000000003FC
7F8000000003FC
7F8000000007FC
7FC000000007FC
7FC000000007F8
7FC000000007F8
3FC00000000FF8
3FE00000000FF8
3FE00000001FF0
1FF00000001FF0
1FF00000003FE0
0FF80000003FE0
0FF80000007FE0
07FC000000FFC0
07FE000000FF80
03FF000001FF80
03FF800007FF00
01FFE0000FFE00
00FFF8003FFE00
007FFF01FFFC00
003FFFFFFFF800
001FFFFFFFE000
000FFFFFFFC000
0003FFFFFF8000
0000FFFFFE0000
00003FFFF00000
000003FF000000
ENDCHAR
STARTCHAR 00D4
ENCODING 212
SWIDTH 668 0
DWIDTH 65 0
BBX 55 82 5 -1
BITMAP
000003FF000000
000007FF800000
00000FFFC00000
00001FFFE00000
00003FCFF00000
00003F87F80000
00007F03FC0000
0000FE00FE0000
0001FC007F0000
0003F8003F8000
0007E0001FC000
0003C0000F0000
00008000020000
00000000000000
00000000000000
00000000000000
000003FF800000
00003FFFF00000
0000FFFFFE0000
0003FFFFFF8000
000FFFFFFFC000
001FFFFFFFF000
003FFFFFFFF800
007FFF01FFFC00
00FFF0003FFE00
01FFC0000FFF00
03FF800003FF00
03FF000001FF80
07FE000000FFC0
0FFC0000007FC0
0FF80000007FE0
1FF80000003FE0
1FF00000001FF0
1FE00000001FF0
3FE00000000FF0
3FE00000000FF8
3FC00000000FF8
7FC000000007F8
7FC000000007FC
7F8000000007FC
7F8000000007FC
7F8000000003FC
FF8000000003FC
FF8000000003FC
FF8000000003FC
FF8000000003FE
FF0000000003FE
FF0000000003FE
FF0000000003FE
FF0000000003FE
FF0000000003FE
FF8000000003FE
FF8000000003FC
FF8000000003FC
FF8000000003FC
7F8000000003FC
7F8000000003FC
7F8000000007FC
7FC000000007FC
7FC000000007F8
7FC000000007F8
3FC00000000FF8
3FE00000000FF8
3FE00000001FF0
1FF00000001FF0
1FF00000003FE0
0FF80000003FE0
0FF80000007FE0
07FC000000FFC0
07FE000000FF80
03FF000001FF80
03FF800007FF00
01FFE0000FFE00
00FFF8003FFE00
007FFF01FFFC00
003FFFFFFFF800
001FFFFFFFE000
000FFFFFFFC000
0003FFFFFF8000
0000FFFFFE0000
00003FFFF00000
000003FF000000
ENDCHAR
STARTCHAR 00D5
ENCODING 213
SWIDTH 668 0
DWIDTH 65 0
BBX 55 83 5 -1
BITMAP
00007E00000000
0001FF8001F000
0003FFE001F000
0007FFF003F000
000FFFF803F000
000FFFFE07F000
001FC3FF0FE000
001F80FFFFE000
001F807FFFC000
003F003FFFC000
003F000FFF8000
003F0007FF0000
00000001FC0000
00000000000000
00000000000000
00000000000000
00000000000000
000003FF800000
00003FFFF00000
0000FFFFFE0000
0003FFFFFF8000
000FFFFFFFC000
001FFFFFFFF000
003FFFFFFFF800
007FFF01FFFC00
00FFF0003FFE00
01FFC0000FFF00
03FF800003FF00
03FF000001FF80
07FE000000FFC0
0FFC0000007FC0
0FF80000007FE0
1FF80000003FE0
1FF00000001FF0
1FE00000001FF0
3FE00000000FF0
3FE00000000FF8
3FC00000000FF8
7FC000000007F8
7FC000000007FC
7F8000000007FC
7F8000000007FC
7F8000000003FC
FF8000000003FC
FF8000000003FC
FF8000000003FC
FF8000000003FE
FF0000000003FE
FF0000000003FE
FF0000000003FE
FF0000000003FE
FF0000000003FE
FF8000000003FE
FF8000000003FC
FF8000000003FC
FF8000000003FC
7F8000000003FC
7F8000000003FC
7F8000000007FC
7FC000000007FC
7FC000000007F8
7FC000000007F8
3FC00000000FF8
3FE00000000FF8
3FE00000001FF0
1FF00000001FF0
1FF00000003FE0
0FF80000003FE0
0FF80000007FE0
07FC000000FFC0
07FE000000FF80
03FF000001FF80
03FF800007FF00
01FFE0000FFE00
00FFF8003FFE00
007FFF01FFFC00
003FFFFFFFF800
001FFFFFFFE000
000FFFFFFFC000
0003FFFFFF8000
0000FFFFFE0000
00003FFFF00000
000003FF000000
ENDCHAR
STARTCHAR 00D6
ENCODING 214
SWIDTH 668 0
DWIDTH 65 0
BBX 55 80 5 -1
BITMAP
0001F0001F0000
0003F8003F8000
0007FC007FC000
0007FC007FC000
0007FC007FC000
0007FC007FC000
0007FC007FC000
0007F8007F8000
0003F0003F0000
00000000000000
00000000000000
00000000000000
00000000000000
00000000000000
000003FF800000
00003FFFF00000
0000FFFFFE0000
0003FFFFFF8000
000FFFFFFFC000
001FFFFFFFF000
003FFFFFFFF800
007FFF01FFFC00
00FFF0003FFE00
01FFC0000FFF00
03FF800003FF00
03FF000001FF80
07FE000000FFC0
0FFC0000007FC0
0FF80000007FE0
1FF80000003FE0
1FF00000001FF0
1FE00000001FF0
3FE00000000FF0
3FE00000000FF8
3FC00000000FF8
7FC000000007F8
7FC000000007FC
7F8000000007FC
7F8000000007FC
7F8000000003FC
FF8000000003FC
FF8000000003FC
FF8000000003FC
FF8000000003FE
FF0000000003FE
FF0000000003FE
FF0000000003FE
FF0000000003FE
FF0000000003FE
FF8000000003FE
FF8000000003FC
FF8000000003FC
FF8000000003FC
7F8000000003FC
7F8000000003FC
7F8000000007FC
7FC000000007FC
7FC000000007F8
7FC000000007F8
3FC00000000FF8
3FE00000000FF8
3FE00000001FF0
1FF00000001FF0
1FF00000003FE0
0FF80000003FE0
0FF80000007FE0
07FC000000FFC0
07FE000000FF80
03FF000001FF80
03FF800007FF00
01FFE0000FFE00
00FFF8003FFE00
007FFF01FFFC00
003FFFFFFFF800
001FFFFFFFE000
000FFFFFFFC000
0003FFFFFF8000
0000FFFFFE0000
00003FFFF00000
000003FF000000
ENDCHAR
STARTCHAR 00D7
ENCODING 215
SWIDTH 493 0
DWIDTH 48 0
BBX 38 39 5 12
BITMAP
0800000020
1C00000070
3E000000F8
7F000001FC
FF800003FC
7FC00007F8
3FC0000FF0
1FE0001FE0
0FF0003FC0
07F8007F80
03FC00FF00
01FE01FE00
00FF03FC00
007F87FC00
003FCFF800
001FFFF000
000FFFE000
0007FFC000
0003FF8000
0001FF0000
0003FF0000
0007FF8000
000FFFC000
001FFFE000
003FEFF000
007FC7F800
00FF83FC00
01FF01FE00
03FE00FF00
07FC00FF80
0FF8007FC0
1FF0003FE0
3FE0001FF0
3FC0000FF8
7F800007FC
FF000003FC
7E000001F8
3C000000F0
1800000060
ENDCHAR
STARTCHAR 00D8
ENCODING 216
SWIDTH 668 0
DWIDTH 65 0
BBX 55 69 5 -2
BITMAP
00000000000030
000003FF80007C
00001FFFF800FE
0000FFFFFE01FE
0003FFFFFF81FC
0007FFFFFFE3F8
001FFFFFFFF7F0
003FFFFFFFFFE0
007FFF01FFFFE0
00FFF8003FFFC0
01FFE0000FFF80
01FF800003FF80
03FF000001FF80
07FE000000FFC0
07FC000001FFE0
0FFC000003FFE0
0FF8000007FFF0
1FF0000007FFF0
1FF000000FFFF0
1FE000001FCFF8
3FE000003F8FF8
3FE000003F87F8
3FC000007F07FC
7FC00000FE07FC
7FC00001FC07FC
7F800003FC03FC
7F800003F803FC
7F800007F003FE
7F80000FE003FE
7F80001FE003FE
FF80001FC003FE
FF80003F8003FE
FF80007F0003FE
FF8000FE0003FE
FF8000FE0003FE
FF8001FC0003FE
FF8003F80003FE
FF8007F00003FE
7F800FF00003FE
7F800FE00003FE
7F801FC00003FC
7F803F800003FC
7FC07F800003FC
7FC07F000007FC
3FC0FE000007FC
3FC1FC000007F8
3FE3F8000007F8
3FE7F800000FF8
1FE7F000000FF8
1FFFE000001FF0
1FFFC000001FF0
0FFFC000003FE0
0FFF8000007FE0
07FF0000007FC0
07FE000000FFC0
03FF000001FF80
01FFC00003FF00
03FFE0000FFF00
07FFF8003FFE00
0FFFFF01FFFC00
0FFFFFFFFFF800
1FDFFFFFFFF000
3F87FFFFFFC000
7F03FFFFFF8000
FF00FFFFFE0000
FE001FFFF00000
7C0003FF800000
18000000000000
08000000000000
ENDCHAR
STARTCHAR 00D9
ENCODING 217
SWIDTH 648 0
DWIDTH 63 0
BBX 46 85 8 0
BITMAP
000300000000
000780000000
000FC0000000
001FE0000000
001FF0000000
001FFC000000
000FFE000000
0003FF000000
0001FF800000
0000FFC00000
00003FE00000
00001FF00000
00000FF00000
000003E00000
000001C00000
000000C00000
000000000000
000000000000
000000000000
000000000000
FF80000003FC
FF80000003FC
FF80000003FC
FF80000003FC
FF80000003FC
FF80000003FC
FF80000003FC
FF80000003FC
FF80000003FC
FF80000003FC
FF80000003FC
FF80000003FC
FF80000003FC
FF80000003FC
FF80000003FC
FF80000003FC
FF80000003FC
FF80000003FC
FF80000003FC
FF80000003FC
FF80000003FC
FF80000003FC
FF80000003FC
FF80000003FC
FF80000003FC
FF80000003FC
FF80000003FC
FF80000003FC
FF80000003FC
FF80000003FC
FF80000003FC
FF80000003FC
FF80000003FC
FF80000003FC
FF80000003FC
FF80000003FC
FF80000003FC
FF80000003FC
FF80000003FC
FF80000003FC
7F80000003FC
7F80000003FC
7F80000003FC
7F80000003FC
7F80000003FC
7F80000003FC
7FC0000003FC
7FC0000007F8
3FC0000007F8
3FE0000007F8
3FE000000FF0
1FE000000FF0
1FF000001FF0
1FF800003FE0
0FFC00007FE0
0FFE0000FFC0
07FF8003FFC0
03FFF01FFF80
01FFFFFFFF00
00FFFFFFFE00
007FFFFFFC00
003FFFFFF800
000FFFFFE000
0003FFFF8000
00003FF80000
ENDCHAR
STARTCHAR 00DA
ENCODING 218
SWIDTH 648 0
DWIDTH 63 0
BBX 46 85 8 0
BITMAP
000000018000
00000003C000
00000007E000
0000000FE000
0000003FF000
0000007FF000
000000FFC000
000001FF8000
000003FF0000
000007FC0000
00000FF80000
00001FF00000
00001FC00000
00000F800000
00000F000000
000004000000
000000000000
000000000000
000000000000
000000000000
FF80000003FC
FF80000003FC
FF80000003FC
FF80000003FC
FF80000003FC
FF80000003FC
FF80000003FC
FF80000003FC
FF80000003FC
FF80000003FC
FF80000003FC
FF80000003FC
FF80000003FC
FF80000003FC
FF80000003FC
FF80000003FC
FF80000003FC
FF80000003FC
FF80000003FC
FF80000003FC
FF80000003FC
FF80000003FC
FF80000003FC
FF80000003FC
FF80000003FC
FF80000003FC
FF80000003FC
FF80000003FC
FF80000003FC
FF80000003FC
FF80000003FC
FF80000003FC
FF80000003FC
FF80000003FC
FF80000003FC
FF80000003FC
FF80000003FC
FF80000003FC
FF80000003FC
FF80000003FC
7F80000003FC
7F80000003FC
7F80000003FC
7F80000003FC
7F80000003FC
7F80000003FC
7FC0000003FC
7FC0000007F8
3FC0000007F8
3FE0000007F8
3FE000000FF0
1FE000000FF0
1FF000001FF0
1FF800003FE0
0FFC00007FE0
0FFE0000FFC0
07FF8003FFC0
03FFF01FFF80
01FFFFFFFF00
00FFFFFFFE00
007FFFFFFC00
003FFFFFF800
000FFFFFE000
0003FFFF8000
00003FF80000
ENDCHAR
STARTCHAR 00DB
ENCODING 219
SWIDTH 648 0
DWIDTH 63 0
BBX 46 82 8 -1
BITMAP
00003FF80000
00007FF80000
0000FFFC0000
0001FFFE0000
0001FEFF0000
0003F87F8000
0007F01FC000
000FE00FE000
001FC007F000
003F8003F800
007E0001FC00
001C00007000
000800002000
000000000000
000000000000
000000000000
000000000000
FF80000003FC
FF80000003FC
FF80000003FC
FF80000003FC
FF80000003FC
FF80000003FC
FF80000003FC
FF80000003FC
FF80000003FC
FF80000003FC
FF80000003FC
FF80000003FC
FF80000003FC
FF80000003FC
FF80000003FC
FF80000003FC
FF80000003FC
FF80000003FC
FF80000003FC
FF80000003FC
FF80000003FC
FF80000003FC
FF80000003FC
FF80000003FC
FF80000003FC
FF80000003FC
FF80000003FC
FF80000003FC
FF80000003FC
FF80000003FC
FF80000003FC
FF80000003FC
FF80000003FC
FF80000003FC
FF80000003FC
FF80000003FC
FF80000003FC
FF80000003FC
FF80000003FC
FF80000003FC
7F80000003FC
7F80000003FC
7F80000003FC
7F80000003FC
7F80000003FC
7F80000003FC
7FC0000003FC
7FC0000007F8
3FC0000007F8
3FE0000007F8
3FE000000FF0
1FE000000FF0
1FF000001FF0
1FF800003FE0
0FFC00007FE0
0FFE0000FFC0
07FF8003FFC0
03FFF01FFF80
01FFFFFFFF00
00FFFFFFFE00
007FFFFFFC00
003FFFFFF800
000FFFFFE000
0003FFFF8000
00003FF80000
ENDCHAR
STARTCHAR 00DC
ENCODING 220
SWIDTH 648 0
DWIDTH 63 0
BBX 46 80 8 -1
BITMAP
001F0001F000
003F8003F800
007FC007FC00
007FC007FC00
007FC007FC00
007FC007FC00
007FC007FC00
007F8007F800
003F0003F000
000400004000
000000000000
000000000000
000000000000
000000000000
000000000000
FF80000003FC
FF80000003FC
FF80000003FC
FF80000003FC
FF80000003FC
FF80000003FC
FF80000003FC
FF80000003FC
FF80000003FC
FF80000003FC
FF80000003FC
FF80000003FC
FF80000003FC
FF80000003FC
FF80000003FC
FF80000003FC
FF80000003FC
FF80000003FC
FF80000003FC
FF80000003FC
FF80000003FC
FF80000003FC
FF80000003FC
FF80000003FC
FF80000003FC
FF80000003FC
FF80000003FC
FF80000003FC
FF80000003FC
FF80000003FC
FF80000003FC
FF80000003FC
FF80000003FC
FF80000003FC
FF80000003FC
FF80000003FC
FF80000003FC
FF80000003FC
FF80000003FC
FF80000003FC
7F80000003FC
7F80000003FC
7F80000003FC
7F80000003FC
7F80000003FC
7F80000003FC
7FC0000003FC
7FC0000007F8
3FC0000007F8
3FE0000007F8
3FE000000FF0
1FE000000FF0
1FF000001FF0
1FF800003FE0
0FFC00007FE0
0FFE0000FFC0
07FF8003FFC0
03FFF01FFF80
01FFFFFFFF00
00FFFFFFFE00
007FFFFFFC00
003FFFFFF800
000FFFFFE000
0003FFFF8000
00003FF80000
ENDCHAR
STARTCHAR 00DD
ENCODING 221
SWIDTH 473 0
DWIDTH 46 0
BBX 46 84 0 1
BITMAP
000000018000
000000078000
0000000FC000
0000001FE000
0000003FF000
0000007FE000
000000FFC000
000001FF8000
000003FE0000
000007FC0000
00001FF80000
00003FE00000
00003FC00000
00001F800000
00000E000000
000004000000
000000000000
000000000000
000000000000
000000000000
FF80000003FC
7F80000007FC
7FC0000007F8
3FC000000FF8
3FE000000FF0
1FE000001FF0
1FF000001FE0
0FF000001FE0
0FF000003FC0
07F800003FC0
07F800007F80
07FC00007F80
03FC0000FF00
03FE0000FF00
01FE0001FE00
01FF0001FE00
00FF0003FC00
00FF8003FC00
007F8003F800
007FC007F800
003FC007F000
003FC00FF000
001FE00FE000
001FE01FE000
000FF01FC000
000FF03FC000
0007F83F8000
0007F83F8000
0003F87F0000
0003FC7F0000
0001FCFE0000
0001FEFE0000
0000FFFC0000
0000FFFC0000
00007FFC0000
00007FF80000
00003FF80000
00003FF00000
00001FF00000
00001FE00000
00001FE00000
00001FE00000
00001FE00000
00001FE00000
00001FE00000
00001FE00000
00001FE00000
00001FE00000
00001FE00000
00001FE00000
00001FE00000
00001FE00000
00001FE00000
00001FE00000
00001FE00000
00001FE00000
00001FE00000
00001FE00000
00001FE00000
00001FE00000
00001FE00000
00001FE00000
00001FE00000
00001FE00000
ENDCHAR
STARTCHAR 00DE
ENCODING 222
SWIDTH 586 0
DWIDTH 57 0
BBX 43 64 9 0
BITMAP
FF0000000000
FF0000000000
FF0000000000
FF0000000000
FF0000000000
FF0000000000
FF0000000000
FF0000000000
FF0000000000
FF0000000000
FFFFFC000000
FFFFFFFC0000
FFFFFFFF8000
FFFFFFFFE000
FFFFFFFFF000
FFFFFFFFFC00
FFFFFFFFFE00
FF00007FFE00
FF00000FFF00
FF000003FF80
FF000000FF80
FF000000FFC0
FF0000007FC0
FF0000003FC0
FF0000003FC0
FF0000003FE0
FF0000001FE0
FF0000001FE0
FF0000001FE0
FF0000001FE0
FF0000001FE0
FF0000001FE0
FF0000001FE0
FF0000003FE0
FF0000003FC0
FF0000003FC0
FF0000007FC0
FF0000007FC0
FF000000FF80
FF000001FF80
FF000003FF00
FF00000FFE00
FF0000FFFE00
FFFFFFFFFC00
FFFFFFFFF800
FFFFFFFFE000
FFFFFFFFC000
FFFFFFFF0000
FFFFFFF80000
FFFFF8000000
FF0000000000
FF0000000000
FF0000000000
FF0000000000
FF0000000000
FF0000000000
FF0000000000
FF0000000000
FF0000000000
FF0000000000
FF0000000000
FF0000000000
FF0000000000
FF0000000000
ENDCHAR
STARTCHAR 00DF
ENCODING 223
SWIDTH 576 0
DWIDTH 56 0
BBX 45 71 8 -1
BITMAP
0003FF000000
001FFFE00000
007FFFF80000
01FFFFFC0000
03FFFFFE0000
07FFFFFF0000
0FFFFFFF8000
1FFC01FF8000
1FF8007FC000
3FE0007FC000
3FE0003FC000
7FC0003FE000
7FC0001FE000
7F80001FE000
7F80001FE000
FF80001FE000
FF00001FE000
FF00001FC000
FF00003FC000
FF00003FC000
FF00003F8000
FF00007F8000
FF0000FF0000
FF0000FF0000
FF0001FE0000
FF0003FC0000
FF0007F80000
FF0007F80000
FF000FF00000
FF000FE00000
FF001FE00000
FF001FC00000
FF001FC00000
FF001FC00000
FF003FC00000
FF003FC00000
FF001FE00000
FF001FE00000
FF001FF00000
FF001FFC0000
FF000FFE0000
FF0007FF8000
FF0003FFE000
FF0001FFF800
FF0000FFFE00
FF00003FFF00
FF00000FFF80
FF000003FFC0
FF000001FFE0
FF0000007FE0
FF0000003FF0
FF0000001FF0
FF0000000FF8
FF00000007F8
FF00000007F8
FF00000007F8
FF00000003F8
FF00000003F8
FF00000007F8
FF00000007F8
FF00000007F8
FF0010000FF0
FF003C001FF0
FF007F003FF0
FF007FE0FFE0
FF00FFFFFFC0
FF00FFFFFF80
FF003FFFFF00
FF001FFFFE00
FF0003FFF800
0000007FC000
ENDCHAR
STARTCHAR 00E0
ENCODING 224
SWIDTH 504 0
DWIDTH 49 0
BBX 37 76 5 0
BITMAP
0018000000
003C000000
007E000000
00FF000000
01FF800000
01FF800000
00FFC00000
007FE00000
003FF00000
001FF80000
000FFC0000
0007FC0000
0003FE0000
0000FF0000
00007F8000
00003FC000
00001F8000
00000F0000
0000060000
0000000000
0000000000
0000000000
0000000000
0000000000
0000000000
0000000000
0000000000
0000FF8000
000FFFF000
007FFFFC00
01FFFFFF00
07FFFFFF80
1FFFFFFF80
3FFFFFFFC0
1FFC00FFE0
1FE0007FE0
0F80001FF0
0600001FF0
0000000FF0
0000000FF0
0000000FF8
00000007F8
00000007F8
00000007F8
00000007F8
0000000FF8
000007FFF8
0000FFFFF8
0007FFFFF8
003FFFFFF8
00FFFFFFF8
03FFFC07F8
07FFC007F8
0FFE0007F8
1FF80007F8
3FE00007F8
3FC00007F8
7F800007F8
7F800007F8
FF000007F8
FF000007F8
FF000007F8
FF000007F8
FF000007F8
FF00000FF8
FF80001FF8
FF80007FF8
7FC000FFF8
7FE003FFF8
3FFF7FFBF8
3FFFFFF3F8
1FFFFFC3F8
0FFFFF83F8
07FFFE03F8
01FFF803F8
003FC00000
ENDCHAR
STARTCHAR 00E1
ENCODING 225
SWIDTH 504 0
DWIDTH 49 0
BBX 37 76 5 0
BITMAP
0000000C00
0000001E00
0000003F00
0000007F80
0000007FC0
000000FFC0
000001FF80
000003FF00
000007FE00
00000FFC00
00000FF800
00001FF000
00003FE000
00007FC000
0000FF8000
0001FF0000
0000FE0000
0000780000
0000300000
0000000000
0000000000
0000000000
0000000000
0000000000
0000000000
0000000000
0000000000
0000FF8000
000FFFF000
007FFFFC00
01FFFFFF00
07FFFFFF80
1FFFFFFF80
3FFFFFFFC0
1FFC00FFE0
1FE0007FE0
0F80001FF0
0600001FF0
0000000FF0
0000000FF0
0000000FF8
00000007F8
00000007F8
00000007F8
00000007F8
0000000FF8
000007FFF8
0000FFFFF8
0007FFFFF8
003FFFFFF8
00FFFFFFF8
03FFFC07F8
07FFC007F8
0FFE0007F8
1FF80007F8
3FE00007F8
3FC00007F8
7F800007F8
7F800007F8
FF000007F8
FF000007F8
FF000007F8
FF000007F8
FF000007F8
FF00000FF8
FF80001FF8
FF80007FF8
7FC000FFF8
7FE003FFF8
3FFF7FFBF8
3FFFFFF3F8
1FFFFFC3F8
0FFFFF83F8
07FFFE03F8
01FFF803F8
003FC00000
ENDCHAR
STARTCHAR 00E2
ENCODING 226
SWIDTH 504 0
DWIDTH 49 0
BBX 37 73 5 -1
BITMAP
0000FF8000
0000FFC000
0001FFC000
0003FFE000
0007FFF000
000FFFF800
000FF7FC00
001FE3FC00
003FC1FE00
007F80FF00
00FF007F80
01FE003FC0
01FC001FC0
03F8000FE0
03F00007E0
01E00001C0
00C0000080
0000000000
0000000000
0000000000
0000000000
0000000000
0000000000
0000000000
0000FF8000
000FFFF000
007FFFFC00
01FFFFFF00
07FFFFFF80
1FFFFFFF80
3FFFFFFFC0
1FFC00FFE0
1FE0007FE0
0F80001FF0
0600001FF0
0000000FF0
0000000FF0
0000000FF8
00000007F8
00000007F8
00000007F8
00000007F8
0000000FF8
000007FFF8
0000FFFFF8
0007FFFFF8
003FFFFFF8
00FFFFFFF8
03FFFC07F8
07FFC007F8
0FFE0007F8
1FF80007F8
3FE00007F8
3FC00007F8
7F800007F8
7F800007F8
FF000007F8
FF000007F8
FF000007F8
FF000007F8
FF000007F8
FF00000FF8
FF80001FF8
FF80007FF8
7FC000FFF8
7FE003FFF8
3FFF7FFBF8
3FFFFFF3F8
1FFFFFC3F8
0FFFFF83F8
07FFFE03F8
01FFF803F8
003FC00000
ENDCHAR
STARTCHAR 00E3
ENCODING 227
SWIDTH 504 0
DWIDTH 49 0
BBX 37 71 5 -1
BITMAP
003F8000E0
00FFE000F8
01FFF000F8
03FFF800F8
03FFFC01F8
07FFFE01F8
07F0FF03F8
07E07F83F0
0FC03FFFF0
0FC01FFFE0
0FC00FFFE0
0F8007FFC0
0F8001FF80
0380007E00
0000000000
0000000000
0000000000
0000000000
0000000000
0000000000
0000000000
0000000000
0000FF8000
000FFFF000
007FFFFC00
01FFFFFF00
07FFFFFF80
1FFFFFFF80
3FFFFFFFC0
1FFC00FFE0
1FE0007FE0
0F80001FF0
0600001FF0
0000000FF0
0000000FF0
0000000FF8
00000007F8
00000007F8
00000007F8
00000007F8
0000000FF8
000007FFF8
0000FFFFF8
0007FFFFF8
003FFFFFF8
00FFFFFFF8
03FFFC07F8
07FFC007F8
0FFE0007F8
1FF80007F8
3FE00007F8
3FC00007F8
7F800007F8
7F800007F8
FF000007F8
FF000007F8
FF000007F8
FF000007F8
FF000007F8
FF00000FF8
FF80001FF8
FF80007FF8
7FC000FFF8
7FE003FFF8
3FFF7FFBF8
3FFFFFF3F8
1FFFFFC3F8
0FFFFF83F8
07FFFE03F8
01FFF803F8
003FC00000
ENDCHAR
STARTCHAR 00E4
ENCODING 228
SWIDTH 504 0
DWIDTH 49 0
BBX 37 68 5 -1
BITMAP
0030000600
00FC001F80
01FE003FC0
01FF007FE0
03FF007FE0
03FF007FE0
01FF007FE0
01FE003FC0
00FE003F80
0078000F00
0000000000
0000000000
0000000000
0000000000
0000000000
0000000000
0000000000
0000000000
0000000000
0000FF8000
000FFFF000
007FFFFC00
01FFFFFF00
07FFFFFF80
1FFFFFFF80
3FFFFFFFC0
1FFC00FFE0
1FE0007FE0
0F80001FF0
0600001FF0
0000000FF0
0000000FF0
0000000FF8
00000007F8
00000007F8
00000007F8
00000007F8
0000000FF8
000007FFF8
0000FFFFF8
0007FFFFF8
003FFFFFF8
00FFFFFFF8
03FFFC07F8
07FFC007F8
0FFE0007F8
1FF80007F8
3FE00007F8
3FC00007F8
7F800007F8
7F800007F8
FF000007F8
FF000007F8
FF000007F8
FF000007F8
FF000007F8
FF00000FF8
FF80001FF8
FF80007FF8
7FC000FFF8
7FE003FFF8
3FFF7FFBF8
3FFFFFF3F8
1FFFFFC3F8
0FFFFF83F8
07FFFE03F8
01FFF803F8
003FC00000
ENDCHAR
STARTCHAR 00E5
ENCODING 229
SWIDTH 504 0
DWIDTH 49 0
BBX 37 74 5 -1
BITMAP
00001C0000
0001FFC000
0003FFF000
000FFFF800
000FC1FC00
001F80FC00
001F007E00
003E003E00
003E003E00
003E003E00
003E003E00
003E003E00
003E003E00
003F007E00
001F80FC00
000FC1FC00
000FFFF800
0007FFF000
0001FFC000
00001C0000
0000000000
0000000000
0000000000
0000000000
0000000000
0000FF8000
000FFFF000
007FFFFC00
01FFFFFF00
07FFFFFF80
1FFFFFFF80
3FFFFFFFC0
1FFC00FFE0
1FE0007FE0
0F80001FF0
0600001FF0
0000000FF0
0000000FF0
0000000FF8
00000007F8
00000007F8
00000007F8
00000007F8
0000000FF8
000007FFF8
0000FFFFF8
0007FFFFF8
003FFFFFF8
00FFFFFFF8
03FFFC07F8
07FFC007F8
0FFE0007F8
1FF80007F8
3FE00007F8
3FC00007F8
7F800007F8
7F800007F8
FF000007F8
FF000007F8
FF000007F8
FF000007F8
FF000007F8
FF00000FF8
FF80001FF8
FF80007FF8
7FC000FFF8
7FE003FFF8
3FFF7FFBF8
3FFFFFF3F8
1FFFFFC3F8
0FFFFF83F8
07FFFE03F8
01FFF803F8
003FC00000
ENDCHAR
STARTCHAR 00E6
ENCODING 230
SWIDTH 781 0
DWIDTH 76 0
BBX 67 49 6 -1
BITMAP
0001FF000007F80000
001FFFC0003FFF0000
007FFFF000FFFFC000
03FFFFF801FFFFF000
0FFFFFFC03FFFFF800
1FFFFFFE07FFFFFC00
3FFFFFFF0FFE3FFC00
3FF801FF1FF003FE00
1FC0007FBFC001FF00
0F00003FFF8000FF00
0E00001FFF00007F80
0000001FFE00003F80
0000001FFC00003F80
0000000FFC00001FC0
0000000FF800001FC0
0000000FF800001FC0
0000000FF800001FC0
0000000FF000001FC0
0000003FF000000FE0
00000FFFF000000FE0
0001FFFFF000000FE0
000FFFFFFFFFFFFFE0
007FFFFFFFFFFFFFE0
01FFFFEFFFFFFFFFE0
03FFF80FFFFFFFFFE0
0FFF800FFFFFFFFFC0
1FFE000FF000000000
3FF8000FF000000000
3FE0000FF000000000
7FC00007F000000000
7F800007F000000000
FF000007F800000000
FF000007F800000000
FF000007F800000000
FF000003FC00000000
FF000003FC00000000
FF000007FE00000000
FF00000FFF00000000
FF00001FFF80000000
FF80007FFFC0000400
FFC001FF7FE0001E00
7FE007FE3FF800FE00
7FFEFFFC1FFFFFFF00
3FFFFFF80FFFFFFF00
1FFFFFE007FFFFFF00
0FFFFF8003FFFFFC00
07FFFE0000FFFFF000
01FFF800003FFFC000
007FC0000007FC0000
ENDCHAR
STARTCHAR 00E7
ENCODING 231
SWIDTH 452 0
DWIDTH 44 0
BBX 38 70 4 -22
BITMAP
00003FF000
0001FFFE00
0007FFFF80
001FFFFFE0
003FFFFFF0
00FFFFFFF8
01FFFFFFF0
03FFE00FE0
03FF8003E0
07FE0001C0
0FFC000000
0FF8000000
1FF0000000
1FF0000000
3FE0000000
3FE0000000
3FC0000000
7FC0000000
7FC0000000
7F80000000
7F80000000
7F80000000
7F80000000
7F80000000
FF80000000
FF80000000
7F80000000
7F80000000
7F80000000
7F80000000
7F80000000
7FC0000000
7FC0000000
3FC0000000
3FE0000000
3FE0000000
1FF0000000
1FF8000000
0FFC000020
0FFE0000F0
07FF0001F0
03FFC007F8
01FFFFFFFC
00FFFFFFF8
007FFFFFF0
003FFFFFE0
000FFFFF80
0003FFFE00
00007FE000
00000F8000
00001F0000
00001F0000
00003F0000
00003E0000
00007F0000
00007FE000
0000FFF000
000007F800
000001FC00
000001FC00
000000FC00
000000FC00
000000FC00
000001FC00
000007F800
00003FF000
0007FFE000
0007FFC000
0003FE0000
0003C00000
ENDCHAR
STARTCHAR 00E8
ENCODING 232
SWIDTH 493 0
DWIDTH 48 0
BBX 41 76 4 0
BITMAP
000C00000000
001E00000000
003F00000000
007F80000000
00FFC0000000
00FFC0000000
007FE0000000
003FF0000000
001FF8000000
0007FC000000
0003FE000000
0001FF000000
0000FF000000
00007F800000
00003FC00000
00001FE00000
00000FC00000
000007800000
000003000000
000000000000
000000000000
000000000000
000000000000
000000000000
000000000000
000000000000
000000000000
00007FC00000
0003FFFC0000
000FFFFF0000
001FFFFF8000
007FFFFFC000
00FFFFFFE000
01FFF0FFF000
03FF801FF800
03FE0007F800
07FC0003FC00
0FF80001FC00
0FF00001FE00
1FE00000FE00
1FC00000FE00
3FC000007F00
3FC000007F00
3F8000007F00
7F8000007F00
7F8000007F00
7F0000007F00
7F0000003F80
7FFFFFFFFF80
7FFFFFFFFF80
7FFFFFFFFF80
FFFFFFFFFF00
FFFFFFFFFF00
7FFFFFFFFF00
7F0000000000
7F8000000000
7F8000000000
7F8000000000
7F8000000000
7FC000000000
3FC000000000
3FC000000000
3FE000000000
1FF000000000
1FF000000000
0FF800000000
07FE00001000
07FF00007800
03FFC001F800
01FFFE7FFC00
00FFFFFFFC00
007FFFFFFC00
001FFFFFF000
000FFFFFC000
0001FFFF0000
00003FF00000
ENDCHAR
STARTCHAR 00E9
ENCODING 233
SWIDTH 493 0
DWIDTH 48 0
BBX 41 76 4 0
BITMAP
000000060000
0000000F0000
0000001F8000
0000001FC000
0000003FE000
0000007FE000
000000FFC000
000001FF8000
000003FF0000
000007FE0000
000007FC0000
00000FF80000
00001FF00000
00003FE00000
00007FC00000
0000FF800000
00007F000000
00003E000000
00001C000000
000008000000
000000000000
000000000000
000000000000
000000000000
000000000000
000000000000
000000000000
00007FC00000
0003FFFC0000
000FFFFF0000
001FFFFF8000
007FFFFFC000
00FFFFFFE000
01FFF0FFF000
03FF801FF800
03FE0007F800
07FC0003FC00
0FF80001FC00
0FF00001FE00
1FE00000FE00
1FC00000FE00
3FC000007F00
3FC000007F00
3F8000007F00
7F8000007F00
7F8000007F00
7F0000007F00
7F0000003F80
7FFFFFFFFF80
7FFFFFFFFF80
7FFFFFFFFF80
FFFFFFFFFF00
FFFFFFFFFF00
7FFFFFFFFF00
7F0000000000
7F8000000000
7F8000000000
7F8000000000
7F8000000000
7FC000000000
3FC000000000
3FC000000000
3FE000000000
1FF000000000
1FF000000000
0FF800000000
07FE00001000
07FF00007800
03FFC001F800
01FFFE7FFC00
00FFFFFFFC00
007FFFFFFC00
001FFFFFF000
000FFFFFC000
0001FFFF0000
00003FF00000
ENDCHAR
STARTCHAR 00EA
ENCODING 234
SWIDTH 493 0
DWIDTH 48 0
BBX 41 73 4 -1
BITMAP
00007FC00000
00007FE00000
0000FFE00000
0001FFF00000
0003FFF80000
0007FFFC0000
0007FBFE0000
000FF1FF0000
001FE0FF0000
003FC07F8000
007F803FC000
007F000FE000
00FE0007F000
01FC0003F000
01F80001F000
00F00000E000
006000004000
000000000000
000000000000
000000000000
000000000000
000000000000
000000000000
000000000000
00007FC00000
0003FFFC0000
000FFFFF0000
001FFFFF8000
007FFFFFC000
00FFFFFFE000
01FFF0FFF000
03FF801FF800
03FE0007F800
07FC0003FC00
0FF80001FC00
0FF00001FE00
1FE00000FE00
1FC00000FE00
3FC000007F00
3FC000007F00
3F8000007F00
7F8000007F00
7F8000007F00
7F0000007F00
7F0000003F80
7FFFFFFFFF80
7FFFFFFFFF80
7FFFFFFFFF80
FFFFFFFFFF00
FFFFFFFFFF00
7FFFFFFFFF00
7F0000000000
7F8000000000
7F8000000000
7F8000000000
7F8000000000
7FC000000000
3FC000000000
3FC000000000
3FE000000000
1FF000000000
1FF000000000
0FF800000000
07FE00001000
07FF00007800
03FFC001F800
01FFFE7FFC00
00FFFFFFFC00
007FFFFFFC00
001FFFFFF000
000FFFFFC000
0001FFFF0000
00003FF00000
ENDCHAR
STARTCHAR 00EB
ENCODING 235
SWIDTH 493 0
DWIDTH 48 0
BBX 41 68 4 -1
BITMAP
001C00030000
007F000FC000
00FF001FE000
00FF801FF000
00FF803FF000
01FF803FF000
00FF803FF000
00FF801FE000
007F001FE000
003C00078000
000000000000
000000000000
000000000000
000000000000
000000000000
000000000000
000000000000
000000000000
000000000000
00007FC00000
0003FFFC0000
000FFFFF0000
001FFFFF8000
007FFFFFC000
00FFFFFFE000
01FFF0FFF000
03FF801FF800
03FE0007F800
07FC0003FC00
0FF80001FC00
0FF00001FE00
1FE00000FE00
1FC00000FE00
3FC000007F00
3FC000007F00
3F8000007F00
7F8000007F00
7F8000007F00
7F0000007F00
7F0000003F80
7FFFFFFFFF80
7FFFFFFFFF80
7FFFFFFFFF80
FFFFFFFFFF00
FFFFFFFFFF00
7FFFFFFFFF00
7F0000000000
7F8000000000
7F8000000000
7F8000000000
7F8000000000
7FC000000000
3FC000000000
3FC000000000
3FE000000000
1FF000000000
1FF000000000
0FF800000000
07FE00001000
07FF00007800
03FFC001F800
01FFFE7FFC00
00FFFFFFFC00
007FFFFFFC00
001FFFFFF000
000FFFFFC000
0001FFFF0000
00003FF00000
ENDCHAR
STARTCHAR 00EC
ENCODING 236
SWIDTH 246 0
DWIDTH 24 0
BBX 19 76 -2 0
BITMAP
040000
0E0000
1F0000
3F0000
7F8000
FFC000
7FE000
3FF000
1FF800
0FF800
07FC00
03FE00
01FF00
00FF80
007FC0
003FE0
001FE0
000FC0
000780
000300
000000
000000
000000
000000
000000
000000
000000
000000
000000
003FC0
003FC0
003FC0
003FC0
003FC0
003FC0
003FC0
003FC0
003FC0
003FC0
003FC0
003FC0
003FC0
003FC0
003FC0
003FC0
003FC0
003FC0
003FC0
003FC0
003FC0
003FC0
003FC0
003FC0
003FC0
003FC0
003FC0
003FC0
003FC0
003FC0
003FC0
003FC0
003FC0
003FC0
003FC0
003FC0
003FC0
003FC0
003FC0
003FC0
003FC0
003FC0
003FC0
003FC0
003FC0
003FC0
003FC0
ENDCHAR
STARTCHAR 00ED
ENCODING 237
SWIDTH 246 0
DWIDTH 24 0
BBX 19 75 7 1
BITMAP
000C00
001F00
001F80
003FC0
007FE0
00FFC0
01FF80
03FF00
07FE00
07FC00
0FF800
1FF000
3FE000
7FC000
FF8000
FF0000
FE0000
7C0000
180000
000000
000000
000000
000000
000000
000000
000000
000000
000000
7F8000
7F8000
7F8000
7F8000
7F8000
7F8000
7F8000
7F8000
7F8000
7F8000
7F8000
7F8000
7F8000
7F8000
7F8000
7F8000
7F8000
7F8000
7F8000
7F8000
7F8000
7F8000
7F8000
7F8000
7F8000
7F8000
7F8000
7F8000
7F8000
7F8000
7F8000
7F8000
7F8000
7F8000
7F8000
7F8000
7F8000
7F8000
7F8000
7F8000
7F8000
7F8000
7F8000
7F8000
7F8000
7F8000
7F8000
ENDCHAR
STARTCHAR 00EE
ENCODING 238
SWIDTH 246 0
DWIDTH 24 0
BBX 30 72 -3 0
BITMAP
001FE000
003FF000
007FF800
00FFFC00
00FFFC00
01FFFE00
03FCFF00
07F87F80
0FF03FC0
1FE01FC0
1FC00FE0
3F8007F0
7F0003F8
FE0001FC
7C0000F8
38000070
10000020
00000000
00000000
00000000
00000000
00000000
00000000
00000000
00000000
001FE000
001FE000
001FE000
001FE000
001FE000
001FE000
001FE000
001FE000
001FE000
001FE000
001FE000
001FE000
001FE000
001FE000
001FE000
001FE000
001FE000
001FE000
001FE000
001FE000
001FE000
001FE000
001FE000
001FE000
001FE000
001FE000
001FE000
001FE000
001FE000
001FE000
001FE000
001FE000
001FE000
001FE000
001FE000
001FE000
001FE000
001FE000
001FE000
001FE000
001FE000
001FE000
001FE000
001FE000
001FE000
001FE000
001FE000
ENDCHAR
STARTCHAR 00EF
ENCODING 239
SWIDTH 246 0
DWIDTH 24 0
BBX 28 67 -2 0
BITMAP
0C000300
7F000FE0
7F801FE0
FF801FF0
FF801FF0
FF801FF0
FF801FF0
FF801FF0
7F000FE0
3E000780
00000000
00000000
00000000
00000000
00000000
00000000
00000000
00000000
00000000
00000000
003FC000
003FC000
003FC000
003FC000
003FC000
003FC000
003FC000
003FC000
003FC000
003FC000
003FC000
003FC000
003FC000
003FC000
003FC000
003FC000
003FC000
003FC000
003FC000
003FC000
003FC000
003FC000
003FC000
003FC000
003FC000
003FC000
003FC000
003FC000
003FC000
003FC000
003FC000
003FC000
003FC000
003FC000
003FC000
003FC000
003FC000
003FC000
003FC000
003FC000
003FC000
003FC000
003FC000
003FC000
003FC000
003FC000
003FC000
ENDCHAR
STARTCHAR 00F0
ENCODING 240
SWIDTH 545 0
DWIDTH 53 0
BBX 42 71 5 0
BITMAP
001C00000000
003F00000200
003FC0000F00
007FE0003F80
007FF800FF80
003FFC03FF00
000FFE0FFE00
0003FF9FF800
0001FFFFE000
00007FFF8000
00003FFE0000
00001FF80000
00007FFC0000
0001FFFE0000
0007FFFF0000
001FF8FF8000
007FE07F8000
01FF803FC000
01FE003FE000
00F8001FE000
00E0000FF000
0000000FF800
00000007F800
00000003FC00
00000003FC00
00000001FC00
00000001FE00
0001FF81FE00
000FFFF0FF00
003FFFF8FF00
007FFFFE7F00
01FFFFFF7F80
03FFFFFFFF80
07FF807FFF80
07FE000FFF80
0FF80003FF80
1FF00001FFC0
1FE00000FFC0
3FE000007FC0
3FC000003FC0
7F8000003FC0
7F8000003FC0
7F8000003FC0
7F0000003FC0
FF0000003FC0
FF0000003FC0
FF0000003FC0
FF0000003FC0
FF0000003FC0
FF0000003FC0
FF0000003FC0
FF0000003FC0
FF0000003F80
7F0000003F80
7F8000007F80
7F8000007F80
7FC000007F00
3FC00000FF00
3FE00000FF00
1FE00001FE00
1FF00003FE00
0FF80007FC00
0FFE000FF800
07FF803FF800
03FFFFFFF000
01FFFFFFE000
00FFFFFFC000
003FFFFF0000
001FFFFE0000
0007FFF80000
00007FC00000
ENDCHAR
STARTCHAR 00F1
ENCODING 241
SWIDTH 545 0
DWIDTH 53 0
BBX 38 70 8 0
BITMAP
003F8000E0
00FFE000F8
01FFF000F8
03FFF801F8
03FFFC01F8
07FFFE01F8
07E0FF03F0
0FE07F87F0
0FC03FFFF0
0FC01FFFE0
0F800FFFE0
0F8007FFC0
0F8001FF80
0380007C00
0000000000
0000000000
0000000000
0000000000
0000000000
0000000000
0000000000
0000000000
00001FF000
FE00FFFE00
FE03FFFF00
FE07FFFF80
FE0FFFFFC0
FE3FFFFFE0
FE7FFFFFF0
FEFF80FFF0
FFFE003FF0
FFF8001FF8
FFF0000FF8
FFE00007F8
FFC00007F8
FF800007FC
FF000007FC
FF000003FC
FF000003FC
FF000003FC
FF000003FC
FF000003FC
FF000003FC
FF000003FC
FF000003FC
FF000003FC
FF000003FC
FF000003FC
FF000003FC
FF000003FC
FF000003FC
FF000003FC
FF000003FC
FF000003FC
FF000003FC
FF000003FC
FF000003FC
FF000003FC
FF000003FC
FF000003FC
FF000003FC
FF000003FC
FF000003FC
FF000003FC
FF000003FC
FF000003FC
FF000003FC
FF000003FC
FF000003FC
FF000003FC
ENDCHAR
STARTCHAR 00F2
ENCODING 242
SWIDTH 545 0
DWIDTH 53 0
BBX 44 76 4 0
BITMAP
000600000000
000F00000000
001F80000000
003F80000000
007FC0000000
007FE0000000
003FF0000000
001FF8000000
000FFC000000
0007FE000000
0003FE000000
0001FF000000
0000FF800000
00007FC00000
00003FE00000
00001FF00000
00000FE00000
000007C00000
000003800000
000001000000
000000000000
000000000000
000000000000
000000000000
000000000000
000000000000
000000000000
00003FE00000
0003FFFC0000
000FFFFF8000
001FFFFFC000
007FFFFFF000
00FFFFFFF800
01FFFFFFFC00
03FFC01FFE00
07FF0007FE00
07FC0003FF00
0FF80001FF80
0FF80000FF80
1FF000007FC0
1FE000007FC0
3FE000003FE0
3FC000003FE0
3FC000001FE0
7FC000001FE0
7F8000001FF0
7F8000000FF0
7F8000000FF0
7F8000000FF0
7F8000000FF0
7F8000000FF0
FF8000000FF0
FF8000000FF0
7F8000000FF0
7F8000000FF0
7F8000000FF0
7F8000000FF0
7F8000001FF0
7FC000001FE0
7FC000001FE0
3FC000003FE0
3FE000003FE0
1FE000003FC0
1FF000007FC0
1FF80000FF80
0FF80001FF80
07FC0003FF00
07FF0007FE00
03FFC01FFE00
01FFFFFFFC00
00FFFFFFF800
007FFFFFE000
001FFFFFC000
000FFFFF0000
0003FFFC0000
00003FE00000
ENDCHAR
STARTCHAR 00F3
ENCODING 243
SWIDTH 545 0
DWIDTH 53 0
BBX 44 76 4 0
BITMAP
000000030000
000000078000
0000000FC000
0000001FE000
0000003FF000
0000003FF000
0000007FE000
000000FFC000
000001FF0000
000003FE0000
000007FC0000
00000FF80000
00000FF00000
00001FE00000
00003FC00000
00007F800000
00003F000000
00001E000000
00000C000000
000000000000
000000000000
000000000000
000000000000
000000000000
000000000000
000000000000
000000000000
00003FE00000
0003FFFC0000
000FFFFF8000
001FFFFFC000
007FFFFFF000
00FFFFFFF800
01FFFFFFFC00
03FFC01FFE00
07FF0007FE00
07FC0003FF00
0FF80001FF80
0FF80000FF80
1FF000007FC0
1FE000007FC0
3FE000003FE0
3FC000003FE0
3FC000001FE0
7FC000001FE0
7F8000001FF0
7F8000000FF0
7F8000000FF0
7F8000000FF0
7F8000000FF0
7F8000000FF0
FF8000000FF0
FF8000000FF0
7F8000000FF0
7F8000000FF0
7F8000000FF0
7F8000000FF0
7F8000001FF0
7FC000001FE0
7FC000001FE0
3FC000003FE0
3FE000003FE0
1FE000003FC0
1FF000007FC0
1FF80000FF80
0FF80001FF80
07FC0003FF00
07FF0007FE00
03FFC01FFE00
01FFFFFFFC00
00FFFFFFF800
007FFFFFE000
001FFFFFC000
000FFFFF0000
0003FFFC0000
00003FE00000
ENDCHAR
STARTCHAR 00F4
ENCODING 244
SWIDTH 545 0
DWIDTH 53 0
BBX 44 73 4 -1
BITMAP
00003FE00000
00007FE00000
00007FF00000
0000FFF80000
0001FFFC0000
0003FFFE0000
0007FDFE0000
000FF8FF0000
000FF07F8000
001FE03FC000
003F801FE000
007F000FE000
00FE0007F000
00FC0003F800
00F80001F800
00700000F000
002000006000
000000000000
000000000000
000000000000
000000000000
000000000000
000000000000
000000000000
00003FE00000
0003FFFC0000
000FFFFF8000
001FFFFFC000
007FFFFFF000
00FFFFFFF800
01FFFFFFFC00
03FFC01FFE00
07FF0007FE00
07FC0003FF00
0FF80001FF80
0FF80000FF80
1FF000007FC0
1FE000007FC0
3FE000003FE0
3FC000003FE0
3FC000001FE0
7FC000001FE0
7F8000001FF0
7F8000000FF0
7F8000000FF0
7F8000000FF0
7F8000000FF0
7F8000000FF0
FF8000000FF0
FF8000000FF0
7F8000000FF0
7F8000000FF0
7F8000000FF0
7F8000000FF0
7F8000001FF0
7FC000001FE0
7FC000001FE0
3FC000003FE0
3FE000003FE0
1FE000003FC0
1FF000007FC0
1FF80000FF80
0FF80001FF80
07FC0003FF00
07FF0007FE00
03FFC01FFE00
01FFFFFFFC00
00FFFFFFF800
007FFFFFE000
001FFFFFC000
000FFFFF0000
0003FFFC0000
00003FE00000
ENDCHAR
STARTCHAR 00F5
ENCODING 245
SWIDTH 545 0
DWIDTH 53 0
BBX 44 71 4 -1
BITMAP
000FE0003000
003FF8003E00
007FFC003E00
00FFFE007E00
00FFFF007E00
01FFFF807E00
01F83FC0FC00
03F81FE1FC00
03F00FFFFC00
03F007FFF800
03E003FFF000
03E001FFF000
03E0007FC000
00E0001F0000
000000000000
000000000000
000000000000
000000000000
000000000000
000000000000
000000000000
000000000000
00003FE00000
0003FFFC0000
000FFFFF8000
001FFFFFC000
007FFFFFF000
00FFFFFFF800
01FFFFFFFC00
03FFC01FFE00
07FF0007FE00
07FC0003FF00
0FF80001FF80
0FF80000FF80
1FF000007FC0
1FE000007FC0
3FE000003FE0
3FC000003FE0
3FC000001FE0
7FC000001FE0
7F8000001FF0
7F8000000FF0
7F8000000FF0
7F8000000FF0
7F8000000FF0
7F8000000FF0
FF8000000FF0
FF8000000FF0
7F8000000FF0
7F8000000FF0
7F8000000FF0
7F8000000FF0
7F8000001FF0
7FC000001FE0
7FC000001FE0
3FC000003FE0
3FE000003FE0
1FE000003FC0
1FF000007FC0
1FF80000FF80
0FF80001FF80
07FC0003FF00
07FF0007FE00
03FFC01FFE00
01FFFFFFFC00
00FFFFFFF800
007FFFFFE000
001FFFFFC000
000FFFFF0000
0003FFFC0000
00003FE00000
ENDCHAR
STARTCHAR 00F6
ENCODING 246
SWIDTH 545 0
DWIDTH 53 0
BBX 44 68 4 -1
BITMAP
000C00018000
003F0007E000
007F800FF000
00FFC01FF000
00FFC01FF800
00FFC01FF800
00FFC01FF000
007F801FF000
007F800FE000
001E0003C000
000000000000
000000000000
000000000000
000000000000
000000000000
000000000000
000000000000
000000000000
000000000000
00003FE00000
0003FFFC0000
000FFFFF8000
001FFFFFC000
007FFFFFF000
00FFFFFFF800
01FFFFFFFC00
03FFC01FFE00
07FF0007FE00
07FC0003FF00
0FF80001FF80
0FF80000FF80
1FF000007FC0
1FE000007FC0
3FE000003FE0
3FC000003FE0
3FC000001FE0
7FC000001FE0
7F8000001FF0
7F8000000FF0
7F8000000FF0
7F8000000FF0
7F8000000FF0
7F8000000FF0
FF8000000FF0
FF8000000FF0
7F8000000FF0
7F8000000FF0
7F8000000FF0
7F8000000FF0
7F8000001FF0
7FC000001FE0
7FC000001FE0
3FC000003FE0
3FE000003FE0
1FE000003FC0
1FF000007FC0
1FF80000FF80
0FF80001FF80
07FC0003FF00
07FF0007FE00
03FFC01FFE00
01FFFFFFFC00
00FFFFFFF800
007FFFFFE000
001FFFFFC000
000FFFFF0000
0003FFFC0000
00003FE00000
ENDCHAR
STARTCHAR 00F7
ENCODING 247
SWIDTH 493 0
DWIDTH 48 0
BBX 42 45 3 10
BITMAP
00001F000000
00007F800000
00007FC00000
0000FFC00000
0000FFC00000
0000FFC00000
0000FFC00000
0000FFC00000
00007F800000
00003F000000
000000000000
000000000000
000000000000
000000000000
000000000000
000000000000
000000000000
000000000000
000000000000
000000000000
FFFFFFFFFFC0
FFFFFFFFFFC0
FFFFFFFFFFC0
FFFFFFFFFFC0
FFFFFFFFFFC0
FFFFFFFFFFC0
000000000000
000000000000
000000000000
000000000000
000000000000
000000000000
000000000000
000000000000
000000000000
00001F000000
00007F800000
00007FC00000
0000FFC00000
0000FFC00000
0000FFC00000
0000FFC00000
0000FFC00000
00007F800000
00003F000000
ENDCHAR
STARTCHAR 00F8
ENCODING 248
SWIDTH 545 0
DWIDTH 53 0
BBX 44 51 4 -2
BITMAP
000000000080
00003FE001E0
0001FFFC01F0
000FFFFF03F0
001FFFFFC7E0
007FFFFFEFC0
00FFFFFFFF80
01FFFDFFFF00
03FF801FFE00
07FE0007FE00
07FC0001FF00
0FF80001FF80
0FF00003FF80
1FF00007FFC0
1FE00007FFC0
3FC0000FFFE0
3FC0001F9FE0
3FC0003F1FE0
7F80007E1FE0
7F8000FC0FF0
7F8000F80FF0
7F8001F80FF0
7F0003F00FF0
7F0007E00FF0
7F000FC00FF0
FF001F800FF0
FF001F000FF0
7F003F000FF0
7F807E000FF0
7F80FC000FF0
7F81F8000FF0
7F83F0000FF0
7F83E0001FE0
7FC7E0001FE0
3FCFC0001FE0
3FDF80003FE0
3FFF00003FC0
1FFE00007FC0
1FFC00007F80
0FFC0000FF80
07FC0001FF00
07FE0007FE00
07FF800FFE00
07FFF9FFFC00
0FFFFFFFF800
1FFFFFFFE000
3F1FFFFFC000
7E0FFFFF0000
7C03FFFC0000
38003FE00000
180000000000
ENDCHAR
STARTCHAR 00F9
ENCODING 249
SWIDTH 545 0
DWIDTH 53 0
BBX 38 76 7 0
BITMAP
0030000000
0078000000
00FC000000
01FE000000
03FF000000
03FF000000
01FF800000
00FFC00000
007FE00000
003FF00000
001FF80000
0007F80000
0003FC0000
0001FE0000
0000FF0000
00007F8000
00003F0000
00001E0000
00000C0000
0000000000
0000000000
0000000000
0000000000
0000000000
0000000000
0000000000
0000000000
0000000000
FF000003FC
FF000003FC
FF000003FC
FF000003FC
FF000003FC
FF000003FC
FF000003FC
FF000003FC
FF000003FC
FF000003FC
FF000003FC
FF000003FC
FF000003FC
FF000003FC
FF000003FC
FF000003FC
FF000003FC
FF000003FC
FF000003FC
FF000003FC
FF000003FC
FF000003FC
FF000003FC
FF000003FC
FF000003FC
FF000003FC
FF000003FC
FF000003FC
FF000003FC
FF000003FC
FF000003FC
FF800003FC
FF800003FC
FF800003FC
7F800007FC
7F80000FFC
7FC0001FFC
7FC0003FFC
7FE0007FFC
3FF001FDFC
3FFC07F9FC
1FFFFFF1FC
1FFFFFE1FC
0FFFFFC1FC
07FFFF81FC
03FFFF01FC
00FFFC01FC
003FE00000
ENDCHAR
STARTCHAR 00FA
ENCODING 250
SWIDTH 545 0
DWIDTH 53 0
BBX 38 76 7 0
BITMAP
0000001800
0000003C00
0000007E00
000000FF00
000001FF80
000003FF00
000003FE00
000007FC00
00000FF800
00001FF000
00003FE000
00007FC000
00007F8000
0000FF0000
0001FE0000
0003FC0000
0001F80000
0000F00000
0000600000
0000000000
0000000000
0000000000
0000000000
0000000000
0000000000
0000000000
0000000000
0000000000
FF000003FC
FF000003FC
FF000003FC
FF000003FC
FF000003FC
FF000003FC
FF000003FC
FF000003FC
FF000003FC
FF000003FC
FF000003FC
FF000003FC
FF000003FC
FF000003FC
FF000003FC
FF000003FC
FF000003FC
FF000003FC
FF000003FC
FF000003FC
FF000003FC
FF000003FC
FF000003FC
FF000003FC
FF000003FC
FF000003FC
FF000003FC
FF000003FC
FF000003FC
FF000003FC
FF000003FC
FF800003FC
FF800003FC
FF800003FC
7F800007FC
7F80000FFC
7FC0001FFC
7FC0003FFC
7FE0007FFC
3FF001FDFC
3FFC07F9FC
1FFFFFF1FC
1FFFFFE1FC
0FFFFFC1FC
07FFFF81FC
03FFFF01FC
00FFFC01FC
003FE00000
ENDCHAR
STARTCHAR 00FB
ENCODING 251
SWIDTH 545 0
DWIDTH 53 0
BBX 38 73 7 -1
BITMAP
0001FF0000
0003FF0000
0003FF8000
0007FFC000
000FFFE000
001FFFF000
003FEFF800
003FC7F800
007F83FC00
00FF01FE00
01FE00FF00
03FC007F80
03F0003F80
07E0001FC0
07C0000FC0
0380000780
0100000100
0000000000
0000000000
0000000000
0000000000
0000000000
0000000000
0000000000
0000000000
FF000003FC
FF000003FC
FF000003FC
FF000003FC
FF000003FC
FF000003FC
FF000003FC
FF000003FC
FF000003FC
FF000003FC
FF000003FC
FF000003FC
FF000003FC
FF000003FC
FF000003FC
FF000003FC
FF000003FC
FF000003FC
FF000003FC
FF000003FC
FF000003FC
FF000003FC
FF000003FC
FF000003FC
FF000003FC
FF000003FC
FF000003FC
FF000003FC
FF000003FC
FF000003FC
FF000003FC
FF800003FC
FF800003FC
FF800003FC
7F800007FC
7F80000FFC
7FC0001FFC
7FC0003FFC
7FE0007FFC
3FF001FDFC
3FFC07F9FC
1FFFFFF1FC
1FFFFFE1FC
0FFFFFC1FC
07FFFF81FC
03FFFF01FC
00FFFC01FC
003FE00000
ENDCHAR
STARTCHAR 00FC
ENCODING 252
SWIDTH 545 0
DWIDTH 53 0
BBX 38 68 7 -1
BITMAP
0060000C00
01F8003F00
03FC007F80
03FE00FF80
07FE00FFC0
07FE00FFC0
07FE00FF80
03FC007F80
01FC007F00
00F0001E00
0000000000
0000000000
0000000000
0000000000
0000000000
0000000000
0000000000
0000000000
0000000000
0000000000
FF000003FC
FF000003FC
FF000003FC
FF000003FC
FF000003FC
FF000003FC
FF000003FC
FF000003FC
FF000003FC
FF000003FC
FF000003FC
FF000003FC
FF000003FC
FF000003FC
FF000003FC
FF000003FC
FF000003FC
FF000003FC
FF000003FC
FF000003FC
FF000003FC
FF000003FC
FF000003FC
FF000003FC
FF000003FC
FF000003FC
FF000003FC
FF000003FC
FF000003FC
FF000003FC
FF000003FC
FF800003FC
FF800003FC
FF800003FC
7F800007FC
7F80000FFC
7FC0001FFC
7FC0003FFC
7FE0007FFC
3FF001FDFC
3FFC07F9FC
1FFFFFF1FC
1FFFFFE1FC
0FFFFFC1FC
07FFFF81FC
03FFFF01FC
00FFFC01FC
003FE00000
ENDCHAR
STARTCHAR 00FD
ENCODING 253
SWIDTH 462 0
DWIDTH 45 0
BBX 43 95 1 -19
BITMAP
000000030000
000000078000
0000000FC000
0000001FE000
0000001FF000
0000003FF000
0000007FE000
000000FFC000
000001FF8000
000003FF0000
000007FE0000
000007FC0000
00000FF00000
00001FE00000
00003FC00000
00007F800000
00003F000000
00001E000000
00000C000000
000000000000
000000000000
000000000000
000000000000
000000000000
000000000000
000000000000
000000000000
000000000000
FF8000001FE0
7F8000001FE0
7F8000001FC0
3FC000003FC0
3FC000003FC0
3FC000003F80
1FE000007F80
1FE000007F80
0FF000007F00
0FF00000FF00
0FF00000FF00
07F80000FE00
07F80001FE00
03F80001FC00
03FC0001FC00
03FC0003FC00
01FE0003F800
01FE0003F800
00FE0007F800
00FF0007F000
00FF0007F000
007F000FF000
007F800FE000
003F800FE000
003FC01FE000
003FC01FC000
001FC01FC000
001FE01FC000
000FE03F8000
000FE03F8000
000FF03F8000
0007F07F0000
0007F07F0000
0003F87E0000
0003F8FE0000
0003F8FE0000
0001FCFC0000
0001FCFC0000
0000FDFC0000
0000FFF80000
00007FF80000
00007FF80000
00007FF00000
00003FF00000
00003FF00000
00001FE00000
00001FE00000
00001FE00000
00001FC00000
00003FC00000
00003FC00000
00003F800000
00007F800000
00007F000000
0000FF000000
0000FE000000
0001FE000000
0003FC000000
0007FC000000
001FF8000000
0FFFF0000000
1FFFF0000000
1FFFE0000000
1FFFC0000000
1FFF00000000
3FFE00000000
0FF000000000
ENDCHAR
STARTCHAR 00FE
ENCODING 254
SWIDTH 555 0
DWIDTH 54 0
BBX 41 89 8 -20
BITMAP
FF0000000000
FF0000000000
FF0000000000
FF0000000000
FF0000000000
FF0000000000
FF0000000000
FF0000000000
FF0000000000
FF0000000000
FF0000000000
FF0000000000
FF0000000000
FF0000000000
FF0000000000
FF0000000000
FF0000000000
FF0000000000
FF0000000000
FF0000000000
FF0000000000
FF001FE00000
FF00FFFC0000
FF07FFFF0000
FF0FFFFFC000
FF3FFFFFE000
FF7FFFFFF000
FFFFFFFFF000
FFFF007FF800
FFFC001FFC00
FFF8000FFC00
FFE00007FE00
FFC00003FE00
FF800001FF00
FF000001FF00
FF000000FF00
FF000000FF80
FF000000FF80
FF000000FF80
FF0000007F80
FF0000007F80
FF0000007F80
FF0000007F80
FF0000007F80
FF0000007F80
FF0000007F80
FF0000007F80
FF0000007F80
FF0000007F80
FF0000007F80
FF0000007F80
FF000000FF80
FF000000FF00
FF000000FF00
FF000001FF00
FF000001FF00
FF000003FE00
FF000003FE00
FF000007FC00
FF80000FFC00
FFE0001FF800
FFF8003FF800
FFFE00FFF000
FFFFFFFFE000
FFFFFFFFC000
FF7FFFFF8000
FF3FFFFF0000
FF0FFFFC0000
FF03FFF00000
FF007F800000
FF0000000000
FF0000000000
FF0000000000
FF0000000000
FF0000000000
FF0000000000
FF0000000000
FF0000000000
FF0000000000
FF0000000000
FF0000000000
FF0000000000
FF0000000000
FF0000000000
FF0000000000
FF0000000000
FF0000000000
FF0000000000
FF0000000000
ENDCHAR
STARTCHAR 00FF
ENCODING 255
SWIDTH 462 0
DWIDTH 45 0
BBX 43 87 1 -20
BITMAP
000C00018000
003F8007E000
007F800FF000
007FC01FF800
007FC01FF800
00FFC01FF800
007FC01FF800
007FC00FF000
003F800FF000
001E0003C000
000000000000
000000000000
000000000000
000000000000
000000000000
000000000000
000000000000
000000000000
000000000000
000000000000
FF8000001FE0
7F8000001FE0
7F8000001FC0
3FC000003FC0
3FC000003FC0
3FC000003F80
1FE000007F80
1FE000007F80
0FF000007F00
0FF00000FF00
0FF00000FF00
07F80000FE00
07F80001FE00
03F80001FC00
03FC0001FC00
03FC0003FC00
01FE0003F800
01FE0003F800
00FE0007F800
00FF0007F000
00FF0007F000
007F000FF000
007F800FE000
003F800FE000
003FC01FE000
003FC01FC000
001FC01FC000
001FE01FC000
000FE03F8000
000FE03F8000
000FF03F8000
0007F07F0000
0007F07F0000
0003F87E0000
0003F8FE0000
0003F8FE0000
0001FCFC0000
0001FCFC0000
0000FDFC0000
0000FFF80000
00007FF80000
00007FF80000
00007FF00000
00003FF00000
00003FF00000
00001FE00000
00001FE00000
00001FE00000
00001FC00000
00003FC00000
00003FC00000
00003F800000
00007F800000
00007F000000
0000FF000000
0000FE000000
0001FE000000
0003FC000000
0007FC000000
001FF8000000
0FFFF0000000
1FFFF0000000
1FFFE0000000
1FFFC0000000
1FFF00000000
3FFE00000000
0FF000000000
ENDCHAR
STARTCHAR 0100
ENCODING 256
SWIDTH 545 0
DWIDTH 53 0
BBX 52 77 0 0
BITMAP
0007FFFFFE0000
0007FFFFFE0000
0007FFFFFE0000
0007FFFFFE0000
0007FFFFFE0000
0007FFFFFE0000
00000000000000
00000000000000
00000000000000
00000000000000
00000000000000
00000000000000
00000000000000
000003FE000000
000007FF000000
000007FF000000
000007FF000000
00000FFF800000
00000FFF800000
00000FFF800000
00001FDFC00000
00001FDFC00000
00001F9FC00000
00003F8FE00000
00003F8FE00000
00003F0FE00000
00007F0FF00000
00007F07F00000
00007F07F00000
0000FE07F80000
0000FE03F80000
0000FE03F80000
0001FC03FC0000
0001FC03FC0000
0001FC01FC0000
0003FC01FE0000
0003F801FE0000
0003F800FE0000
0007F800FF0000
0007F000FF0000
0007F0007F0000
000FF0007F8000
000FE0007F8000
000FE0003F8000
001FE0003FC000
001FC0003FC000
001FC0003FC000
003FC0001FE000
003F80001FE000
003F80001FE000
007F80000FF000
007FFFFFFFF000
007FFFFFFFF000
00FFFFFFFFF800
00FFFFFFFFF800
00FFFFFFFFF800
01FFFFFFFFFC00
01FFFFFFFFFC00
01FC000003FC00
03FC000001FE00
03FC000001FE00
03F8000001FE00
07F8000001FF00
07F8000000FF00
0FF0000000FF00
0FF0000000FF80
0FF00000007F80
1FF00000007F80
1FE00000007FC0
1FE00000003FC0
3FE00000003FC0
3FC00000003FE0
3FC00000001FE0
7FC00000001FE0
7F800000001FF0
7F800000001FF0
FF800000000FF0
ENDCHAR
STARTCHAR 0101
ENCODING 257
SWIDTH 504 0
DWIDTH 49 0
BBX 37 65 5 -1
BITMAP
00FFFFFF80
00FFFFFF80
00FFFFFF80
00FFFFFF80
00FFFFFF80
00FFFFFF80
0000000000
0000000000
0000000000
0000000000
0000000000
0000000000
0000000000
0000000000
0000000000
0000000000
0000FF8000
000FFFF000
007FFFFC00
01FFFFFF00
07FFFFFF80
1FFFFFFF80
3FFFFFFFC0
1FFC00FFE0
1FE0007FE0
0F80001FF0
0600001FF0
0000000FF0
0000000FF0
0000000FF8
00000007F8
00000007F8
00000007F8
00000007F8
0000000FF8
000007FFF8
0000FFFFF8
0007FFFFF8
003FFFFFF8
00FFFFFFF8
03FFFC07F8
07FFC007F8
0FFE0007F8
1FF80007F8
3FE00007F8
3FC00007F8
7F800007F8
7F800007F8
FF000007F8
FF000007F8
FF000007F8
FF000007F8
FF000007F8
FF00000FF8
FF80001FF8
FF80007FF8
7FC000FFF8
7FE003FFF8
3FFF7FFBF8
3FFFFFF3F8
1FFFFFC3F8
0FFFFF83F8
07FFFE03F8
01FFF803F8
003FC00000
ENDCHAR
STARTCHAR 0102
ENCODING 258
SWIDTH 545 0
DWIDTH 53 0
BBX 52 82 0 0
BITMAP
000780001F0000
000F80001F0000
000FC0001F0000
0007C0003F0000
0007E0003F0000
0007F0007E0000
0003F800FE0000
0003FE07FC0000
0001FFFFF80000
0000FFFFF00000
00007FFFE00000
00001FFFC00000
000007FE000000
00000000000000
00000000000000
00000000000000
00000000000000
00000000000000
000003FE000000
000007FF000000
000007FF000000
000007FF000000
00000FFF800000
00000FFF800000
00000FFF800000
00001FDFC00000
00001FDFC00000
00001F9FC00000
00003F8FE00000
00003F8FE00000
00003F0FE00000
00007F0FF00000
00007F07F00000
00007F07F00000
0000FE07F80000
0000FE03F80000
0000FE03F80000
0001FC03FC0000
0001FC03FC0000
0001FC01FC0000
0003FC01FE0000
0003F801FE0000
0003F800FE0000
0007F800FF0000
0007F000FF0000
0007F0007F0000
000FF0007F8000
000FE0007F8000
000FE0003F8000
001FE0003FC000
001FC0003FC000
001FC0003FC000
003FC0001FE000
003F80001FE000
003F80001FE000
007F80000FF000
007FFFFFFFF000
007FFFFFFFF000
00FFFFFFFFF800
00FFFFFFFFF800
00FFFFFFFFF800
01FFFFFFFFFC00
01FFFFFFFFFC00
01FC000003FC00
03FC000001FE00
03FC000001FE00
03F8000001FE00
07F8000001FF00
07F8000000FF00
0FF0000000FF00
0FF0000000FF80
0FF00000007F80
1FF00000007F80
1FE00000007FC0
1FE00000003FC0
3FE00000003FC0
3FC00000003FE0
3FC00000001FE0
7FC00000001FE0
7F800000001FF0
7F800000001FF0
FF800000000FF0
ENDCHAR
STARTCHAR 0103
ENCODING 259
SWIDTH 504 0
DWIDTH 49 0
BBX 37 72 5 -1
BITMAP
0040000100
07E00001F0
03E00003F0
03E00003E0
03F00003E0
03F00007E0
03F8000FE0
01FC000FC0
01FE001FC0
00FF007F80
007FE3FF00
007FFFFF00
003FFFFE00
000FFFF800
0007FFF000
0000FF8000
0000000000
0000000000
0000000000
0000000000
0000000000
0000000000
0000000000
0000FF8000
000FFFF000
007FFFFC00
01FFFFFF00
07FFFFFF80
1FFFFFFF80
3FFFFFFFC0
1FFC00FFE0
1FE0007FE0
0F80001FF0
0600001FF0
0000000FF0
0000000FF0
0000000FF8
00000007F8
00000007F8
00000007F8
00000007F8
0000000FF8
000007FFF8
0000FFFFF8
0007FFFFF8
003FFFFFF8
00FFFFFFF8
03FFFC07F8
07FFC007F8
0FFE0007F8
1FF80007F8
3FE00007F8
3FC00007F8
7F800007F8
7F800007F8
FF000007F8
FF000007F8
FF000007F8
FF000007F8
FF000007F8
FF00000FF8
FF80001FF8
FF80007FF8
7FC000FFF8
7FE003FFF8
3FFF7FFBF8
3FFFFFF3F8
1FFFFFC3F8
0FFFFF83F8
07FFFE03F8
01FFF803F8
003FC00000
ENDCHAR
STARTCHAR 0104
ENCODING 260
SWIDTH 545 0
DWIDTH 53 0
BBX 55 85 0 -21
BITMAP
000003FE000000
000007FF000000
000007FF000000
000007FF000000
00000FFF800000
00000FFF800000
00000FFF800000
00001FDFC00000
00001FDFC00000
00001F9FC00000
00003F8FE00000
00003F8FE00000
00003F0FE00000
00007F0FF00000
00007F07F00000
00007F07F00000
0000FE07F80000
0000FE03F80000
0000FE03F80000
0001FC03FC0000
0001FC03FC0000
0001FC01FC0000
0003FC01FE0000
0003F801FE0000
0003F800FE0000
0007F800FF0000
0007F000FF0000
0007F0007F0000
000FF0007F8000
000FE0007F8000
000FE0003F8000
001FE0003FC000
001FC0003FC000
001FC0003FC000
003FC0001FE000
003F80001FE000
003F80001FE000
007F80000FF000
007FFFFFFFF000
007FFFFFFFF000
00FFFFFFFFF800
00FFFFFFFFF800
00FFFFFFFFF800
01FFFFFFFFFC00
01FFFFFFFFFC00
01FC000003FC00
03FC000001FE00
03FC000001FE00
03F8000001FE00
07F8000001FF00
07F8000000FF00
0FF0000000FF00
0FF0000000FF80
0FF00000007F80
1FF00000007F80
1FE00000007FC0
1FE00000003FC0
3FE00000003FC0
3FC00000003FE0
3FC00000001FE0
7FC00000001FE0
7F800000001FF0
7F800000001FF0
FF800000000FF0
000000000007F0
00000000000FC0
00000000001F80
00000000003F00
00000000007E00
00000000007C00
0000000000FC00
0000000000F800
0000000001F800
0000000001F800
0000000001F800
0000000001F800
0000000003F800
0000000001FC00
0000000001FE0C
0000000001FFFC
0000000001FFFE
0000000000FFFE
00000000007FFE
00000000003FFC
00000000000FE0
ENDCHAR
STARTCHAR 0105
ENCODING 261
SWIDTH 504 0
DWIDTH 49 0
BBX 39 68 5 -20
BITMAP
0000FF8000
000FFFF000
007FFFFC00
01FFFFFF00
07FFFFFF80
1FFFFFFF80
3FFFFFFFC0
1FFC00FFE0
1FE0007FE0
0F80001FF0
0600001FF0
0000000FF0
0000000FF0
0000000FF8
00000007F8
00000007F8
00000007F8
00000007F8
0000000FF8
000007FFF8
0000FFFFF8
0007FFFFF8
003FFFFFF8
00FFFFFFF8
03FFFC07F8
07FFC007F8
0FFE0007F8
1FF80007F8
3FE00007F8
3FC00007F8
7F800007F8
7F800007F8
FF000007F8
FF000007F8
FF000007F8
FF000007F8
FF000007F8
FF00000FF8
FF80001FF8
FF80007FF8
7FC000FFF8
7FE003FFF8
3FFF7FFBF8
3FFFFFF3F8
1FFFFFC3F8
0FFFFF83F8
07FFFE03F8
01FFF803F8
003FC007F0
0000000FC0
0000001F80
0000003F00
0000007E00
0000007C00
000000FC00
000000F800
000001F800
000001F800
000001F800
000001F800
000001F800
000001FC00
000001FF3C
000001FFFC
000000FFFE
0000007FFE
0000003FF8
0000000FE0
ENDCHAR
STARTCHAR 0106
ENCODING 262
SWIDTH 576 0
DWIDTH 56 0
BBX 47 85 5 -1
BITMAP
000000001000
000000003800
00000000FC00
00000001FE00
00000003FF00
00000007FF00
0000000FFC00
0000001FF800
0000003FF000
0000007FC000
000000FF8000
000001FF0000
000003FC0000
000001F80000
000000F00000
000000400000
000000000000
000000000000
000000000000
000001FF8000
00001FFFF800
00007FFFFE00
0001FFFFFF80
0007FFFFFFC0
000FFFFFFFE0
001FFFFFFFF8
007FFF80FFFC
00FFF8001FF8
00FFE00007F0
01FFC00003F0
03FF000000E0
07FE00000040
07FC00000000
0FFC00000000
0FF800000000
1FF000000000
1FF000000000
3FE000000000
3FE000000000
3FC000000000
3FC000000000
7FC000000000
7F8000000000
7F8000000000
7F8000000000
7F8000000000
FF8000000000
FF8000000000
FF8000000000
FF0000000000
FF0000000000
FF0000000000
FF0000000000
FF0000000000
FF8000000000
FF8000000000
FF8000000000
FF8000000000
FF8000000000
7F8000000000
7F8000000000
7FC000000000
7FC000000000
7FC000000000
3FC000000000
3FE000000000
3FE000000000
1FF000000000
1FF000000000
0FF800000000
0FFC00000000
07FC00000030
07FE00000070
03FF000000F8
01FFC00001FC
01FFE00007FE
00FFF8001FFE
007FFF80FFFC
003FFFFFFFF8
001FFFFFFFF0
0007FFFFFFC0
0003FFFFFF80
0000FFFFFE00
00001FFFF800
000003FF8000
ENDCHAR
STARTCHAR 0107
ENCODING 263
SWIDTH 452 0
DWIDTH 44 0
BBX 38 76 4 0
BITMAP
0000000100
00000003C0
00000007E0
0000000FF0
0000001FF8
0000003FF0
0000007FE0
0000007FC0
000000FF80
000001FF00
000003FE00
000007FC00
00000FF800
00000FF000
00001FE000
00003FC000
00003F8000
00001F0000
00000E0000
0000000000
0000000000
0000000000
0000000000
0000000000
0000000000
0000000000
0000000000
00003FF000
0001FFFE00
0007FFFF80
001FFFFFE0
003FFFFFF0
00FFFFFFF8
01FFFFFFF0
03FFE00FE0
03FF8003E0
07FE0001C0
0FFC000000
0FF8000000
1FF0000000
1FF0000000
3FE0000000
3FE0000000
3FC0000000
7FC0000000
7FC0000000
7F80000000
7F80000000
7F80000000
7F80000000
7F80000000
FF80000000
FF80000000
7F80000000
7F80000000
7F80000000
7F80000000
7F80000000
7FC0000000
7FC0000000
3FC0000000
3FE0000000
3FE0000000
1FF0000000
1FF8000000
0FFC000060
0FFE0000F0
07FF0001F0
03FFC00FF8
01FFFFFFFC
00FFFFFFF8
007FFFFFF0
003FFFFFE0
000FFFFF80
0003FFFE00
00003FE000
ENDCHAR
STARTCHAR 0108
ENCODING 264
SWIDTH 576 0
DWIDTH 56 0
BBX 47 82 5 -1
BITMAP
000003FF0000
000007FF8000
00000FFFC000
00001FFFE000
00003FCFF000
00007F87F800
0000FF03FC00
0001FE01FE00
0001FC007F00
0003F0003F80
0007E0001F80
0003C0000F00
000180000600
000000000000
000000000000
000000000000
000001FF8000
00001FFFF800
00007FFFFE00
0001FFFFFF80
0007FFFFFFC0
000FFFFFFFE0
001FFFFFFFF8
007FFF80FFFC
00FFF8001FF8
00FFE00007F0
01FFC00003F0
03FF000000E0
07FE00000040
07FC00000000
0FFC00000000
0FF800000000
1FF000000000
1FF000000000
3FE000000000
3FE000000000
3FC000000000
3FC000000000
7FC000000000
7F8000000000
7F8000000000
7F8000000000
7F8000000000
FF8000000000
FF8000000000
FF8000000000
FF0000000000
FF0000000000
FF0000000000
FF0000000000
FF0000000000
FF8000000000
FF8000000000
FF8000000000
FF8000000000
FF8000000000
7F8000000000
7F8000000000
7FC000000000
7FC000000000
7FC000000000
3FC000000000
3FE000000000
3FE000000000
1FF000000000
1FF000000000
0FF800000000
0FFC00000000
07FC00000030
07FE00000070
03FF000000F8
01FFC00001FC
01FFE00007FE
00FFF8001FFE
007FFF80FFFC
003FFFFFFFF8
001FFFFFFFF0
0007FFFFFFC0
0003FFFFFF80
0000FFFFFE00
00001FFFF800
000003FF8000
ENDCHAR
STARTCHAR 0109
ENCODING 265
SWIDTH 452 0
DWIDTH 44 0
BBX 38 73 4 -1
BITMAP
00001FE000
00003FF000
00007FF800
00007FFC00
0000FFFE00
0001FFFE00
0003FCFF00
0007F87F80
000FF03FC0
000FE01FE0
001FC00FE0
003F8007F0
007F0003F8
00FE0001FC
007C0000FC
0038000078
0010000020
0000000000
0000000000
0000000000
0000000000
0000000000
0000000000
0000000000
00003FF000
0001FFFE00
0007FFFF80
001FFFFFE0
003FFFFFF0
00FFFFFFF8
01FFFFFFF0
03FFE00FE0
03FF8003E0
07FE0001C0
0FFC000000
0FF8000000
1FF0000000
1FF0000000
3FE0000000
3FE0000000
3FC0000000
7FC0000000
7FC0000000
7F80000000
7F80000000
7F80000000
7F80000000
7F80000000
FF80000000
FF80000000
7F80000000
7F80000000
7F80000000
7F80000000
7F80000000
7FC0000000
7FC0000000
3FC0000000
3FE0000000
3FE0000000
1FF0000000
1FF8000000
0FFC000060
0FFE0000F0
07FF0001F0
03FFC00FF8
01FFFFFFFC
00FFFFFFF8
007FFFFFF0
003FFFFFE0
000FFFFF80
0003FFFE00
00003FE000
ENDCHAR
STARTCHAR 010A
ENCODING 266
SWIDTH 576 0
DWIDTH 56 0
BBX 47 81 5 -1
BITMAP
0000007C0000
000001FE0000
000003FF0000
000003FF0000
000003FF8000
000003FF8000
000003FF0000
000003FF0000
000001FE0000
000000FC0000
000000000000
000000000000
000000000000
000000000000
000000000000
000001FF8000
00001FFFF800
00007FFFFE00
0001FFFFFF80
0007FFFFFFC0
000FFFFFFFE0
001FFFFFFFF8
007FFF80FFFC
00FFF8001FF8
00FFE00007F0
01FFC00003F0
03FF000000E0
07FE00000040
07FC00000000
0FFC00000000
0FF800000000
1FF000000000
1FF000000000
3FE000000000
3FE000000000
3FC000000000
3FC000000000
7FC000000000
7F8000000000
7F8000000000
7F8000000000
7F8000000000
FF8000000000
FF8000000000
FF8000000000
FF0000000000
FF0000000000
FF0000000000
FF0000000000
FF0000000000
FF8000000000
FF8000000000
FF8000000000
FF8000000000
FF8000000000
7F8000000000
7F8000000000
7FC000000000
7FC000000000
7FC000000000
3FC000000000
3FE000000000
3FE000000000
1FF000000000
1FF000000000
0FF800000000
0FFC00000000
07FC00000030
07FE00000070
03FF000000F8
01FFC00001FC
01FFE00007FE
00FFF8001FFE
007FFF80FFFC
003FFFFFFFF8
001FFFFFFFF0
0007FFFFFFC0
0003FFFFFF80
0000FFFFFE00
00001FFFF800
000003FF8000
ENDCHAR
STARTCHAR 010B
ENCODING 267
SWIDTH 452 0
DWIDTH 44 0
BBX 38 68 4 -1
BITMAP
0000078000
00001FE000
00001FF000
00003FF000
00003FF000
00003FF000
00003FF000
00003FF000
00001FE000
00000FC000
0000000000
0000000000
0000000000
0000000000
0000000000
0000000000
0000000000
0000000000
0000000000
00003FF000
0001FFFE00
0007FFFF80
001FFFFFE0
003FFFFFF0
00FFFFFFF8
01FFFFFFF0
03FFE00FE0
03FF8003E0
07FE0001C0
0FFC000000
0FF8000000
1FF0000000
1FF0000000
3FE0000000
3FE0000000
3FC0000000
7FC0000000
7FC0000000
7F80000000
7F80000000
7F80000000
7F80000000
7F80000000
FF80000000
FF80000000
7F80000000
7F80000000
7F80000000
7F80000000
7F80000000
7FC0000000
7FC0000000
3FC0000000
3FE0000000
3FE0000000
1FF0000000
1FF8000000
0FFC000060
0FFE0000F0
07FF0001F0
03FFC00FF8
01FFFFFFFC
00FFFFFFF8
007FFFFFF0
003FFFFFE0
000FFFFF80
0003FFFE00
00003FE000
ENDCHAR
STARTCHAR 010C
ENCODING 268
SWIDTH 576 0
DWIDTH 56 0
BBX 47 83 5 -1
BITMAP
000080000600
0003C0000F00
0007E0001F80
0003F0003F80
0003FC007F00
0001FE01FE00
0000FF03FC00
00007F87F800
00003FCFF000
00001FFFE000
00000FFFC000
000007FF8000
000003FF0000
000001FE0000
000000000000
000000000000
000000000000
000001FF8000
00001FFFF800
00007FFFFE00
0001FFFFFF80
0007FFFFFFC0
000FFFFFFFE0
001FFFFFFFF8
007FFF80FFFC
00FFF8001FF8
00FFE00007F0
01FFC00003F0
03FF000000E0
07FE00000040
07FC00000000
0FFC00000000
0FF800000000
1FF000000000
1FF000000000
3FE000000000
3FE000000000
3FC000000000
3FC000000000
7FC000000000
7F8000000000
7F8000000000
7F8000000000
7F8000000000
FF8000000000
FF8000000000
FF8000000000
FF0000000000
FF0000000000
FF0000000000
FF0000000000
FF0000000000
FF8000000000
FF8000000000
FF8000000000
FF8000000000
FF8000000000
7F8000000000
7F8000000000
7FC000000000
7FC000000000
7FC000000000
3FC000000000
3FE000000000
3FE000000000
1FF000000000
1FF000000000
0FF800000000
0FFC00000000
07FC00000030
07FE00000070
03FF000000F8
01FFC00001FC
01FFE00007FE
00FFF8001FFE
007FFF80FFFC
003FFFFFFFF8
001FFFFFFFF0
0007FFFFFFC0
0003FFFFFF80
0000FFFFFE00
00001FFFF800
000003FF8000
ENDCHAR
STARTCHAR 010D
ENCODING 269
SWIDTH 452 0
DWIDTH 44 0
BBX 38 73 4 -1
BITMAP
0010000020
0038000078
007C0000FC
00FE0001FC
007F0003F8
003F8007F0
001FC00FE0
000FE01FE0
000FF03FC0
0007F87F80
0003FCFF00
0001FFFE00
0000FFFE00
0000FFFC00
00007FF800
00003FF000
00001FE000
0000000000
0000000000
0000000000
0000000000
0000000000
0000000000
0000000000
00003FF000
0001FFFE00
0007FFFF80
001FFFFFE0
003FFFFFF0
00FFFFFFF8
01FFFFFFF0
03FFE00FE0
03FF8003E0
07FE0001C0
0FFC000000
0FF8000000
1FF0000000
1FF0000000
3FE0000000
3FE0000000
3FC0000000
7FC0000000
7FC0000000
7F80000000
7F80000000
7F80000000
7F80000000
7F80000000
FF80000000
FF80000000
7F80000000
7F80000000
7F80000000
7F80000000
7F80000000
7FC0000000
7FC0000000
3FC0000000
3FE0000000
3FE0000000
1FF0000000
1FF8000000
0FFC000060
0FFE0000F0
07FF0001F0
03FFC00FF8
01FFFFFFFC
00FFFFFFF8
007FFFFFF0
003FFFFFE0
000FFFFF80
0003FFFE00
00003FE000
ENDCHAR
STARTCHAR 010E
ENCODING 270
SWIDTH 617 0
DWIDTH 60 0
BBX 46 82 9 1
BITMAP
006000018000
01F00007E000
01FC000FE000
00FE001FC000
007F003F8000
003F807F0000
001FC1FE0000
000FF3FC0000
0007FFF80000
0007FFF00000
0003FFE00000
0001FFE00000
0000FFC00000
000000000000
000000000000
000000000000
000000000000
000000000000
FFFFFE000000
FFFFFFE00000
FFFFFFFC0000
FFFFFFFF0000
FFFFFFFFC000
FFFFFFFFE000
FFFFFFFFF000
FF0003FFF800
FF00007FFC00
FF00001FFE00
FF000007FF00
FF000003FF80
FF000001FF80
FF000000FFC0
FF0000007FC0
FF0000003FE0
FF0000003FE0
FF0000001FF0
FF0000001FF0
FF0000000FF0
FF0000000FF8
FF0000000FF8
FF0000000FF8
FF00000007F8
FF00000007F8
FF00000007FC
FF00000007FC
FF00000007FC
FF00000007FC
FF00000007FC
FF00000007FC
FF00000007FC
FF00000007FC
FF00000007FC
FF00000007FC
FF00000007FC
FF00000007FC
FF00000007FC
FF00000007F8
FF00000007F8
FF00000007F8
FF0000000FF8
FF0000000FF8
FF0000000FF0
FF0000001FF0
FF0000001FF0
FF0000001FF0
FF0000003FE0
FF0000007FE0
FF0000007FC0
FF000000FFC0
FF000001FF80
FF000003FF80
FF000007FF00
FF00001FFE00
FF00007FFC00
FF0003FFF800
FFFFFFFFF000
FFFFFFFFE000
FFFFFFFF8000
FFFFFFFF0000
FFFFFFFC0000
FFFFFFE00000
FFFFFC000000
ENDCHAR
STARTCHAR 010F
ENCODING 271
SWIDTH 576 0
DWIDTH 56 0
BBX 52 75 5 -1
BITMAP
000000000003F0
000000000003F0
000000000003F0
000000000003F0
000000000003F0
000000007F83F0
000000007F83F0
000000007F83F0
000000007F83F0
000000007F83E0
000000007F83E0
000000007F83E0
000000007F83E0
000000007F83E0
000000007F83E0
000000007F83E0
000000007F83E0
000000007F83E0
000000007F83E0
000000007F83E0
000000007F83C0
000000007F8000
000000007F8000
000000007F8000
000000007F8000
000000007F8000
0000FF007F8000
0007FFE07F8000
001FFFF87F8000
007FFFFE7F8000
00FFFFFF7F8000
01FFFFFFFF8000
03FFFFFFFF8000
07FF803FFF8000
0FFE0007FF8000
0FFC0003FF8000
1FF80000FF8000
1FF000007F8000
3FE000007F8000
3FE000007F8000
7FC000007F8000
7FC000007F8000
7F8000007F8000
FF8000007F8000
FF8000007F8000
FF0000007F8000
FF0000007F8000
FF0000007F8000
FF0000007F8000
FF0000007F8000
FF0000007F8000
FF0000007F8000
FF0000007F8000
FF0000007F8000
FF0000007F8000
FF0000007F8000
FF0000007F8000
FF8000007F8000
FF8000007F8000
7F8000007F8000
7FC000007F8000
7FC000007F8000
7FE00000FF8000
3FE00001FF8000
3FF00003FF8000
1FF80007FF8000
1FFC001FFF8000
0FFF007FFF8000
07FFFFFFBF8000
03FFFFFF3F8000
01FFFFFE3F8000
00FFFFF83F8000
007FFFF03F8000
001FFFC03F8000
0003FE00000000
ENDCHAR
STARTCHAR 0110
ENCODING 272
SWIDTH 637 0
DWIDTH 62 0
BBX 54 64 3 0
BITMAP
00FFFFFE000000
00FFFFFFE00000
00FFFFFFFC0000
00FFFFFFFF0000
00FFFFFFFFC000
00FFFFFFFFE000
00FFFFFFFFF800
00FF0001FFFC00
00FF00003FFE00
00FF00000FFE00
00FF000007FF00
00FF000003FF80
00FF000001FFC0
00FF000000FFC0
00FF0000007FE0
00FF0000003FE0
00FF0000003FE0
00FF0000001FF0
00FF0000001FF0
00FF0000000FF0
00FF0000000FF8
00FF0000000FF8
00FF00000007F8
00FF00000007F8
00FF00000007FC
00FF00000007FC
00FF00000007FC
00FF00000007FC
FFFFFFFC0003FC
FFFFFFFC0003FC
FFFFFFFC0003FC
FFFFFFFC0003FC
FFFFFFFC0003FC
00FF00000003FC
00FF00000003FC
00FF00000007FC
00FF00000007FC
00FF00000007FC
00FF00000007FC
00FF00000007F8
00FF00000007F8
00FF00000007F8
00FF0000000FF8
00FF0000000FF8
00FF0000000FF0
00FF0000001FF0
00FF0000001FF0
00FF0000003FE0
00FF0000003FE0
00FF0000007FC0
00FF000000FFC0
00FF000001FF80
00FF000003FF80
00FF000007FF00
00FF00001FFE00
00FF00007FFC00
00FF0001FFF800
00FFFFFFFFF000
00FFFFFFFFE000
00FFFFFFFFC000
00FFFFFFFF0000
00FFFFFFFC0000
00FFFFFFE00000
00FFFFFE000000
ENDCHAR
STARTCHAR 0111
ENCODING 273
SWIDTH 555 0
DWIDTH 54 0
BBX 48 70 5 -1
BITMAP
000000007F80
000000007F80
000000007F80
000000007F80
000000007F80
000000007F80
000000007F80
000000007F80
000000007F80
00007FFFFFFF
00007FFFFFFF
00007FFFFFFF
00007FFFFFFF
00007FFFFFE0
000000007F80
000000007F80
000000007F80
000000007F80
000000007F80
000000007F80
000000007F80
000000007F80
000000007F80
000000007F80
00003C007F80
0003FFE07F80
001FFFF87F80
003FFFFC7F80
00FFFFFF7F80
01FFFFFFFF80
03FFFFFFFF80
07FFC07FFF80
0FFF000FFF80
0FFC0003FF80
1FF80001FF80
3FF00000FF80
3FE000007F80
7FC000007F80
7FC000007F80
7F8000007F80
FF8000007F80
FF8000007F80
FF0000007F80
FF0000007F80
FF0000007F80
FF0000007F80
FF0000007F80
FF0000007F80
FF0000007F80
FF0000007F80
FF0000007F80
FF0000007F80
FF0000007F80
FF8000007F80
FF8000007F80
7F8000007F80
7FC000007F80
7FC00000FF80
3FE00001FF80
3FF00003FF80
3FF80007FF80
1FFC001FFF80
0FFF007FFF80
0FFFFFFFBF80
07FFFFFF3F80
03FFFFFE3F80
00FFFFFC3F80
007FFFF03F80
001FFFC03F80
0003FE000000
ENDCHAR
STARTCHAR 0112
ENCODING 274
SWIDTH 524 0
DWIDTH 51 0
BBX 37 77 9 0
BITMAP
03FFFFFF00
03FFFFFF00
03FFFFFF00
03FFFFFF00
03FFFFFF00
03FFFFFF00
0000000000
0000000000
0000000000
0000000000
0000000000
0000000000
0000000000
FFFFFFFFF0
FFFFFFFFF0
FFFFFFFFF0
FFFFFFFFF0
FFFFFFFFF0
FFFFFFFFF0
FFFFFFFFF0
FF00000000
FF00000000
FF00000000
FF00000000
FF00000000
FF00000000
FF00000000
FF00000000
FF00000000
FF00000000
FF00000000
FF00000000
FF00000000
FF00000000
FF00000000
FF00000000
FF00000000
FF00000000
FF00000000
FF00000000
FFFFFFFF00
FFFFFFFF00
FFFFFFFF00
FFFFFFFF00
FFFFFFFF00
FFFFFFFF00
FFFFFFFF00
FF00000000
FF00000000
FF00000000
FF00000000
FF00000000
FF00000000
FF00000000
FF00000000
FF00000000
FF00000000
FF00000000
FF00000000
FF00000000
FF00000000
FF00000000
FF00000000
FF00000000
FF00000000
FF00000000
FF00000000
FF00000000
FF00000000
FF00000000
FFFFFFFFF8
FFFFFFFFF8
FFFFFFFFF8
FFFFFFFFF8
FFFFFFFFF8
FFFFFFFFF8
FFFFFFFFF8
ENDCHAR
STARTCHAR 0113
ENCODING 275
SWIDTH 493 0
DWIDTH 48 0
BBX 41 65 4 -1
BITMAP
007FFFFFE000
007FFFFFE000
007FFFFFE000
007FFFFFE000
007FFFFFE000
007FFFFFE000
000000000000
000000000000
000000000000
000000000000
000000000000
000000000000
000000000000
000000000000
000000000000
000000000000
00007FC00000
0003FFFC0000
000FFFFF0000
001FFFFF8000
007FFFFFC000
00FFFFFFE000
01FFF0FFF000
03FF801FF800
03FE0007F800
07FC0003FC00
0FF80001FC00
0FF00001FE00
1FE00000FE00
1FC00000FE00
3FC000007F00
3FC000007F00
3F8000007F00
7F8000007F00
7F8000007F00
7F0000007F00
7F0000003F80
7FFFFFFFFF80
7FFFFFFFFF80
7FFFFFFFFF80
FFFFFFFFFF00
FFFFFFFFFF00
7FFFFFFFFF00
7F0000000000
7F8000000000
7F8000000000
7F8000000000
7F8000000000
7FC000000000
3FC000000000
3FC000000000
3FE000000000
1FF000000000
1FF000000000
0FF800000000
07FE00001000
07FF00007800
03FFC001F800
01FFFE7FFC00
00FFFFFFFC00
007FFFFFFC00
001FFFFFF000
000FFFFFC000
0001FFFF0000
00003FF00000
ENDCHAR
STARTCHAR 0114
ENCODING 276
SWIDTH 524 0
DWIDTH 51 0
BBX 37 82 9 0
BITMAP
0780000F00
07C0000F80
07C0001F80
07E0001F00
07E0003F00
03F0007F00
03F800FE00
01FE03FC00
00FFFFFC00
00FFFFF800
003FFFF000
001FFFC000
0003FE0000
0000000000
0000000000
0000000000
0000000000
0000000000
FFFFFFFFF0
FFFFFFFFF0
FFFFFFFFF0
FFFFFFFFF0
FFFFFFFFF0
FFFFFFFFF0
FFFFFFFFF0
FF00000000
FF00000000
FF00000000
FF00000000
FF00000000
FF00000000
FF00000000
FF00000000
FF00000000
FF00000000
FF00000000
FF00000000
FF00000000
FF00000000
FF00000000
FF00000000
FF00000000
FF00000000
FF00000000
FF00000000
FFFFFFFF00
FFFFFFFF00
FFFFFFFF00
FFFFFFFF00
FFFFFFFF00
FFFFFFFF00
FFFFFFFF00
FF00000000
FF00000000
FF00000000
FF00000000
FF00000000
FF00000000
FF00000000
FF00000000
FF00000000
FF00000000
FF00000000
FF00000000
FF00000000
FF00000000
FF00000000
FF00000000
FF00000000
FF00000000
FF00000000
FF00000000
FF00000000
FF00000000
FF00000000
FFFFFFFFF8
FFFFFFFFF8
FFFFFFFFF8
FFFFFFFFF8
FFFFFFFFF8
FFFFFFFFF8
FFFFFFFFF8
ENDCHAR
STARTCHAR 0115
ENCODING 277
SWIDTH 493 0
DWIDTH 48 0
BBX 41 72 4 -1
BITMAP
00300000C000
01F00000F800
01F00001F800
01F00001F800
01F80001F000
01F80003F000
00FC0003F000
00FE0007E000
00FF000FE000
007F803FC000
003FF1FFC000
001FFFFF8000
000FFFFF0000
0007FFFC0000
0003FFF80000
00007FC00000
000000000000
000000000000
000000000000
000000000000
000000000000
000000000000
000000000000
00007FC00000
0003FFFC0000
000FFFFF0000
001FFFFF8000
007FFFFFC000
00FFFFFFE000
01FFF0FFF000
03FF801FF800
03FE0007F800
07FC0003FC00
0FF80001FC00
0FF00001FE00
1FE00000FE00
1FC00000FE00
3FC000007F00
3FC000007F00
3F8000007F00
7F8000007F00
7F8000007F00
7F0000007F00
7F0000003F80
7FFFFFFFFF80
7FFFFFFFFF80
7FFFFFFFFF80
FFFFFFFFFF00
FFFFFFFFFF00
7FFFFFFFFF00
7F0000000000
7F8000000000
7F8000000000
7F8000000000
7F8000000000
7FC000000000
3FC000000000
3FC000000000
3FE000000000
1FF000000000
1FF000000000
0FF800000000
07FE00001000
07FF00007800
03FFC001F800
01FFFE7FFC00
00FFFFFFFC00
007FFFFFFC00
001FFFFFF000
000FFFFFC000
0001FFFF0000
00003FF00000
ENDCHAR
STARTCHAR 0116
ENCODING 278
SWIDTH 524 0
DWIDTH 51 0
BBX 37 80 9 0
BITMAP
0000F80000
0001FE0000
0003FE0000
0007FF0000
0007FF0000
0007FF0000
0007FF0000
0003FF0000
0003FE0000
0001FC0000
0000000000
0000000000
0000000000
0000000000
0000000000
0000000000
FFFFFFFFF0
FFFFFFFFF0
FFFFFFFFF0
FFFFFFFFF0
FFFFFFFFF0
FFFFFFFFF0
FFFFFFFFF0
FF00000000
FF00000000
FF00000000
FF00000000
FF00000000
FF00000000
FF00000000
FF00000000
FF00000000
FF00000000
FF00000000
FF00000000
FF00000000
FF00000000
FF00000000
FF00000000
FF00000000
FF00000000
FF00000000
FF00000000
FFFFFFFF00
FFFFFFFF00
FFFFFFFF00
FFFFFFFF00
FFFFFFFF00
FFFFFFFF00
FFFFFFFF00
FF00000000
FF00000000
FF00000000
FF00000000
FF00000000
FF00000000
FF00000000
FF00000000
FF00000000
FF00000000
FF00000000
FF00000000
FF00000000
FF00000000
FF00000000
FF00000000
FF00000000
FF00000000
FF00000000
FF00000000
FF00000000
FF00000000
FF00000000
FFFFFFFFF8
FFFFFFFFF8
FFFFFFFFF8
FFFFFFFFF8
FFFFFFFFF8
FFFFFFFFF8
FFFFFFFFF8
ENDCHAR
STARTCHAR 0117
ENCODING 279
SWIDTH 493 0
DWIDTH 48 0
BBX 41 68 4 -1
BITMAP
00001F000000
00003F800000
00007FC00000
00007FE00000
0000FFE00000
0000FFE00000
00007FE00000
00007FC00000
00007FC00000
00003F800000
000000000000
000000000000
000000000000
000000000000
000000000000
000000000000
000000000000
000000000000
000000000000
00007FC00000
0003FFFC0000
000FFFFF0000
001FFFFF8000
007FFFFFC000
00FFFFFFE000
01FFF0FFF000
03FF801FF800
03FE0007F800
07FC0003FC00
0FF80001FC00
0FF00001FE00
1FE00000FE00
1FC00000FE00
3FC000007F00
3FC000007F00
3F8000007F00
7F8000007F00
7F8000007F00
7F0000007F00
7F0000003F80
7FFFFFFFFF80
7FFFFFFFFF80
7FFFFFFFFF80
FFFFFFFFFF00
FFFFFFFFFF00
7FFFFFFFFF00
7F0000000000
7F8000000000
7F8000000000
7F8000000000
7F8000000000
7FC000000000
3FC000000000
3FC000000000
3FE000000000
1FF000000000
1FF000000000
0FF800000000
07FE00001000
07FF00007800
03FFC001F800
01FFFE7FFC00
00FFFFFFFC00
007FFFFFFC00
001FFFFFF000
000FFFFFC000
0001FFFF0000
00003FF00000
ENDCHAR
STARTCHAR 0118
ENCODING 280
SWIDTH 524 0
DWIDTH 51 0
BBX 39 85 9 -21
BITMAP
FFFFFFFFF0
FFFFFFFFF0
FFFFFFFFF0
FFFFFFFFF0
FFFFFFFFF0
FFFFFFFFF0
FFFFFFFFF0
FF00000000
FF00000000
FF00000000
FF00000000
FF00000000
FF00000000
FF00000000
FF00000000
FF00000000
FF00000000
FF00000000
FF00000000
FF00000000
FF00000000
FF00000000
FF00000000
FF00000000
FF00000000
FF00000000
FF00000000
FFFFFFFF00
FFFFFFFF00
FFFFFFFF00
FFFFFFFF00
FFFFFFFF00
FFFFFFFF00
FFFFFFFF00
FF00000000
FF00000000
FF00000000
FF00000000
FF00000000
FF00000000
FF00000000
FF00000000
FF00000000
FF00000000
FF00000000
FF00000000
FF00000000
FF00000000
FF00000000
FF00000000
FF00000000
FF00000000
FF00000000
FF00000000
FF00000000
FF00000000
FF00000000
FFFFFFFFF8
FFFFFFFFF8
FFFFFFFFF8
FFFFFFFFF8
FFFFFFFFF8
FFFFFFFFF8
FFFFFFFFF8
00000007E0
0000001F80
0000003F00
0000007E00
0000007C00
000000FC00
000001F800
000001F800
000001F000
000003F000
000003F000
000003F000
000003F800
000003F800
000003FC08
000003FFFC
000001FFFC
000001FFFE
000000FFFE
0000003FF8
0000000FC0
ENDCHAR
STARTCHAR 0119
ENCODING 281
SWIDTH 493 0
DWIDTH 48 0
BBX 41 68 4 -20
BITMAP
00007FC00000
0003FFFC0000
000FFFFF0000
001FFFFF8000
007FFFFFC000
00FFFFFFE000
01FFF0FFF000
03FF801FF800
03FE0007F800
07FC0003FC00
0FF80001FC00
0FF00001FE00
1FE00000FE00
1FC00000FE00
3FC000007F00
3FC000007F00
3F8000007F00
7F8000007F00
7F8000007F00
7F0000007F00
7F0000003F80
7FFFFFFFFF80
7FFFFFFFFF80
7FFFFFFFFF80
FFFFFFFFFF00
FFFFFFFFFF00
7FFFFFFFFF00
7F0000000000
7F8000000000
7F8000000000
7F8000000000
7F8000000000
7FC000000000
3FC000000000
3FC000000000
3FE000000000
1FF000000000
1FF000000000
0FF800000000
07FE00001000
07FF00007800
03FFC001F800
01FFFE7FFC00
00FFFFFFFC00
007FFFFFFC00
001FFFFFF800
000FFFFFF000
0001FFFFC000
00003FEF8000
0000001F0000
0000003E0000
0000007C0000
000000FC0000
000000F80000
000001F80000
000001F00000
000001F00000
000003F00000
000003F00000
000003F00000
000003F00000
000003F80000
000003FF7800
000001FFF800
000001FFFC00
000000FFFC00
0000007FF800
0000001FC000
ENDCHAR
STARTCHAR 011A
ENCODING 282
SWIDTH 524 0
DWIDTH 51 0
BBX 37 82 9 1
BITMAP
0380000E00
07C0001F00
07E0003F80
03F8007F00
01FC00FE00
01FE03FC00
00FF07F800
007F8FF000
003FFFE000
001FFFC000
000FFF8000
0007FF0000
0003FE0000
0000000000
0000000000
0000000000
0000000000
0000000000
FFFFFFFFF0
FFFFFFFFF0
FFFFFFFFF0
FFFFFFFFF0
FFFFFFFFF0
FFFFFFFFF0
FFFFFFFFF0
FF00000000
FF00000000
FF00000000
FF00000000
FF00000000
FF00000000
FF00000000
FF00000000
FF00000000
FF00000000
FF00000000
FF00000000
FF00000000
FF00000000
FF00000000
FF00000000
FF00000000
FF00000000
FF00000000
FF00000000
FFFFFFFF00
FFFFFFFF00
FFFFFFFF00
FFFFFFFF00
FFFFFFFF00
FFFFFFFF00
FFFFFFFF00
FF00000000
FF00000000
FF00000000
FF00000000
FF00000000
FF00000000
FF00000000
FF00000000
FF00000000
FF00000000
FF00000000
FF00000000
FF00000000
FF00000000
FF00000000
FF00000000
FF00000000
FF00000000
FF00000000
FF00000000
FF00000000
FF00000000
FF00000000
FFFFFFFFF8
FFFFFFFFF8
FFFFFFFFF8
FFFFFFFFF8
FFFFFFFFF8
FFFFFFFFF8
FFFFFFFFF8
ENDCHAR
STARTCHAR 011B
ENCODING 283
SWIDTH 493 0
DWIDTH 48 0
BBX 41 73 4 -1
BITMAP
006000004000
00F00000E000
01F80001F000
01FC0003F000
00FE0007F000
007F000FE000
007F801FC000
003FC07F8000
001FE0FF0000
000FF1FE0000
0007FBFE0000
0007FFFC0000
0003FFF80000
0001FFF00000
0000FFE00000
00007FE00000
00007FC00000
000000000000
000000000000
000000000000
000000000000
000000000000
000000000000
000000000000
00007FC00000
0003FFFC0000
000FFFFF0000
001FFFFF8000
007FFFFFC000
00FFFFFFE000
01FFF0FFF000
03FF801FF800
03FE0007F800
07FC0003FC00
0FF80001FC00
0FF00001FE00
1FE00000FE00
1FC00000FE00
3FC000007F00
3FC000007F00
3F8000007F00
7F8000007F00
7F8000007F00
7F0000007F00
7F0000003F80
7FFFFFFFFF80
7FFFFFFFFF80
7FFFFFFFFF80
FFFFFFFFFF00
FFFFFFFFFF00
7FFFFFFFFF00
7F0000000000
7F8000000000
7F8000000000
7F8000000000
7F8000000000
7FC000000000
3FC000000000
3FC000000000
3FE000000000
1FF000000000
1FF000000000
0FF800000000
07FE00001000
07FF00007800
03FFC001F800
01FFFE7FFC00
00FFFFFFFC00
007FFFFFFC00
001FFFFFF000
000FFFFFC000
0001FFFF0000
00003FF00000
ENDCHAR
STARTCHAR 011C
ENCODING 284
SWIDTH 617 0
DWIDTH 60 0
BBX 48 82 5 -1
BITMAP
000000FFE000
000001FFE000
000003FFF000
000003FFF800
000007FBFC00
00000FE1FE00
00001FC07F00
00003F803F80
00007F001FC0
0000FE000FE0
0001F80007F0
0000F00003C0
000020000080
000000000000
000000000000
000000000000
000000FFE000
00000FFFFC00
00007FFFFF00
0001FFFFFFC0
0003FFFFFFF0
000FFFFFFFF8
001FFFFFFFFC
003FFF807FFE
007FFC0007FE
00FFF00001FC
01FFC00000F8
03FF80000078
03FF00000010
07FE00000000
0FFC00000000
0FF800000000
1FF000000000
1FF000000000
1FE000000000
3FE000000000
3FE000000000
3FC000000000
7FC000000000
7FC000000000
7F8000000000
7F8000000000
7F8000000000
FF8000000000
FF8000000000
FF8000000000
FF8000000000
FF0000000000
FF00000FFFFF
FF00000FFFFF
FF00000FFFFF
FF80000FFFFF
FF80000FFFFF
FF80000FFFFF
FF80000FFFFF
FF800000007F
7F800000007F
7F800000007F
7FC00000007F
7FC00000007F
7FC00000007F
3FC00000007F
3FE00000007F
3FE00000007F
1FF00000007F
1FF00000007F
0FF80000007F
0FFC0000007F
07FC0000007F
07FE0000007F
03FF8000007F
01FFC000007F
01FFE00001FF
00FFFC0007FF
007FFF803FFF
003FFFFFFFFF
000FFFFFFFFC
0007FFFFFFF8
0001FFFFFFE0
00007FFFFF80
00001FFFFE00
000001FFC000
ENDCHAR
STARTCHAR 011D
ENCODING 285
SWIDTH 504 0
DWIDTH 49 0
BBX 44 94 4 -22
BITMAP
00003FC00000
00007FE00000
0000FFF00000
0001FFF80000
0001FFF80000
0003FFFC0000
0007F9FE0000
000FF0FF0000
001FE07F8000
001FC03FC000
003F801FC000
007F000FE000
00FE0007F000
01FC0003F800
00F80001F000
00700000E000
002000004000
000000000000
000000000000
000000000000
000000000000
000000000000
000000000000
000000000000
0000FF800000
000FFFFFFFE0
003FFFFFFFE0
007FFFFFFFE0
01FFFFFFFFE0
03FFFFFFFFE0
03FF00FFFFE0
07FC003FC000
0FF8001FE000
0FF0000FE000
1FE0000FF000
1FE00007F000
1FE00007F800
3FC00003F800
3FC00003F800
3FC00003F800
3FC00003F800
3FC00003F800
3FC00003F800
3FC00003F800
1FC00007F800
1FE00007F800
1FE00007F000
0FF0000FF000
0FF8001FF000
07F8003FE000
07FE007FC000
03FF81FFC000
01FFFFFF8000
00FFFFFE0000
01FFFFFC0000
03FFFFF00000
07F1FFC00000
07E000000000
0FC000000000
0FC000000000
1FC000000000
1FC000000000
1FC000000000
1FC000000000
1FE000000000
0FF800000000
0FFFFFFC0000
0FFFFFFFF000
07FFFFFFFE00
03FFFFFFFF00
01FFFFFFFF80
03FFFFFFFFC0
07F3FFFFFFE0
0FC00001FFE0
1FC000003FF0
3F8000001FF0
3F0000000FF0
7F0000000FF0
7F0000000FF0
7E0000000FF0
FE0000000FF0
FF0000000FE0
FF0000001FE0
7F0000003FC0
7F8000007FC0
7FC00000FF80
3FF00003FF00
3FFC000FFE00
1FFFFFFFFC00
0FFFFFFFF800
07FFFFFFE000
01FFFFFF8000
003FFFFC0000
0003FFC00000
ENDCHAR
STARTCHAR 011E
ENCODING 286
SWIDTH 617 0
DWIDTH 60 0
BBX 48 83 5 -1
BITMAP
0000F00001E0
0001F80003E0
0000F80003E0
0000F80003E0
0000FC0007E0
00007E000FC0
00007F001FC0
00003FC07F80
00003FFFFF00
00001FFFFF00
00000FFFFC00
000003FFF800
000000FFC000
000000000000
000000000000
000000000000
000000000000
000000FFE000
00000FFFFC00
00007FFFFF00
0001FFFFFFC0
0003FFFFFFF0
000FFFFFFFF8
001FFFFFFFFC
003FFF807FFE
007FFC0007FE
00FFF00001FC
01FFC00000F8
03FF80000078
03FF00000010
07FE00000000
0FFC00000000
0FF800000000
1FF000000000
1FF000000000
1FE000000000
3FE000000000
3FE000000000
3FC000000000
7FC000000000
7FC000000000
7F8000000000
7F8000000000
7F8000000000
FF8000000000
FF8000000000
FF8000000000
FF8000000000
FF0000000000
FF00000FFFFF
FF00000FFFFF
FF00000FFFFF
FF80000FFFFF
FF80000FFFFF
FF80000FFFFF
FF80000FFFFF
FF800000007F
7F800000007F
7F800000007F
7FC00000007F
7FC00000007F
7FC00000007F
3FC00000007F
3FE00000007F
3FE00000007F
1FF00000007F
1FF00000007F
0FF80000007F
0FFC0000007F
07FC0000007F
07FE0000007F
03FF8000007F
01FFC000007F
01FFE00001FF
00FFFC0007FF
007FFF803FFF
003FFFFFFFFF
000FFFFFFFFC
0007FFFFFFF8
0001FFFFFFE0
00007FFFFF80
00001FFFFE00
000001FFC000
ENDCHAR
STARTCHAR 011F
ENCODING 287
SWIDTH 504 0
DWIDTH 49 0
BBX 44 93 4 -22
BITMAP
00300000C000
01F00000F800
01F00000F800
01F80001F800
01F80001F800
00FC0001F000
00FC0003F000
00FE0007F000
007F000FE000
007FC01FE000
003FF8FFC000
001FFFFF8000
000FFFFF0000
0007FFFE0000
0001FFF80000
00003FC00000
000000000000
000000000000
000000000000
000000000000
000000000000
000000000000
000000000000
0000FF800000
000FFFFFFFE0
003FFFFFFFE0
007FFFFFFFE0
01FFFFFFFFE0
03FFFFFFFFE0
03FF00FFFFE0
07FC003FC000
0FF8001FE000
0FF0000FE000
1FE0000FF000
1FE00007F000
1FE00007F800
3FC00003F800
3FC00003F800
3FC00003F800
3FC00003F800
3FC00003F800
3FC00003F800
3FC00003F800
1FC00007F800
1FE00007F800
1FE00007F000
0FF0000FF000
0FF8001FF000
07F8003FE000
07FE007FC000
03FF81FFC000
01FFFFFF8000
00FFFFFE0000
01FFFFFC0000
03FFFFF00000
07F1FFC00000
07E000000000
0FC000000000
0FC000000000
1FC000000000
1FC000000000
1FC000000000
1FC000000000
1FE000000000
0FF800000000
0FFFFFFC0000
0FFFFFFFF000
07FFFFFFFE00
03FFFFFFFF00
01FFFFFFFF80
03FFFFFFFFC0
07F3FFFFFFE0
0FC00001FFE0
1FC000003FF0
3F8000001FF0
3F0000000FF0
7F0000000FF0
7F0000000FF0
7E0000000FF0
FE0000000FF0
FF0000000FE0
FF0000001FE0
7F0000003FC0
7F8000007FC0
7FC00000FF80
3FF00003FF00
3FFC000FFE00
1FFFFFFFFC00
0FFFFFFFF800
07FFFFFFE000
01FFFFFF8000
003FFFFC0000
0003FFC00000
ENDCHAR
STARTCHAR 0120
ENCODING 288
SWIDTH 617 0
DWIDTH 60 0
BBX 48 81 5 -1
BITMAP
0000001F0000
0000007F8000
0000007FC000
000000FFE000
000000FFE000
000000FFE000
000000FFE000
000000FFC000
0000007FC000
0000003F8000
000000000000
000000000000
000000000000
000000000000
000000000000
000000FFE000
00000FFFFC00
00007FFFFF00
0001FFFFFFC0
0003FFFFFFF0
000FFFFFFFF8
001FFFFFFFFC
003FFF807FFE
007FFC0007FE
00FFF00001FC
01FFC00000F8
03FF80000078
03FF00000010
07FE00000000
0FFC00000000
0FF800000000
1FF000000000
1FF000000000
1FE000000000
3FE000000000
3FE000000000
3FC000000000
7FC000000000
7FC000000000
7F8000000000
7F8000000000
7F8000000000
FF8000000000
FF8000000000
FF8000000000
FF8000000000
FF0000000000
FF00000FFFFF
FF00000FFFFF
FF00000FFFFF
FF80000FFFFF
FF80000FFFFF
FF80000FFFFF
FF80000FFFFF
FF800000007F
7F800000007F
7F800000007F
7FC00000007F
7FC00000007F
7FC00000007F
3FC00000007F
3FE00000007F
3FE00000007F
1FF00000007F
1FF00000007F
0FF80000007F
0FFC0000007F
07FC0000007F
07FE0000007F
03FF8000007F
01FFC000007F
01FFE00001FF
00FFFC0007FF
007FFF803FFF
003FFFFFFFFF
000FFFFFFFFC
0007FFFFFFF8
0001FFFFFFE0
00007FFFFF80
00001FFFFE00
000001FFC000
ENDCHAR
STARTCHAR 0121
ENCODING 289
SWIDTH 504 0
DWIDTH 49 0
BBX 44 89 4 -22
BITMAP
00000F000000
00003FC00000
00003FE00000
00007FE00000
00007FE00000
00007FE00000
00007FE00000
00007FE00000
00003FC00000
00001F800000
000000000000
000000000000
000000000000
000000000000
000000000000
000000000000
000000000000
000000000000
000000000000
0000FF800000
000FFFFFFFE0
003FFFFFFFE0
007FFFFFFFE0
01FFFFFFFFE0
03FFFFFFFFE0
03FF00FFFFE0
07FC003FC000
0FF8001FE000
0FF0000FE000
1FE0000FF000
1FE00007F000
1FE00007F800
3FC00003F800
3FC00003F800
3FC00003F800
3FC00003F800
3FC00003F800
3FC00003F800
3FC00003F800
1FC00007F800
1FE00007F800
1FE00007F000
0FF0000FF000
0FF8001FF000
07F8003FE000
07FE007FC000
03FF81FFC000
01FFFFFF8000
00FFFFFE0000
01FFFFFC0000
03FFFFF00000
07F1FFC00000
07E000000000
0FC000000000
0FC000000000
1FC000000000
1FC000000000
1FC000000000
1FC000000000
1FE000000000
0FF800000000
0FFFFFFC0000
0FFFFFFFF000
07FFFFFFFE00
03FFFFFFFF00
01FFFFFFFF80
03FFFFFFFFC0
07F3FFFFFFE0
0FC00001FFE0
1FC000003FF0
3F8000001FF0
3F0000000FF0
7F0000000FF0
7F0000000FF0
7E0000000FF0
FE0000000FF0
FF0000000FE0
FF0000001FE0
7F0000003FC0
7F8000007FC0
7FC00000FF80
3FF00003FF00
3FFC000FFE00
1FFFFFFFFC00
0FFFFFFFF800
07FFFFFFE000
01FFFFFF8000
003FFFFC0000
0003FFC00000
ENDCHAR
STARTCHAR 0122
ENCODING 290
SWIDTH 617 0
DWIDTH 60 0
BBX 48 87 5 -22
BITMAP
000000FFE000
00000FFFFC00
00007FFFFF00
0001FFFFFFC0
0003FFFFFFF0
000FFFFFFFF8
001FFFFFFFFC
003FFF807FFE
007FFC0007FE
00FFF00001FC
01FFC00000F8
03FF80000078
03FF00000010
07FE00000000
0FFC00000000
0FF800000000
1FF000000000
1FF000000000
1FE000000000
3FE000000000
3FE000000000
3FC000000000
7FC000000000
7FC000000000
7F8000000000
7F8000000000
7F8000000000
FF8000000000
FF8000000000
FF8000000000
FF8000000000
FF0000000000
FF00000FFFFF
FF00000FFFFF
FF00000FFFFF
FF80000FFFFF
FF80000FFFFF
FF80000FFFFF
FF80000FFFFF
FF800000007F
7F800000007F
7F800000007F
7FC00000007F
7FC00000007F
7FC00000007F
3FC00000007F
3FE00000007F
3FE00000007F
1FF00000007F
1FF00000007F
0FF80000007F
0FFC0000007F
07FC0000007F
07FE0000007F
03FF8000007F
01FFC000007F
01FFE00001FF
00FFFC0007FF
007FFF803FFF
003FFFFFFFFF
000FFFFFFFFC
0007FFFFFFF8
0001FFFFFFE0
00007FFFFF80
00001FFFFE00
000001FFC000
000000000000
000000000000
000000000000
000000000000
000000400000
000000FE0000
000000FF8000
000000FFE000
0000003FF000
00000007F000
00000003F000
00000003F000
00000003F000
00000003F000
00000007F000
0000000FE000
000000FFE000
00000FFFC000
00000FFF0000
00000FF80000
00000F800000
ENDCHAR
STARTCHAR 0123
ENCODING 291
SWIDTH 504 0
DWIDTH 49 0
BBX 44 94 4 -22
BITMAP
0000003E0000
000007FE0000
00001FFE0000
00007FFE0000
0000FFE00000
0001FE000000
0001FC000000
0001F8000000
0001F8000000
0003F8000000
0001F8000000
0001FC000000
0001FF800000
0000FFE00000
00007FE00000
00000FC00000
000000C00000
000000000000
000000000000
000000000000
000000000000
000000000000
000000000000
000000000000
0000FF800000
000FFFFFFFE0
003FFFFFFFE0
007FFFFFFFE0
01FFFFFFFFE0
03FFFFFFFFE0
03FF00FFFFE0
07FC003FC000
0FF8001FE000
0FF0000FE000
1FE0000FF000
1FE00007F000
1FE00007F800
3FC00003F800
3FC00003F800
3FC00003F800
3FC00003F800
3FC00003F800
3FC00003F800
3FC00003F800
1FC00007F800
1FE00007F800
1FE00007F000
0FF0000FF000
0FF8001FF000
07F8003FE000
07FE007FC000
03FF81FFC000
01FFFFFF8000
00FFFFFE0000
01FFFFFC0000
03FFFFF00000
07F1FFC00000
07E000000000
0FC000000000
0FC000000000
1FC000000000
1FC000000000
1FC000000000
1FC000000000
1FE000000000
0FF800000000
0FFFFFFC0000
0FFFFFFFF000
07FFFFFFFE00
03FFFFFFFF00
01FFFFFFFF80
03FFFFFFFFC0
07F3FFFFFFE0
0FC00001FFE0
1FC000003FF0
3F8000001FF0
3F0000000FF0
7F0000000FF0
7F0000000FF0
7E0000000FF0
FE0000000FF0
FF0000000FE0
FF0000001FE0
7F0000003FC0
7F8000007FC0
7FC00000FF80
3FF00003FF00
3FFC000FFE00
1FFFFFFFFC00
0FFFFFFFF800
07FFFFFFE000
01FFFFFF8000
003FFFFC0000
0003FFC00000
ENDCHAR
STARTCHAR 0124
ENCODING 292
SWIDTH 648 0
DWIDTH 63 0
BBX 46 81 9 0
BITMAP
00007FF00000
00007FF80000
0000FFFC0000
0001FFFE0000
0003FDFE0000
0007F87F0000
000FE03F8000
001FC01FC000
003F800FE000
007F0007F000
00FE0001F800
00380000E000
001000004000
000000000000
000000000000
000000000000
000000000000
FF00000007FC
FF00000007FC
FF00000007FC
FF00000007FC
FF00000007FC
FF00000007FC
FF00000007FC
FF00000007FC
FF00000007FC
FF00000007FC
FF00000007FC
FF00000007FC
FF00000007FC
FF00000007FC
FF00000007FC
FF00000007FC
FF00000007FC
FF00000007FC
FF00000007FC
FF00000007FC
FF00000007FC
FF00000007FC
FF00000007FC
FF00000007FC
FF00000007FC
FF00000007FC
FF00000007FC
FFFFFFFFFFFC
FFFFFFFFFFFC
FFFFFFFFFFFC
FFFFFFFFFFFC
FFFFFFFFFFFC
FFFFFFFFFFFC
FFFFFFFFFFFC
FF00000007FC
FF00000007FC
FF00000007FC
FF00000007FC
FF00000007FC
FF00000007FC
FF00000007FC
FF00000007FC
FF00000007FC
FF00000007FC
FF00000007FC
FF00000007FC
FF00000007FC
FF00000007FC
FF00000007FC
FF00000007FC
FF00000007FC
FF00000007FC
FF00000007FC
FF00000007FC
FF00000007FC
FF00000007FC
FF00000007FC
FF00000007FC
FF00000007FC
FF00000007FC
FF00000007FC
FF00000007FC
FF00000007FC
FF00000007FC
ENDCHAR
STARTCHAR 0125
ENCODING 293
SWIDTH 545 0
DWIDTH 53 0
BBX 48 85 -2 0
BITMAP
007FE0000000
00FFF0000000
01FFF8000000
03FFFC000000
07F9FE000000
0FF0FF000000
1FE07F800000
1FC03FC00000
3F801FE00000
7E0007E00000
FC0003F00000
780001E00000
300000C00000
000000000000
000000000000
000000000000
003FC0000000
003FC0000000
003FC0000000
003FC0000000
003FC0000000
003FC0000000
003FC0000000
003FC0000000
003FC0000000
003FC0000000
003FC0000000
003FC0000000
003FC0000000
003FC0000000
003FC0000000
003FC0000000
003FC0000000
003FC0000000
003FC0000000
003FC0000000
003FC0000000
003FC007FC00
003FC03FFF80
003FC0FFFFC0
003FC1FFFFE0
003FC7FFFFF0
003FCFFFFFF8
003FDFFFFFFC
003FFFE03FFC
003FFF800FFC
003FFE0007FE
003FFC0003FE
003FF80001FE
003FF00001FE
003FE00001FF
003FC00001FF
003FC00000FF
003FC00000FF
003FC00000FF
003FC00000FF
003FC00000FF
003FC00000FF
003FC00000FF
003FC00000FF
003FC00000FF
003FC00000FF
003FC00000FF
003FC00000FF
003FC00000FF
003FC00000FF
003FC00000FF
003FC00000FF
003FC00000FF
003FC00000FF
003FC00000FF
003FC00000FF
003FC00000FF
003FC00000FF
003FC00000FF
003FC00000FF
003FC00000FF
003FC00000FF
003FC00000FF
003FC00000FF
003FC00000FF
003FC00000FF
003FC00000FF
003FC00000FF
003FC00000FF
ENDCHAR
STARTCHAR 0126
ENCODING 294
SWIDTH 689 0
DWIDTH 67 0
BBX 61 64 3 0
BITMAP
00FF00000007FC00
00FF00000007FC00
00FF00000007FC00
00FF00000007FC00
00FF00000007FC00
00FF00000007FC00
00FF00000007FC00
00FF00000007FC00
00FF00000007FC00
00FF00000007FC00
00FF00000007FC00
01FFFFFFFFFFFFF8
FFFFFFFFFFFFFFF8
FFFFFFFFFFFFFFF8
FFFFFFFFFFFFFFF8
FFFFFFFFFFFFFFF8
00FF00000007FC00
00FF00000007FC00
00FF00000007FC00
00FF00000007FC00
00FF00000007FC00
00FF00000007FC00
00FF00000007FC00
00FF00000007FC00
00FF00000007FC00
00FF00000007FC00
00FF00000007FC00
00FFFFFFFFFFFC00
00FFFFFFFFFFFC00
00FFFFFFFFFFFC00
00FFFFFFFFFFFC00
00FFFFFFFFFFFC00
00FFFFFFFFFFFC00
00FFFFFFFFFFFC00
00FF00000007FC00
00FF00000007FC00
00FF00000007FC00
00FF00000007FC00
00FF00000007FC00
00FF00000007FC00
00FF00000007FC00
00FF00000007FC00
00FF00000007FC00
00FF00000007FC00
00FF00000007FC00
00FF00000007FC00
00FF00000007FC00
00FF00000007FC00
00FF00000007FC00
00FF00000007FC00
00FF00000007FC00
00FF00000007FC00
00FF00000007FC00
00FF00000007FC00
00FF00000007FC00
00FF00000007FC00
00FF00000007FC00
00FF00000007FC00
00FF00000007FC00
00FF00000007FC00
00FF00000007FC00
00FF00000007FC00
00FF00000007FC00
00FF00000007FC00
ENDCHAR
STARTCHAR 0127
ENCODING 295
SWIDTH 545 0
DWIDTH 53 0
BBX 45 69 1 0
BITMAP
01FE00000000
01FE00000000
01FE00000000
01FE00000000
01FE00000000
01FE00000000
01FE00000000
01FE00000000
01FE00000000
FFFFFFFF8000
FFFFFFFF8000
FFFFFFFF8000
FFFFFFFF8000
FFFFFFFF8000
01FE00000000
01FE00000000
01FE00000000
01FE00000000
01FE00000000
01FE00000000
01FE00000000
01FE00000000
01FE00000000
01FE00000000
01FE00000000
01FE003FE000
01FE00FFFC00
01FE03FFFE00
01FE0FFFFF00
01FE1FFFFF80
01FE7FFFFFC0
01FEFFFFFFE0
01FFFF01FFE0
01FFFC007FE0
01FFF0003FF0
01FFE0001FF0
01FFC0000FF0
01FF80000FF0
01FF00000FF8
01FE00000FF8
01FE000007F8
01FE000007F8
01FE000007F8
01FE000007F8
01FE000007F8
01FE000007F8
01FE000007F8
01FE000007F8
01FE000007F8
01FE000007F8
01FE000007F8
01FE000007F8
01FE000007F8
01FE000007F8
01FE000007F8
01FE000007F8
01FE000007F8
01FE000007F8
01FE000007F8
01FE000007F8
01FE000007F8
01FE000007F8
01FE000007F8
01FE000007F8
01FE000007F8
01FE000007F8
01FE000007F8
01FE000007F8
01FE000007F8
ENDCHAR
STARTCHAR 0128
ENCODING 296
SWIDTH 267 0
DWIDTH 26 0
BBX 34 82 -4 0
BITMAP
03F8000000
0FFE000FC0
1FFF000FC0
3FFFC00FC0
3FFFE01FC0
7FFFF01F80
7F0FFC3F80
FE07FFFF00
FC01FFFF00
FC00FFFE00
F8007FFC00
F8001FF800
000007E000
0000000000
0000000000
0000000000
0000000000
0000000000
0007F80000
0007F80000
0007F80000
0007F80000
0007F80000
0007F80000
0007F80000
0007F80000
0007F80000
0007F80000
0007F80000
0007F80000
0007F80000
0007F80000
0007F80000
0007F80000
0007F80000
0007F80000
0007F80000
0007F80000
0007F80000
0007F80000
0007F80000
0007F80000
0007F80000
0007F80000
0007F80000
0007F80000
0007F80000
0007F80000
0007F80000
0007F80000
0007F80000
0007F80000
0007F80000
0007F80000
0007F80000
0007F80000
0007F80000
0007F80000
0007F80000
0007F80000
0007F80000
0007F80000
0007F80000
0007F80000
0007F80000
0007F80000
0007F80000
0007F80000
0007F80000
0007F80000
0007F80000
0007F80000
0007F80000
0007F80000
0007F80000
0007F80000
0007F80000
0007F80000
0007F80000
0007F80000
0007F80000
0007F80000
ENDCHAR
STARTCHAR 0129
ENCODING 297
SWIDTH 246 0
DWIDTH 24 0
BBX 34 70 -5 0
BITMAP
03FC000E00
07FE000FC0
0FFF800FC0
1FFFC00FC0
3FFFE00F80
3FFFE01F80
7F0FF81F80
7E03FC3F80
7E01FFFF00
7C00FFFF00
FC007FFE00
FC003FFC00
FC001FF800
080007E000
0000000000
0000000000
0000000000
0000000000
0000000000
0000000000
0000000000
0000000000
0000000000
0007F80000
0007F80000
0007F80000
0007F80000
0007F80000
0007F80000
0007F80000
0007F80000
0007F80000
0007F80000
0007F80000
0007F80000
0007F80000
0007F80000
0007F80000
0007F80000
0007F80000
0007F80000
0007F80000
0007F80000
0007F80000
0007F80000
0007F80000
0007F80000
0007F80000
0007F80000
0007F80000
0007F80000
0007F80000
0007F80000
0007F80000
0007F80000
0007F80000
0007F80000
0007F80000
0007F80000
0007F80000
0007F80000
0007F80000
0007F80000
0007F80000
0007F80000
0007F80000
0007F80000
0007F80000
0007F80000
0007F80000
ENDCHAR
ENDFONT
